<ttFont>
    <TTGlyph name="A" xMin="-20" yMin="0" xMax="1409" yMax="1464">
      <contour>
        <pt x="1135" y="0" on="1"/>
        <pt x="1135" y="4" on="1"/>
        <pt x="1137" y="9" on="0"/>
        <pt x="1139" y="29" on="0"/>
        <pt x="1139" y="37" on="1"/>
        <pt x="1139" y="68" on="0"/>
        <pt x="1122" y="143" on="0"/>
        <pt x="1098" y="199" on="1"/>
        <pt x="977" y="471" on="1"/>
        <pt x="921" y="473" on="0"/>
        <pt x="735" y="473" on="0"/>
        <pt x="627" y="473" on="1"/>
        <pt x="548" y="473" on="0"/>
        <pt x="401" y="473" on="0"/>
        <pt x="342" y="471" on="1"/>
        <pt x="227" y="207" on="1"/>
        <pt x="212" y="170" on="0"/>
        <pt x="178" y="82" on="0"/>
        <pt x="178" y="37" on="1"/>
        <pt x="178" y="24" on="0"/>
        <pt x="182" y="7" on="0"/>
        <pt x="184" y="4" on="1"/>
        <pt x="184" y="0" on="1"/>
        <pt x="-20" y="0" on="1"/>
        <pt x="-20" y="4" on="1"/>
        <pt x="-2" y="23" on="0"/>
        <pt x="52" y="120" on="0"/>
        <pt x="84" y="193" on="1"/>
        <pt x="657" y="1464" on="1"/>
        <pt x="737" y="1464" on="1"/>
        <pt x="1280" y="242" on="1"/>
        <pt x="1299" y="199" on="0"/>
        <pt x="1340" y="118" on="0"/>
        <pt x="1376" y="54" on="0"/>
        <pt x="1404" y="10" on="0"/>
        <pt x="1409" y="4" on="1"/>
        <pt x="1409" y="0" on="1"/>
      </contour>
      <contour>
        <pt x="487" y="559" on="1"/>
        <pt x="545" y="559" on="0"/>
        <pt x="667" y="560" on="0"/>
        <pt x="784" y="561" on="0"/>
        <pt x="892" y="562" on="0"/>
        <pt x="936" y="563" on="1"/>
        <pt x="655" y="1198" on="1"/>
        <pt x="379" y="559" on="1"/>
      </contour>
    </TTGlyph>
    <TTGlyph name="AE" xMin="-123" yMin="-8" xMax="1608" yMax="1450">
      <contour>
        <pt x="774" y="715" on="1"/>
        <pt x="693" y="715" on="0"/>
        <pt x="538" y="715" on="0"/>
        <pt x="479" y="713" on="1"/>
        <pt x="184" y="203" on="1"/>
        <pt x="174" y="185" on="0"/>
        <pt x="152" y="144" on="0"/>
        <pt x="133" y="102" on="0"/>
        <pt x="121" y="58" on="0"/>
        <pt x="121" y="37" on="1"/>
        <pt x="121" y="24" on="0"/>
        <pt x="125" y="7" on="0"/>
        <pt x="127" y="4" on="1"/>
        <pt x="127" y="0" on="1"/>
        <pt x="-123" y="0" on="1"/>
        <pt x="-123" y="4" on="1"/>
        <pt x="-91" y="24" on="0"/>
        <pt x="-5" y="117" on="0"/>
        <pt x="37" y="188" on="1"/>
        <pt x="545" y="1038" on="1"/>
        <pt x="591" y="1116" on="0"/>
        <pt x="663" y="1247" on="0"/>
        <pt x="715" y="1348" on="0"/>
        <pt x="748" y="1418" on="0"/>
        <pt x="754" y="1434" on="1"/>
        <pt x="891" y="1434" on="1"/>
        <pt x="1012" y="1434" on="0"/>
        <pt x="1245" y="1436" on="0"/>
        <pt x="1438" y="1439" on="0"/>
        <pt x="1575" y="1445" on="0"/>
        <pt x="1599" y="1450" on="1"/>
        <pt x="1550" y="1317" on="1"/>
        <pt x="1517" y="1326" on="0"/>
        <pt x="1473" y="1333" on="1"/>
        <pt x="1435" y="1339" on="0"/>
        <pt x="1326" y="1350" on="0"/>
        <pt x="1255" y="1350" on="1"/>
        <pt x="1231" y="1350" on="0"/>
        <pt x="1165" y="1347" on="0"/>
        <pt x="1134" y="1345" on="1"/>
        <pt x="1098" y="1343" on="0"/>
        <pt x="1061" y="1341" on="1"/>
        <pt x="1061" y="795" on="1"/>
        <pt x="1164" y="796" on="0"/>
        <pt x="1329" y="806" on="0"/>
        <pt x="1387" y="811" on="1"/>
        <pt x="1455" y="817" on="0"/>
        <pt x="1507" y="825" on="1"/>
        <pt x="1477" y="680" on="1"/>
        <pt x="1408" y="689" on="0"/>
        <pt x="1336" y="697" on="1"/>
        <pt x="1274" y="704" on="0"/>
        <pt x="1128" y="715" on="0"/>
        <pt x="1061" y="715" on="1"/>
        <pt x="1061" y="88" on="1"/>
        <pt x="1178" y="88" on="0"/>
        <pt x="1377" y="108" on="0"/>
        <pt x="1451" y="121" on="1"/>
        <pt x="1537" y="135" on="0"/>
        <pt x="1608" y="154" on="1"/>
        <pt x="1579" y="-8" on="1"/>
        <pt x="1567" y="-7" on="0"/>
        <pt x="1519" y="-5" on="0"/>
        <pt x="1460" y="-3" on="0"/>
        <pt x="1395" y="-2" on="0"/>
        <pt x="1337" y="-1" on="0"/>
        <pt x="1292" y="0" on="0"/>
        <pt x="1282" y="0" on="1"/>
        <pt x="850" y="0" on="1"/>
        <pt x="850" y="4" on="1"/>
        <pt x="856" y="25" on="0"/>
        <pt x="867" y="87" on="0"/>
        <pt x="874" y="179" on="0"/>
        <pt x="879" y="306" on="0"/>
        <pt x="879" y="391" on="1"/>
        <pt x="879" y="715" on="1"/>
      </contour>
      <contour>
        <pt x="524" y="791" on="1"/>
        <pt x="879" y="791" on="1"/>
        <pt x="879" y="1042" on="1"/>
        <pt x="879" y="1135" on="0"/>
        <pt x="879" y="1267" on="0"/>
        <pt x="877" y="1315" on="1"/>
        <pt x="827" y="1315" on="1"/>
      </contour>
    </TTGlyph>
    <TTGlyph name="AEacute" xMin="-123" yMin="-8" xMax="1608" yMax="1887">
      <component glyphName="AE" x="0" y="0" flags="0x204"/>
      <component glyphName="acute" x="631" y="410" flags="0x4"/>
    </TTGlyph>
    <TTGlyph name="Aacute" xMin="-20" yMin="0" xMax="1409" yMax="1887">
      <component glyphName="A" x="0" y="0" flags="0x204"/>
      <component glyphName="acute" x="285" y="410" flags="0x4"/>
    </TTGlyph>
    <TTGlyph name="Abreve" xMin="-20" yMin="0" xMax="1409" yMax="1919">
      <component glyphName="A" x="0" y="0" flags="0x204"/>
      <component glyphName="breve" x="182" y="410" flags="0x4"/>
    </TTGlyph>
    <TTGlyph name="Acircumflex" xMin="-20" yMin="0" xMax="1409" yMax="1887">
      <component glyphName="A" x="0" y="0" flags="0x204"/>
      <component glyphName="circumflex" x="182" y="410" flags="0x4"/>
    </TTGlyph>
    <TTGlyph name="Adieresis" xMin="-20" yMin="0" xMax="1409" yMax="1815">
      <component glyphName="A" x="0" y="0" flags="0x204"/>
      <component glyphName="dieresis" x="182" y="410" flags="0x4"/>
    </TTGlyph>
    <TTGlyph name="Agrave" xMin="-20" yMin="0" xMax="1409" yMax="1887">
      <component glyphName="A" x="0" y="0" flags="0x204"/>
      <component glyphName="grave" x="78" y="410" flags="0x4"/>
    </TTGlyph>
    <TTGlyph name="Amacron" xMin="-20" yMin="0" xMax="1409" yMax="1774">
      <component glyphName="A" x="0" y="0" flags="0x204"/>
      <component glyphName="macron" x="182" y="410" flags="0x4"/>
    </TTGlyph>
    <TTGlyph name="Aogonek" xMin="-20" yMin="-430" xMax="1491" yMax="1464">
      <contour>
        <pt x="1491" y="-346" on="1"/>
        <pt x="1441" y="-378" on="0"/>
        <pt x="1309" y="-430" on="0"/>
        <pt x="1231" y="-430" on="1"/>
        <pt x="1192" y="-430" on="0"/>
        <pt x="1118" y="-414" on="0"/>
        <pt x="1060" y="-377" on="0"/>
        <pt x="1024" y="-318" on="0"/>
        <pt x="1024" y="-276" on="1"/>
        <pt x="1024" y="-233" on="0"/>
        <pt x="1071" y="-159" on="0"/>
        <pt x="1155" y="-92" on="0"/>
        <pt x="1269" y="-30" on="0"/>
        <pt x="1337" y="0" on="1"/>
        <pt x="1135" y="0" on="1"/>
        <pt x="1135" y="4" on="1"/>
        <pt x="1137" y="9" on="0"/>
        <pt x="1139" y="29" on="0"/>
        <pt x="1139" y="37" on="1"/>
        <pt x="1139" y="68" on="0"/>
        <pt x="1122" y="143" on="0"/>
        <pt x="1098" y="199" on="1"/>
        <pt x="977" y="471" on="1"/>
        <pt x="921" y="473" on="0"/>
        <pt x="735" y="473" on="0"/>
        <pt x="627" y="473" on="1"/>
        <pt x="548" y="473" on="0"/>
        <pt x="401" y="473" on="0"/>
        <pt x="342" y="471" on="1"/>
        <pt x="227" y="207" on="1"/>
        <pt x="212" y="170" on="0"/>
        <pt x="178" y="82" on="0"/>
        <pt x="178" y="37" on="1"/>
        <pt x="178" y="24" on="0"/>
        <pt x="182" y="7" on="0"/>
        <pt x="184" y="4" on="1"/>
        <pt x="184" y="0" on="1"/>
        <pt x="-20" y="0" on="1"/>
        <pt x="-20" y="4" on="1"/>
        <pt x="-2" y="23" on="0"/>
        <pt x="52" y="120" on="0"/>
        <pt x="84" y="193" on="1"/>
        <pt x="657" y="1464" on="1"/>
        <pt x="737" y="1464" on="1"/>
        <pt x="1280" y="242" on="1"/>
        <pt x="1299" y="199" on="0"/>
        <pt x="1340" y="118" on="0"/>
        <pt x="1376" y="54" on="0"/>
        <pt x="1404" y="10" on="0"/>
        <pt x="1409" y="4" on="1"/>
        <pt x="1409" y="0" on="1"/>
        <pt x="1358" y="-26" on="0"/>
        <pt x="1269" y="-85" on="0"/>
        <pt x="1203" y="-148" on="0"/>
        <pt x="1165" y="-217" on="0"/>
        <pt x="1165" y="-254" on="1"/>
        <pt x="1165" y="-308" on="0"/>
        <pt x="1230" y="-367" on="0"/>
        <pt x="1296" y="-367" on="1"/>
        <pt x="1322" y="-367" on="0"/>
        <pt x="1374" y="-357" on="0"/>
        <pt x="1420" y="-342" on="0"/>
        <pt x="1460" y="-324" on="0"/>
        <pt x="1475" y="-315" on="1"/>
      </contour>
      <contour>
        <pt x="487" y="559" on="1"/>
        <pt x="545" y="559" on="0"/>
        <pt x="667" y="560" on="0"/>
        <pt x="784" y="561" on="0"/>
        <pt x="892" y="562" on="0"/>
        <pt x="936" y="563" on="1"/>
        <pt x="655" y="1198" on="1"/>
        <pt x="379" y="559" on="1"/>
      </contour>
    </TTGlyph>
    <TTGlyph name="Aring" xMin="-20" yMin="0" xMax="1409" yMax="1995">
      <component glyphName="A" x="0" y="0" flags="0x204"/>
      <component glyphName="ring" x="184" y="410" flags="0x4"/>
    </TTGlyph>
    <TTGlyph name="Atilde" xMin="-20" yMin="0" xMax="1409" yMax="1821">
      <component glyphName="A" x="0" y="0" flags="0x204"/>
      <component glyphName="tilde" x="182" y="410" flags="0x4"/>
    </TTGlyph>
    <TTGlyph name="B" xMin="143" yMin="-16" xMax="1067" yMax="1446">
      <contour>
        <pt x="172" y="1042" on="1"/>
        <pt x="172" y="1127" on="0"/>
        <pt x="168" y="1254" on="0"/>
        <pt x="160" y="1347" on="0"/>
        <pt x="149" y="1409" on="0"/>
        <pt x="143" y="1430" on="1"/>
        <pt x="143" y="1434" on="1"/>
        <pt x="163" y="1433" on="0"/>
        <pt x="185" y="1433" on="1"/>
        <pt x="204" y="1432" on="0"/>
        <pt x="251" y="1432" on="0"/>
        <pt x="276" y="1432" on="1"/>
        <pt x="312" y="1432" on="0"/>
        <pt x="435" y="1446" on="0"/>
        <pt x="532" y="1446" on="1"/>
        <pt x="622" y="1446" on="0"/>
        <pt x="774" y="1399" on="0"/>
        <pt x="885" y="1311" on="0"/>
        <pt x="948" y="1182" on="0"/>
        <pt x="948" y="1100" on="1"/>
        <pt x="948" y="1031" on="0"/>
        <pt x="910" y="922" on="0"/>
        <pt x="841" y="841" on="0"/>
        <pt x="744" y="786" on="0"/>
        <pt x="686" y="770" on="1"/>
        <pt x="771" y="757" on="0"/>
        <pt x="911" y="696" on="0"/>
        <pt x="1012" y="604" on="0"/>
        <pt x="1067" y="481" on="0"/>
        <pt x="1067" y="406" on="1"/>
        <pt x="1067" y="195" on="0"/>
        <pt x="789" y="-16" on="0"/>
        <pt x="512" y="-16" on="1"/>
        <pt x="482" y="-16" on="0"/>
        <pt x="402" y="-11" on="0"/>
        <pt x="319" y="-5" on="0"/>
        <pt x="239" y="0" on="0"/>
        <pt x="209" y="0" on="1"/>
        <pt x="143" y="0" on="1"/>
        <pt x="143" y="4" on="1"/>
        <pt x="149" y="25" on="0"/>
        <pt x="160" y="87" on="0"/>
        <pt x="168" y="179" on="0"/>
        <pt x="172" y="306" on="0"/>
        <pt x="172" y="391" on="1"/>
      </contour>
      <contour>
        <pt x="539" y="709" on="1"/>
        <pt x="471" y="709" on="0"/>
        <pt x="379" y="699" on="0"/>
        <pt x="354" y="694" on="1"/>
        <pt x="354" y="391" on="1"/>
        <pt x="354" y="274" on="0"/>
        <pt x="362" y="122" on="0"/>
        <pt x="369" y="74" on="1"/>
        <pt x="407" y="69" on="0"/>
        <pt x="483" y="61" on="0"/>
        <pt x="506" y="61" on="1"/>
        <pt x="693" y="61" on="0"/>
        <pt x="866" y="228" on="0"/>
        <pt x="866" y="401" on="1"/>
        <pt x="866" y="469" on="0"/>
        <pt x="825" y="582" on="0"/>
        <pt x="744" y="664" on="0"/>
        <pt x="621" y="709" on="0"/>
      </contour>
      <contour>
        <pt x="354" y="784" on="1"/>
        <pt x="382" y="781" on="0"/>
        <pt x="426" y="780" on="0"/>
        <pt x="451" y="780" on="1"/>
        <pt x="519" y="780" on="0"/>
        <pt x="631" y="819" on="0"/>
        <pt x="710" y="897" on="0"/>
        <pt x="754" y="1014" on="0"/>
        <pt x="754" y="1092" on="1"/>
        <pt x="754" y="1157" on="0"/>
        <pt x="722" y="1263" on="0"/>
        <pt x="659" y="1338" on="0"/>
        <pt x="567" y="1378" on="0"/>
        <pt x="508" y="1378" on="1"/>
        <pt x="470" y="1378" on="0"/>
        <pt x="413" y="1372" on="0"/>
        <pt x="393" y="1368" on="1"/>
        <pt x="370" y="1364" on="0"/>
        <pt x="354" y="1358" on="1"/>
      </contour>
    </TTGlyph>
    <TTGlyph name="C" xMin="82" yMin="-31" xMax="1346" yMax="1458">
      <contour>
        <pt x="1303" y="1214" on="1"/>
        <pt x="1294" y="1210" on="1"/>
        <pt x="1216" y="1282" on="0"/>
        <pt x="997" y="1368" on="0"/>
        <pt x="866" y="1368" on="1"/>
        <pt x="740" y="1368" on="0"/>
        <pt x="530" y="1289" on="0"/>
        <pt x="379" y="1139" on="0"/>
        <pt x="295" y="921" on="0"/>
        <pt x="295" y="782" on="1"/>
        <pt x="295" y="629" on="0"/>
        <pt x="375" y="364" on="0"/>
        <pt x="533" y="170" on="0"/>
        <pt x="770" y="59" on="0"/>
        <pt x="928" y="59" on="1"/>
        <pt x="985" y="59" on="0"/>
        <pt x="1099" y="83" on="0"/>
        <pt x="1204" y="130" on="0"/>
        <pt x="1297" y="197" on="0"/>
        <pt x="1335" y="240" on="1"/>
        <pt x="1346" y="233" on="1"/>
        <pt x="1266" y="29" on="1"/>
        <pt x="1191" y="0" on="0"/>
        <pt x="1010" y="-31" on="0"/>
        <pt x="918" y="-31" on="1"/>
        <pt x="733" y="-31" on="0"/>
        <pt x="426" y="76" on="0"/>
        <pt x="205" y="272" on="0"/>
        <pt x="82" y="547" on="0"/>
        <pt x="82" y="715" on="1"/>
        <pt x="82" y="810" on="0"/>
        <pt x="131" y="994" on="0"/>
        <pt x="225" y="1160" on="0"/>
        <pt x="363" y="1299" on="0"/>
        <pt x="540" y="1401" on="0"/>
        <pt x="753" y="1458" on="0"/>
        <pt x="877" y="1458" on="1"/>
        <pt x="1070" y="1458" on="0"/>
        <pt x="1235" y="1399" on="1"/>
      </contour>
    </TTGlyph>
    <TTGlyph name="Cacute" xMin="82" yMin="-31" xMax="1346" yMax="1887">
      <component glyphName="C" x="0" y="0" flags="0x204"/>
      <component glyphName="acute" x="367" y="410" flags="0x4"/>
    </TTGlyph>
    <TTGlyph name="Ccaron" xMin="82" yMin="-31" xMax="1346" yMax="1887">
      <component glyphName="C" x="0" y="0" flags="0x204"/>
      <component glyphName="caron" x="344" y="410" flags="0x4"/>
    </TTGlyph>
    <TTGlyph name="Ccedilla" xMin="82" yMin="-457" xMax="1346" yMax="1458">
      <contour>
        <pt x="1079" y="-285" on="1"/>
        <pt x="1079" y="-324" on="0"/>
        <pt x="1041" y="-388" on="0"/>
        <pt x="974" y="-433" on="0"/>
        <pt x="882" y="-457" on="0"/>
        <pt x="829" y="-457" on="1"/>
        <pt x="768" y="-457" on="0"/>
        <pt x="659" y="-430" on="0"/>
        <pt x="612" y="-406" on="1"/>
        <pt x="631" y="-360" on="1"/>
        <pt x="644" y="-366" on="0"/>
        <pt x="676" y="-381" on="0"/>
        <pt x="715" y="-393" on="0"/>
        <pt x="764" y="-401" on="0"/>
        <pt x="795" y="-401" on="1"/>
        <pt x="861" y="-401" on="0"/>
        <pt x="944" y="-337" on="0"/>
        <pt x="944" y="-285" on="1"/>
        <pt x="944" y="-228" on="0"/>
        <pt x="866" y="-174" on="0"/>
        <pt x="809" y="-174" on="1"/>
        <pt x="800" y="-174" on="0"/>
        <pt x="770" y="-176" on="0"/>
        <pt x="762" y="-178" on="1"/>
        <pt x="817" y="-27" on="1"/>
        <pt x="653" y="-13" on="0"/>
        <pt x="383" y="105" on="0"/>
        <pt x="189" y="299" on="0"/>
        <pt x="82" y="559" on="0"/>
        <pt x="82" y="715" on="1"/>
        <pt x="82" y="810" on="0"/>
        <pt x="131" y="994" on="0"/>
        <pt x="225" y="1160" on="0"/>
        <pt x="363" y="1299" on="0"/>
        <pt x="540" y="1401" on="0"/>
        <pt x="753" y="1458" on="0"/>
        <pt x="877" y="1458" on="1"/>
        <pt x="1070" y="1458" on="0"/>
        <pt x="1235" y="1399" on="1"/>
        <pt x="1303" y="1214" on="1"/>
        <pt x="1294" y="1210" on="1"/>
        <pt x="1216" y="1282" on="0"/>
        <pt x="997" y="1368" on="0"/>
        <pt x="866" y="1368" on="1"/>
        <pt x="740" y="1368" on="0"/>
        <pt x="530" y="1289" on="0"/>
        <pt x="379" y="1139" on="0"/>
        <pt x="295" y="921" on="0"/>
        <pt x="295" y="782" on="1"/>
        <pt x="295" y="629" on="0"/>
        <pt x="375" y="364" on="0"/>
        <pt x="533" y="170" on="0"/>
        <pt x="770" y="59" on="0"/>
        <pt x="928" y="59" on="1"/>
        <pt x="985" y="59" on="0"/>
        <pt x="1099" y="83" on="0"/>
        <pt x="1204" y="130" on="0"/>
        <pt x="1297" y="197" on="0"/>
        <pt x="1335" y="240" on="1"/>
        <pt x="1346" y="233" on="1"/>
        <pt x="1266" y="29" on="1"/>
        <pt x="1191" y="0" on="0"/>
        <pt x="1010" y="-31" on="0"/>
        <pt x="918" y="-31" on="1"/>
        <pt x="904" y="-31" on="0"/>
        <pt x="876" y="-29" on="0"/>
        <pt x="862" y="-29" on="1"/>
        <pt x="825" y="-129" on="1"/>
        <pt x="838" y="-127" on="0"/>
        <pt x="860" y="-125" on="0"/>
        <pt x="874" y="-125" on="1"/>
        <pt x="930" y="-125" on="0"/>
        <pt x="1008" y="-154" on="0"/>
        <pt x="1057" y="-199" on="0"/>
        <pt x="1079" y="-257" on="0"/>
      </contour>
    </TTGlyph>
    <TTGlyph name="Ccircumflex" xMin="82" yMin="-31" xMax="1346" yMax="1887">
      <component glyphName="C" x="0" y="0" flags="0x204"/>
      <component glyphName="circumflex" x="365" y="410" flags="0x4"/>
    </TTGlyph>
    <TTGlyph name="Cdotaccent" xMin="82" yMin="-31" xMax="1346" yMax="1825">
      <component glyphName="C" x="0" y="0" flags="0x204"/>
      <component glyphName="dotaccent" x="367" y="410" flags="0x4"/>
    </TTGlyph>
    <TTGlyph name="D" xMin="143" yMin="-16" xMax="1370" yMax="1446">
      <contour>
        <pt x="362" y="1348" on="1"/>
        <pt x="360" y="1236" on="0"/>
        <pt x="358" y="1131" on="1"/>
        <pt x="357" y="1086" on="0"/>
        <pt x="356" y="992" on="0"/>
        <pt x="355" y="901" on="0"/>
        <pt x="354" y="818" on="0"/>
        <pt x="354" y="786" on="1"/>
        <pt x="354" y="719" on="0"/>
        <pt x="356" y="529" on="0"/>
        <pt x="359" y="329" on="0"/>
        <pt x="365" y="145" on="0"/>
        <pt x="369" y="84" on="1"/>
        <pt x="383" y="82" on="0"/>
        <pt x="430" y="77" on="0"/>
        <pt x="482" y="74" on="0"/>
        <pt x="532" y="72" on="0"/>
        <pt x="549" y="72" on="1"/>
        <pt x="619" y="72" on="0"/>
        <pt x="766" y="91" on="0"/>
        <pt x="903" y="143" on="0"/>
        <pt x="1024" y="234" on="0"/>
        <pt x="1115" y="378" on="0"/>
        <pt x="1167" y="581" on="0"/>
        <pt x="1167" y="719" on="1"/>
        <pt x="1167" y="872" on="0"/>
        <pt x="1093" y="1111" on="0"/>
        <pt x="950" y="1275" on="0"/>
        <pt x="739" y="1360" on="0"/>
        <pt x="602" y="1360" on="1"/>
        <pt x="575" y="1360" on="0"/>
        <pt x="507" y="1357" on="0"/>
        <pt x="440" y="1354" on="0"/>
        <pt x="381" y="1349" on="0"/>
      </contour>
      <contour>
        <pt x="143" y="1438" on="1"/>
        <pt x="166" y="1437" on="0"/>
        <pt x="186" y="1436" on="1"/>
        <pt x="203" y="1435" on="0"/>
        <pt x="239" y="1434" on="0"/>
        <pt x="250" y="1434" on="1"/>
        <pt x="269" y="1434" on="0"/>
        <pt x="358" y="1438" on="0"/>
        <pt x="472" y="1442" on="0"/>
        <pt x="595" y="1446" on="0"/>
        <pt x="649" y="1446" on="1"/>
        <pt x="794" y="1446" on="0"/>
        <pt x="1056" y="1374" on="0"/>
        <pt x="1254" y="1210" on="0"/>
        <pt x="1370" y="944" on="0"/>
        <pt x="1370" y="750" on="1"/>
        <pt x="1370" y="611" on="0"/>
        <pt x="1309" y="389" on="0"/>
        <pt x="1199" y="219" on="0"/>
        <pt x="1046" y="98" on="0"/>
        <pt x="861" y="20" on="0"/>
        <pt x="651" y="-16" on="0"/>
        <pt x="539" y="-16" on="1"/>
        <pt x="499" y="-16" on="0"/>
        <pt x="386" y="-11" on="0"/>
        <pt x="272" y="-5" on="0"/>
        <pt x="171" y="0" on="0"/>
        <pt x="143" y="0" on="1"/>
        <pt x="143" y="4" on="1"/>
        <pt x="149" y="25" on="0"/>
        <pt x="160" y="87" on="0"/>
        <pt x="168" y="179" on="0"/>
        <pt x="172" y="306" on="0"/>
        <pt x="172" y="391" on="1"/>
        <pt x="172" y="1042" on="1"/>
        <pt x="172" y="1127" on="0"/>
        <pt x="168" y="1256" on="0"/>
        <pt x="160" y="1349" on="0"/>
        <pt x="149" y="1413" on="0"/>
        <pt x="143" y="1434" on="1"/>
      </contour>
    </TTGlyph>
    <TTGlyph name="Dcaron" xMin="143" yMin="-16" xMax="1370" yMax="1887">
      <component glyphName="D" x="0" y="0" flags="0x204"/>
      <component glyphName="caron" x="178" y="410" flags="0x4"/>
    </TTGlyph>
    <TTGlyph name="Dcroat" xMin="-18" yMin="-16" xMax="1370" yMax="1446">
      <contour>
        <pt x="-6" y="791" on="1"/>
        <pt x="22" y="787" on="0"/>
        <pt x="119" y="786" on="0"/>
        <pt x="172" y="786" on="1"/>
        <pt x="172" y="1042" on="1"/>
        <pt x="172" y="1127" on="0"/>
        <pt x="168" y="1256" on="0"/>
        <pt x="160" y="1349" on="0"/>
        <pt x="149" y="1413" on="0"/>
        <pt x="143" y="1434" on="1"/>
        <pt x="143" y="1438" on="1"/>
        <pt x="166" y="1437" on="0"/>
        <pt x="186" y="1436" on="1"/>
        <pt x="203" y="1435" on="0"/>
        <pt x="239" y="1434" on="0"/>
        <pt x="250" y="1434" on="1"/>
        <pt x="269" y="1434" on="0"/>
        <pt x="358" y="1438" on="0"/>
        <pt x="472" y="1442" on="0"/>
        <pt x="595" y="1446" on="0"/>
        <pt x="649" y="1446" on="1"/>
        <pt x="794" y="1446" on="0"/>
        <pt x="1056" y="1374" on="0"/>
        <pt x="1254" y="1210" on="0"/>
        <pt x="1370" y="944" on="0"/>
        <pt x="1370" y="750" on="1"/>
        <pt x="1370" y="611" on="0"/>
        <pt x="1309" y="389" on="0"/>
        <pt x="1199" y="219" on="0"/>
        <pt x="1046" y="98" on="0"/>
        <pt x="861" y="20" on="0"/>
        <pt x="651" y="-16" on="0"/>
        <pt x="539" y="-16" on="1"/>
        <pt x="499" y="-16" on="0"/>
        <pt x="386" y="-11" on="0"/>
        <pt x="272" y="-5" on="0"/>
        <pt x="171" y="0" on="0"/>
        <pt x="143" y="0" on="1"/>
        <pt x="143" y="4" on="1"/>
        <pt x="149" y="25" on="0"/>
        <pt x="160" y="87" on="0"/>
        <pt x="168" y="179" on="0"/>
        <pt x="172" y="306" on="0"/>
        <pt x="172" y="391" on="1"/>
        <pt x="172" y="694" on="1"/>
        <pt x="-18" y="688" on="1"/>
      </contour>
      <contour>
        <pt x="362" y="1348" on="1"/>
        <pt x="360" y="1240" on="0"/>
        <pt x="358" y="1138" on="1"/>
        <pt x="357" y="1094" on="0"/>
        <pt x="356" y="1002" on="0"/>
        <pt x="355" y="913" on="0"/>
        <pt x="354" y="831" on="0"/>
        <pt x="354" y="799" on="1"/>
        <pt x="354" y="786" on="1"/>
        <pt x="464" y="788" on="0"/>
        <pt x="613" y="796" on="0"/>
        <pt x="635" y="801" on="1"/>
        <pt x="616" y="686" on="1"/>
        <pt x="583" y="687" on="0"/>
        <pt x="543" y="689" on="1"/>
        <pt x="508" y="691" on="0"/>
        <pt x="412" y="693" on="0"/>
        <pt x="354" y="694" on="1"/>
        <pt x="354" y="621" on="0"/>
        <pt x="356" y="450" on="0"/>
        <pt x="360" y="283" on="0"/>
        <pt x="366" y="135" on="0"/>
        <pt x="369" y="84" on="1"/>
        <pt x="383" y="82" on="0"/>
        <pt x="430" y="77" on="0"/>
        <pt x="482" y="74" on="0"/>
        <pt x="532" y="72" on="0"/>
        <pt x="549" y="72" on="1"/>
        <pt x="619" y="72" on="0"/>
        <pt x="766" y="91" on="0"/>
        <pt x="903" y="143" on="0"/>
        <pt x="1024" y="234" on="0"/>
        <pt x="1115" y="378" on="0"/>
        <pt x="1167" y="581" on="0"/>
        <pt x="1167" y="719" on="1"/>
        <pt x="1167" y="872" on="0"/>
        <pt x="1093" y="1111" on="0"/>
        <pt x="950" y="1275" on="0"/>
        <pt x="739" y="1360" on="0"/>
        <pt x="602" y="1360" on="1"/>
        <pt x="575" y="1360" on="0"/>
        <pt x="507" y="1357" on="0"/>
        <pt x="440" y="1354" on="0"/>
        <pt x="381" y="1349" on="0"/>
      </contour>
    </TTGlyph>
    <TTGlyph name="E" xMin="143" yMin="-8" xMax="901" yMax="1450">
      <contour>
        <pt x="143" y="1434" on="1"/>
        <pt x="268" y="1434" on="0"/>
        <pt x="515" y="1436" on="0"/>
        <pt x="721" y="1439" on="0"/>
        <pt x="867" y="1445" on="0"/>
        <pt x="893" y="1450" on="1"/>
        <pt x="844" y="1317" on="1"/>
        <pt x="811" y="1326" on="0"/>
        <pt x="767" y="1333" on="1"/>
        <pt x="729" y="1339" on="0"/>
        <pt x="620" y="1350" on="0"/>
        <pt x="549" y="1350" on="1"/>
        <pt x="525" y="1350" on="0"/>
        <pt x="458" y="1347" on="0"/>
        <pt x="427" y="1345" on="1"/>
        <pt x="391" y="1343" on="0"/>
        <pt x="354" y="1341" on="1"/>
        <pt x="354" y="795" on="1"/>
        <pt x="457" y="796" on="0"/>
        <pt x="623" y="806" on="0"/>
        <pt x="681" y="811" on="1"/>
        <pt x="749" y="817" on="0"/>
        <pt x="801" y="825" on="1"/>
        <pt x="770" y="680" on="1"/>
        <pt x="701" y="689" on="0"/>
        <pt x="629" y="697" on="1"/>
        <pt x="567" y="704" on="0"/>
        <pt x="421" y="715" on="0"/>
        <pt x="354" y="715" on="1"/>
        <pt x="354" y="88" on="1"/>
        <pt x="472" y="88" on="0"/>
        <pt x="670" y="108" on="0"/>
        <pt x="744" y="121" on="1"/>
        <pt x="830" y="135" on="0"/>
        <pt x="901" y="154" on="1"/>
        <pt x="872" y="-8" on="1"/>
        <pt x="860" y="-7" on="0"/>
        <pt x="812" y="-5" on="0"/>
        <pt x="753" y="-3" on="0"/>
        <pt x="688" y="-2" on="0"/>
        <pt x="630" y="-1" on="0"/>
        <pt x="585" y="0" on="0"/>
        <pt x="575" y="0" on="1"/>
        <pt x="143" y="0" on="1"/>
        <pt x="143" y="4" on="1"/>
        <pt x="149" y="25" on="0"/>
        <pt x="160" y="87" on="0"/>
        <pt x="168" y="179" on="0"/>
        <pt x="172" y="306" on="0"/>
        <pt x="172" y="391" on="1"/>
        <pt x="172" y="1042" on="1"/>
        <pt x="172" y="1127" on="0"/>
        <pt x="168" y="1254" on="0"/>
        <pt x="160" y="1347" on="0"/>
        <pt x="149" y="1409" on="0"/>
        <pt x="143" y="1430" on="1"/>
        <pt x="143" y="1434" on="1"/>
      </contour>
    </TTGlyph>
    <TTGlyph name="Eacute" xMin="143" yMin="-8" xMax="901" yMax="1887">
      <component glyphName="E" x="0" y="0" flags="0x204"/>
      <component glyphName="acute" x="33" y="410" flags="0x4"/>
    </TTGlyph>
    <TTGlyph name="Ebreve" xMin="143" yMin="-8" xMax="901" yMax="1919">
      <component glyphName="E" x="0" y="0" flags="0x204"/>
      <component glyphName="breve" x="-9" y="410" flags="0x4"/>
    </TTGlyph>
    <TTGlyph name="Ecaron" xMin="134" yMin="-8" xMax="901" yMax="1887">
      <component glyphName="E" x="0" y="0" flags="0x204"/>
      <component glyphName="caron" x="-9" y="410" flags="0x4"/>
    </TTGlyph>
    <TTGlyph name="Ecircumflex" xMin="134" yMin="-8" xMax="901" yMax="1887">
      <component glyphName="E" x="0" y="0" flags="0x204"/>
      <component glyphName="circumflex" x="-9" y="410" flags="0x4"/>
    </TTGlyph>
    <TTGlyph name="Edieresis" xMin="143" yMin="-8" xMax="901" yMax="1815">
      <component glyphName="E" x="0" y="0" flags="0x204"/>
      <component glyphName="dieresis" x="-9" y="410" flags="0x4"/>
    </TTGlyph>
    <TTGlyph name="Edotaccent" xMin="143" yMin="-8" xMax="901" yMax="1825">
      <component glyphName="E" x="0" y="0" flags="0x204"/>
      <component glyphName="dotaccent" x="-7" y="410" flags="0x4"/>
    </TTGlyph>
    <TTGlyph name="Egrave" xMin="143" yMin="-8" xMax="901" yMax="1887">
      <component glyphName="E" x="0" y="0" flags="0x204"/>
      <component glyphName="grave" x="-11" y="410" flags="0x4"/>
    </TTGlyph>
    <TTGlyph name="Emacron" xMin="143" yMin="-8" xMax="901" yMax="1774">
      <component glyphName="E" x="0" y="0" flags="0x204"/>
      <component glyphName="macron" x="-9" y="410" flags="0x4"/>
    </TTGlyph>
    <TTGlyph name="Eng" xMin="135" yMin="-498" xMax="1378" yMax="1434">
      <contour>
        <pt x="1229" y="1042" on="1"/>
        <pt x="1229" y="1127" on="0"/>
        <pt x="1225" y="1254" on="0"/>
        <pt x="1217" y="1347" on="0"/>
        <pt x="1206" y="1409" on="0"/>
        <pt x="1200" y="1430" on="1"/>
        <pt x="1200" y="1434" on="1"/>
        <pt x="1378" y="1434" on="1"/>
        <pt x="1378" y="1430" on="1"/>
        <pt x="1372" y="1409" on="0"/>
        <pt x="1362" y="1347" on="0"/>
        <pt x="1354" y="1254" on="0"/>
        <pt x="1350" y="1127" on="0"/>
        <pt x="1350" y="1042" on="1"/>
        <pt x="1350" y="166" on="1"/>
        <pt x="1350" y="31" on="0"/>
        <pt x="1311" y="-167" on="0"/>
        <pt x="1234" y="-320" on="0"/>
        <pt x="1119" y="-440" on="0"/>
        <pt x="1042" y="-498" on="1"/>
        <pt x="1024" y="-473" on="1"/>
        <pt x="1082" y="-420" on="0"/>
        <pt x="1157" y="-308" on="0"/>
        <pt x="1203" y="-183" on="0"/>
        <pt x="1224" y="-44" on="0"/>
        <pt x="1227" y="35" on="1"/>
        <pt x="285" y="1075" on="1"/>
        <pt x="285" y="391" on="1"/>
        <pt x="285" y="306" on="0"/>
        <pt x="289" y="179" on="0"/>
        <pt x="297" y="87" on="0"/>
        <pt x="307" y="25" on="0"/>
        <pt x="313" y="4" on="1"/>
        <pt x="313" y="0" on="1"/>
        <pt x="135" y="0" on="1"/>
        <pt x="135" y="4" on="1"/>
        <pt x="141" y="25" on="0"/>
        <pt x="152" y="87" on="0"/>
        <pt x="160" y="179" on="0"/>
        <pt x="164" y="306" on="0"/>
        <pt x="164" y="391" on="1"/>
        <pt x="164" y="1042" on="1"/>
        <pt x="164" y="1127" on="0"/>
        <pt x="160" y="1254" on="0"/>
        <pt x="152" y="1347" on="0"/>
        <pt x="141" y="1409" on="0"/>
        <pt x="135" y="1430" on="1"/>
        <pt x="135" y="1434" on="1"/>
        <pt x="199" y="1434" on="1"/>
        <pt x="1229" y="297" on="1"/>
        <pt x="1229" y="1042" on="1"/>
      </contour>
    </TTGlyph>
    <TTGlyph name="Eogonek" xMin="143" yMin="-430" xMax="901" yMax="1450">
      <contour>
        <pt x="901" y="-346" on="1"/>
        <pt x="877" y="-362" on="0"/>
        <pt x="819" y="-392" on="0"/>
        <pt x="753" y="-416" on="0"/>
        <pt x="680" y="-430" on="0"/>
        <pt x="641" y="-430" on="1"/>
        <pt x="603" y="-430" on="0"/>
        <pt x="528" y="-414" on="0"/>
        <pt x="470" y="-377" on="0"/>
        <pt x="434" y="-318" on="0"/>
        <pt x="434" y="-276" on="1"/>
        <pt x="434" y="-232" on="0"/>
        <pt x="483" y="-154" on="0"/>
        <pt x="571" y="-86" on="0"/>
        <pt x="691" y="-28" on="0"/>
        <pt x="762" y="-4" on="1"/>
        <pt x="736" y="-3" on="0"/>
        <pt x="677" y="-2" on="0"/>
        <pt x="625" y="-1" on="0"/>
        <pt x="584" y="0" on="0"/>
        <pt x="575" y="0" on="1"/>
        <pt x="143" y="0" on="1"/>
        <pt x="143" y="4" on="1"/>
        <pt x="149" y="25" on="0"/>
        <pt x="160" y="87" on="0"/>
        <pt x="168" y="179" on="0"/>
        <pt x="172" y="306" on="0"/>
        <pt x="172" y="391" on="1"/>
        <pt x="172" y="1042" on="1"/>
        <pt x="172" y="1127" on="0"/>
        <pt x="168" y="1254" on="0"/>
        <pt x="160" y="1347" on="0"/>
        <pt x="149" y="1409" on="0"/>
        <pt x="143" y="1430" on="1"/>
        <pt x="143" y="1434" on="1"/>
        <pt x="268" y="1434" on="0"/>
        <pt x="515" y="1436" on="0"/>
        <pt x="721" y="1439" on="0"/>
        <pt x="867" y="1445" on="0"/>
        <pt x="893" y="1450" on="1"/>
        <pt x="844" y="1317" on="1"/>
        <pt x="811" y="1326" on="0"/>
        <pt x="767" y="1333" on="1"/>
        <pt x="729" y="1339" on="0"/>
        <pt x="620" y="1350" on="0"/>
        <pt x="549" y="1350" on="1"/>
        <pt x="525" y="1350" on="0"/>
        <pt x="458" y="1347" on="0"/>
        <pt x="427" y="1345" on="1"/>
        <pt x="391" y="1343" on="0"/>
        <pt x="354" y="1341" on="1"/>
        <pt x="354" y="795" on="1"/>
        <pt x="457" y="796" on="0"/>
        <pt x="623" y="806" on="0"/>
        <pt x="681" y="811" on="1"/>
        <pt x="749" y="817" on="0"/>
        <pt x="801" y="825" on="1"/>
        <pt x="770" y="680" on="1"/>
        <pt x="701" y="689" on="0"/>
        <pt x="629" y="697" on="1"/>
        <pt x="567" y="704" on="0"/>
        <pt x="421" y="715" on="0"/>
        <pt x="354" y="715" on="1"/>
        <pt x="354" y="88" on="1"/>
        <pt x="472" y="88" on="0"/>
        <pt x="670" y="108" on="0"/>
        <pt x="744" y="121" on="1"/>
        <pt x="830" y="135" on="0"/>
        <pt x="901" y="154" on="1"/>
        <pt x="872" y="-8" on="1"/>
        <pt x="815" y="-17" on="0"/>
        <pt x="708" y="-69" on="0"/>
        <pt x="625" y="-140" on="0"/>
        <pt x="575" y="-219" on="0"/>
        <pt x="575" y="-254" on="1"/>
        <pt x="575" y="-308" on="0"/>
        <pt x="640" y="-367" on="0"/>
        <pt x="707" y="-367" on="1"/>
        <pt x="733" y="-367" on="0"/>
        <pt x="784" y="-357" on="0"/>
        <pt x="830" y="-342" on="0"/>
        <pt x="870" y="-324" on="0"/>
        <pt x="885" y="-315" on="1"/>
      </contour>
    </TTGlyph>
    <TTGlyph name="Eth" xMin="-18" yMin="-16" xMax="1370" yMax="1446">
      <contour>
        <pt x="-6" y="791" on="1"/>
        <pt x="22" y="787" on="0"/>
        <pt x="119" y="786" on="0"/>
        <pt x="172" y="786" on="1"/>
        <pt x="172" y="1042" on="1"/>
        <pt x="172" y="1127" on="0"/>
        <pt x="168" y="1256" on="0"/>
        <pt x="160" y="1349" on="0"/>
        <pt x="149" y="1413" on="0"/>
        <pt x="143" y="1434" on="1"/>
        <pt x="143" y="1438" on="1"/>
        <pt x="166" y="1437" on="0"/>
        <pt x="186" y="1436" on="1"/>
        <pt x="203" y="1435" on="0"/>
        <pt x="239" y="1434" on="0"/>
        <pt x="250" y="1434" on="1"/>
        <pt x="269" y="1434" on="0"/>
        <pt x="358" y="1438" on="0"/>
        <pt x="472" y="1442" on="0"/>
        <pt x="595" y="1446" on="0"/>
        <pt x="649" y="1446" on="1"/>
        <pt x="794" y="1446" on="0"/>
        <pt x="1056" y="1374" on="0"/>
        <pt x="1254" y="1210" on="0"/>
        <pt x="1370" y="944" on="0"/>
        <pt x="1370" y="750" on="1"/>
        <pt x="1370" y="611" on="0"/>
        <pt x="1309" y="389" on="0"/>
        <pt x="1199" y="219" on="0"/>
        <pt x="1046" y="98" on="0"/>
        <pt x="861" y="20" on="0"/>
        <pt x="651" y="-16" on="0"/>
        <pt x="539" y="-16" on="1"/>
        <pt x="499" y="-16" on="0"/>
        <pt x="386" y="-11" on="0"/>
        <pt x="272" y="-5" on="0"/>
        <pt x="171" y="0" on="0"/>
        <pt x="143" y="0" on="1"/>
        <pt x="143" y="4" on="1"/>
        <pt x="149" y="25" on="0"/>
        <pt x="160" y="87" on="0"/>
        <pt x="168" y="179" on="0"/>
        <pt x="172" y="306" on="0"/>
        <pt x="172" y="391" on="1"/>
        <pt x="172" y="694" on="1"/>
        <pt x="-18" y="688" on="1"/>
      </contour>
      <contour>
        <pt x="362" y="1348" on="1"/>
        <pt x="360" y="1240" on="0"/>
        <pt x="358" y="1138" on="1"/>
        <pt x="357" y="1094" on="0"/>
        <pt x="356" y="1002" on="0"/>
        <pt x="355" y="913" on="0"/>
        <pt x="354" y="831" on="0"/>
        <pt x="354" y="799" on="1"/>
        <pt x="354" y="786" on="1"/>
        <pt x="464" y="788" on="0"/>
        <pt x="613" y="796" on="0"/>
        <pt x="635" y="801" on="1"/>
        <pt x="616" y="686" on="1"/>
        <pt x="583" y="687" on="0"/>
        <pt x="543" y="689" on="1"/>
        <pt x="508" y="691" on="0"/>
        <pt x="412" y="693" on="0"/>
        <pt x="354" y="694" on="1"/>
        <pt x="354" y="621" on="0"/>
        <pt x="356" y="450" on="0"/>
        <pt x="360" y="283" on="0"/>
        <pt x="366" y="135" on="0"/>
        <pt x="369" y="84" on="1"/>
        <pt x="383" y="82" on="0"/>
        <pt x="430" y="77" on="0"/>
        <pt x="482" y="74" on="0"/>
        <pt x="532" y="72" on="0"/>
        <pt x="549" y="72" on="1"/>
        <pt x="619" y="72" on="0"/>
        <pt x="766" y="91" on="0"/>
        <pt x="903" y="143" on="0"/>
        <pt x="1024" y="234" on="0"/>
        <pt x="1115" y="378" on="0"/>
        <pt x="1167" y="581" on="0"/>
        <pt x="1167" y="719" on="1"/>
        <pt x="1167" y="872" on="0"/>
        <pt x="1093" y="1111" on="0"/>
        <pt x="950" y="1275" on="0"/>
        <pt x="739" y="1360" on="0"/>
        <pt x="602" y="1360" on="1"/>
        <pt x="575" y="1360" on="0"/>
        <pt x="507" y="1357" on="0"/>
        <pt x="440" y="1354" on="0"/>
        <pt x="381" y="1349" on="0"/>
      </contour>
    </TTGlyph>
    <TTGlyph name="Euro" xMin="-2" yMin="-31" xMax="1442" yMax="1458">
      <contour>
        <pt x="20" y="895" on="1"/>
        <pt x="55" y="893" on="0"/>
        <pt x="146" y="891" on="0"/>
        <pt x="199" y="891" on="1"/>
        <pt x="228" y="1007" on="0"/>
        <pt x="359" y="1213" on="0"/>
        <pt x="557" y="1368" on="0"/>
        <pt x="816" y="1458" on="0"/>
        <pt x="973" y="1458" on="1"/>
        <pt x="1168" y="1458" on="0"/>
        <pt x="1331" y="1399" on="1"/>
        <pt x="1399" y="1214" on="1"/>
        <pt x="1391" y="1210" on="1"/>
        <pt x="1312" y="1282" on="0"/>
        <pt x="1094" y="1368" on="0"/>
        <pt x="963" y="1368" on="1"/>
        <pt x="849" y="1368" on="0"/>
        <pt x="656" y="1304" on="0"/>
        <pt x="509" y="1182" on="0"/>
        <pt x="413" y="1005" on="0"/>
        <pt x="397" y="891" on="1"/>
        <pt x="524" y="891" on="0"/>
        <pt x="752" y="894" on="0"/>
        <pt x="932" y="898" on="0"/>
        <pt x="1055" y="904" on="0"/>
        <pt x="1077" y="907" on="1"/>
        <pt x="1044" y="819" on="1"/>
        <pt x="964" y="821" on="0"/>
        <pt x="865" y="823" on="1"/>
        <pt x="780" y="825" on="0"/>
        <pt x="551" y="827" on="0"/>
        <pt x="414" y="827" on="1"/>
        <pt x="391" y="827" on="1"/>
        <pt x="391" y="782" on="1"/>
        <pt x="391" y="720" on="0"/>
        <pt x="397" y="666" on="1"/>
        <pt x="508" y="666" on="0"/>
        <pt x="704" y="669" on="0"/>
        <pt x="859" y="673" on="0"/>
        <pt x="965" y="679" on="0"/>
        <pt x="985" y="682" on="1"/>
        <pt x="952" y="594" on="1"/>
        <pt x="882" y="596" on="0"/>
        <pt x="797" y="598" on="1"/>
        <pt x="724" y="600" on="0"/>
        <pt x="524" y="602" on="0"/>
        <pt x="406" y="602" on="1"/>
        <pt x="427" y="483" on="0"/>
        <pt x="525" y="284" on="0"/>
        <pt x="679" y="140" on="0"/>
        <pt x="890" y="59" on="0"/>
        <pt x="1024" y="59" on="1"/>
        <pt x="1082" y="59" on="0"/>
        <pt x="1195" y="83" on="0"/>
        <pt x="1300" y="130" on="0"/>
        <pt x="1394" y="197" on="0"/>
        <pt x="1432" y="240" on="1"/>
        <pt x="1442" y="233" on="1"/>
        <pt x="1362" y="29" on="1"/>
        <pt x="1288" y="0" on="0"/>
        <pt x="1107" y="-31" on="0"/>
        <pt x="1014" y="-31" on="1"/>
        <pt x="846" y="-31" on="0"/>
        <pt x="560" y="58" on="0"/>
        <pt x="344" y="223" on="0"/>
        <pt x="206" y="456" on="0"/>
        <pt x="186" y="600" on="1"/>
        <pt x="128" y="600" on="0"/>
        <pt x="29" y="598" on="0"/>
        <pt x="-2" y="596" on="1"/>
        <pt x="20" y="670" on="1"/>
        <pt x="180" y="666" on="1"/>
        <pt x="179" y="676" on="0"/>
        <pt x="179" y="686" on="1"/>
        <pt x="178" y="694" on="0"/>
        <pt x="178" y="710" on="0"/>
        <pt x="178" y="715" on="1"/>
        <pt x="178" y="743" on="0"/>
        <pt x="181" y="797" on="0"/>
        <pt x="186" y="825" on="1"/>
        <pt x="128" y="825" on="0"/>
        <pt x="29" y="823" on="0"/>
        <pt x="-2" y="821" on="1"/>
      </contour>
    </TTGlyph>
    <TTGlyph name="F" xMin="143" yMin="0" xMax="913" yMax="1450">
      <contour>
        <pt x="354" y="391" on="1"/>
        <pt x="354" y="306" on="0"/>
        <pt x="359" y="179" on="0"/>
        <pt x="366" y="87" on="0"/>
        <pt x="377" y="25" on="0"/>
        <pt x="383" y="4" on="1"/>
        <pt x="383" y="0" on="1"/>
        <pt x="143" y="0" on="1"/>
        <pt x="143" y="4" on="1"/>
        <pt x="149" y="25" on="0"/>
        <pt x="160" y="87" on="0"/>
        <pt x="168" y="179" on="0"/>
        <pt x="172" y="306" on="0"/>
        <pt x="172" y="391" on="1"/>
        <pt x="172" y="1042" on="1"/>
        <pt x="172" y="1127" on="0"/>
        <pt x="168" y="1254" on="0"/>
        <pt x="160" y="1347" on="0"/>
        <pt x="149" y="1409" on="0"/>
        <pt x="143" y="1430" on="1"/>
        <pt x="143" y="1434" on="1"/>
        <pt x="226" y="1434" on="0"/>
        <pt x="396" y="1435" on="0"/>
        <pt x="556" y="1436" on="0"/>
        <pt x="700" y="1439" on="0"/>
        <pt x="816" y="1442" on="0"/>
        <pt x="896" y="1447" on="0"/>
        <pt x="913" y="1450" on="1"/>
        <pt x="864" y="1317" on="1"/>
        <pt x="831" y="1326" on="0"/>
        <pt x="787" y="1333" on="1"/>
        <pt x="749" y="1339" on="0"/>
        <pt x="640" y="1350" on="0"/>
        <pt x="569" y="1350" on="1"/>
        <pt x="545" y="1350" on="0"/>
        <pt x="473" y="1347" on="0"/>
        <pt x="438" y="1345" on="1"/>
        <pt x="398" y="1343" on="0"/>
        <pt x="354" y="1341" on="1"/>
        <pt x="354" y="836" on="1"/>
        <pt x="457" y="837" on="0"/>
        <pt x="629" y="847" on="0"/>
        <pt x="691" y="852" on="1"/>
        <pt x="763" y="858" on="0"/>
        <pt x="821" y="866" on="1"/>
        <pt x="791" y="721" on="1"/>
        <pt x="716" y="730" on="0"/>
        <pt x="639" y="738" on="1"/>
        <pt x="573" y="745" on="0"/>
        <pt x="421" y="756" on="0"/>
        <pt x="354" y="756" on="1"/>
      </contour>
    </TTGlyph>
    <TTGlyph name="G" xMin="82" yMin="-31" xMax="1434" yMax="1458">
      <contour>
        <pt x="1405" y="168" on="1"/>
        <pt x="1405" y="157" on="0"/>
        <pt x="1400" y="133" on="0"/>
        <pt x="1391" y="125" on="1"/>
        <pt x="1346" y="91" on="0"/>
        <pt x="1241" y="34" on="0"/>
        <pt x="1119" y="-8" on="0"/>
        <pt x="978" y="-31" on="0"/>
        <pt x="897" y="-31" on="1"/>
        <pt x="715" y="-31" on="0"/>
        <pt x="415" y="76" on="0"/>
        <pt x="200" y="272" on="0"/>
        <pt x="82" y="547" on="0"/>
        <pt x="82" y="715" on="1"/>
        <pt x="82" y="810" on="0"/>
        <pt x="131" y="994" on="0"/>
        <pt x="225" y="1160" on="0"/>
        <pt x="363" y="1299" on="0"/>
        <pt x="540" y="1401" on="0"/>
        <pt x="753" y="1458" on="0"/>
        <pt x="877" y="1458" on="1"/>
        <pt x="925" y="1458" on="0"/>
        <pt x="1025" y="1449" on="0"/>
        <pt x="1123" y="1432" on="0"/>
        <pt x="1214" y="1408" on="0"/>
        <pt x="1255" y="1393" on="1"/>
        <pt x="1323" y="1208" on="1"/>
        <pt x="1315" y="1204" on="1"/>
        <pt x="1276" y="1239" on="0"/>
        <pt x="1174" y="1299" on="0"/>
        <pt x="1058" y="1343" on="0"/>
        <pt x="931" y="1368" on="0"/>
        <pt x="866" y="1368" on="1"/>
        <pt x="740" y="1368" on="0"/>
        <pt x="530" y="1289" on="0"/>
        <pt x="379" y="1139" on="0"/>
        <pt x="295" y="921" on="0"/>
        <pt x="295" y="782" on="1"/>
        <pt x="295" y="629" on="0"/>
        <pt x="375" y="367" on="0"/>
        <pt x="533" y="175" on="0"/>
        <pt x="770" y="66" on="0"/>
        <pt x="928" y="66" on="1"/>
        <pt x="998" y="66" on="0"/>
        <pt x="1108" y="88" on="0"/>
        <pt x="1184" y="121" on="0"/>
        <pt x="1223" y="160" on="0"/>
        <pt x="1223" y="176" on="1"/>
        <pt x="1223" y="215" on="1"/>
        <pt x="1223" y="285" on="0"/>
        <pt x="1219" y="387" on="0"/>
        <pt x="1211" y="462" on="0"/>
        <pt x="1201" y="516" on="0"/>
        <pt x="1194" y="539" on="1"/>
        <pt x="1194" y="543" on="1"/>
        <pt x="1434" y="543" on="1"/>
        <pt x="1434" y="539" on="1"/>
        <pt x="1428" y="518" on="0"/>
        <pt x="1417" y="461" on="0"/>
        <pt x="1409" y="383" on="0"/>
        <pt x="1405" y="278" on="0"/>
        <pt x="1405" y="209" on="1"/>
      </contour>
    </TTGlyph>
    <TTGlyph name="Gbreve" xMin="82" yMin="-31" xMax="1434" yMax="1919">
      <component glyphName="G" x="0" y="0" flags="0x204"/>
      <component glyphName="breve" x="350" y="410" flags="0x4"/>
    </TTGlyph>
    <TTGlyph name="Gcircumflex" xMin="82" yMin="-31" xMax="1434" yMax="1887">
      <component glyphName="G" x="0" y="0" flags="0x204"/>
      <component glyphName="circumflex" x="350" y="410" flags="0x4"/>
    </TTGlyph>
    <TTGlyph name="Gcommaaccent" xMin="82" yMin="-512" xMax="1434" yMax="1458">
      <component glyphName="G" x="0" y="0" flags="0x204"/>
      <component glyphName="commaaccent" x="375" y="0" flags="0x4"/>
    </TTGlyph>
    <TTGlyph name="Gdotaccent" xMin="82" yMin="-31" xMax="1434" yMax="1825">
      <component glyphName="G" x="0" y="0" flags="0x204"/>
      <component glyphName="dotaccent" x="385" y="410" flags="0x4"/>
    </TTGlyph>
    <TTGlyph name="H" xMin="143" yMin="0" xMax="1346" yMax="1434">
      <contour>
        <pt x="1135" y="686" on="1"/>
        <pt x="1095" y="687" on="0"/>
        <pt x="975" y="688" on="0"/>
        <pt x="834" y="690" on="0"/>
        <pt x="681" y="691" on="0"/>
        <pt x="535" y="692" on="0"/>
        <pt x="403" y="690" on="0"/>
        <pt x="354" y="688" on="1"/>
        <pt x="354" y="391" on="1"/>
        <pt x="354" y="306" on="0"/>
        <pt x="359" y="179" on="0"/>
        <pt x="366" y="87" on="0"/>
        <pt x="377" y="25" on="0"/>
        <pt x="383" y="4" on="1"/>
        <pt x="383" y="0" on="1"/>
        <pt x="143" y="0" on="1"/>
        <pt x="143" y="4" on="1"/>
        <pt x="149" y="25" on="0"/>
        <pt x="160" y="87" on="0"/>
        <pt x="168" y="179" on="0"/>
        <pt x="172" y="306" on="0"/>
        <pt x="172" y="391" on="1"/>
        <pt x="172" y="1042" on="1"/>
        <pt x="172" y="1127" on="0"/>
        <pt x="168" y="1254" on="0"/>
        <pt x="160" y="1347" on="0"/>
        <pt x="149" y="1409" on="0"/>
        <pt x="143" y="1430" on="1"/>
        <pt x="143" y="1434" on="1"/>
        <pt x="383" y="1434" on="1"/>
        <pt x="383" y="1430" on="1"/>
        <pt x="377" y="1409" on="0"/>
        <pt x="366" y="1347" on="0"/>
        <pt x="359" y="1254" on="0"/>
        <pt x="354" y="1127" on="0"/>
        <pt x="354" y="1042" on="1"/>
        <pt x="354" y="786" on="1"/>
        <pt x="406" y="784" on="0"/>
        <pt x="538" y="783" on="0"/>
        <pt x="682" y="784" on="0"/>
        <pt x="831" y="786" on="0"/>
        <pt x="970" y="789" on="0"/>
        <pt x="1091" y="793" on="0"/>
        <pt x="1135" y="795" on="1"/>
        <pt x="1135" y="1042" on="1"/>
        <pt x="1135" y="1127" on="0"/>
        <pt x="1130" y="1254" on="0"/>
        <pt x="1123" y="1347" on="0"/>
        <pt x="1112" y="1409" on="0"/>
        <pt x="1106" y="1430" on="1"/>
        <pt x="1106" y="1434" on="1"/>
        <pt x="1346" y="1434" on="1"/>
        <pt x="1346" y="1430" on="1"/>
        <pt x="1340" y="1409" on="0"/>
        <pt x="1329" y="1347" on="0"/>
        <pt x="1321" y="1254" on="0"/>
        <pt x="1317" y="1127" on="0"/>
        <pt x="1317" y="1042" on="1"/>
        <pt x="1317" y="391" on="1"/>
        <pt x="1317" y="306" on="0"/>
        <pt x="1321" y="179" on="0"/>
        <pt x="1329" y="87" on="0"/>
        <pt x="1340" y="25" on="0"/>
        <pt x="1346" y="4" on="1"/>
        <pt x="1346" y="0" on="1"/>
        <pt x="1106" y="0" on="1"/>
        <pt x="1106" y="4" on="1"/>
        <pt x="1112" y="25" on="0"/>
        <pt x="1123" y="87" on="0"/>
        <pt x="1130" y="179" on="0"/>
        <pt x="1135" y="306" on="0"/>
        <pt x="1135" y="391" on="1"/>
      </contour>
    </TTGlyph>
    <TTGlyph name="Hbar" xMin="31" yMin="0" xMax="1458" yMax="1434">
      <contour>
        <pt x="1135" y="686" on="1"/>
        <pt x="1095" y="687" on="0"/>
        <pt x="975" y="688" on="0"/>
        <pt x="834" y="690" on="0"/>
        <pt x="681" y="691" on="0"/>
        <pt x="535" y="692" on="0"/>
        <pt x="403" y="690" on="0"/>
        <pt x="354" y="688" on="1"/>
        <pt x="354" y="391" on="1"/>
        <pt x="354" y="306" on="0"/>
        <pt x="359" y="179" on="0"/>
        <pt x="366" y="87" on="0"/>
        <pt x="377" y="25" on="0"/>
        <pt x="383" y="4" on="1"/>
        <pt x="383" y="0" on="1"/>
        <pt x="143" y="0" on="1"/>
        <pt x="143" y="4" on="1"/>
        <pt x="149" y="25" on="0"/>
        <pt x="160" y="87" on="0"/>
        <pt x="168" y="179" on="0"/>
        <pt x="172" y="306" on="0"/>
        <pt x="172" y="391" on="1"/>
        <pt x="172" y="1047" on="1"/>
        <pt x="31" y="1047" on="1"/>
        <pt x="31" y="1128" on="1"/>
        <pt x="172" y="1128" on="1"/>
        <pt x="172" y="1212" on="0"/>
        <pt x="168" y="1312" on="0"/>
        <pt x="160" y="1372" on="0"/>
        <pt x="149" y="1409" on="0"/>
        <pt x="143" y="1430" on="1"/>
        <pt x="143" y="1434" on="1"/>
        <pt x="383" y="1434" on="1"/>
        <pt x="383" y="1430" on="1"/>
        <pt x="377" y="1409" on="0"/>
        <pt x="366" y="1372" on="0"/>
        <pt x="359" y="1312" on="0"/>
        <pt x="354" y="1212" on="0"/>
        <pt x="354" y="1128" on="1"/>
        <pt x="1135" y="1128" on="1"/>
        <pt x="1135" y="1212" on="0"/>
        <pt x="1130" y="1312" on="0"/>
        <pt x="1123" y="1372" on="0"/>
        <pt x="1112" y="1409" on="0"/>
        <pt x="1106" y="1430" on="1"/>
        <pt x="1106" y="1434" on="1"/>
        <pt x="1346" y="1434" on="1"/>
        <pt x="1346" y="1430" on="1"/>
        <pt x="1340" y="1409" on="0"/>
        <pt x="1329" y="1372" on="0"/>
        <pt x="1321" y="1312" on="0"/>
        <pt x="1317" y="1212" on="0"/>
        <pt x="1317" y="1128" on="1"/>
        <pt x="1458" y="1128" on="1"/>
        <pt x="1458" y="1047" on="1"/>
        <pt x="1317" y="1047" on="1"/>
        <pt x="1317" y="391" on="1"/>
        <pt x="1317" y="306" on="0"/>
        <pt x="1321" y="179" on="0"/>
        <pt x="1329" y="87" on="0"/>
        <pt x="1340" y="25" on="0"/>
        <pt x="1346" y="4" on="1"/>
        <pt x="1346" y="0" on="1"/>
        <pt x="1106" y="0" on="1"/>
        <pt x="1106" y="4" on="1"/>
        <pt x="1112" y="25" on="0"/>
        <pt x="1123" y="87" on="0"/>
        <pt x="1130" y="179" on="0"/>
        <pt x="1135" y="306" on="0"/>
        <pt x="1135" y="391" on="1"/>
      </contour>
      <contour>
        <pt x="354" y="786" on="1"/>
        <pt x="406" y="784" on="0"/>
        <pt x="538" y="783" on="0"/>
        <pt x="682" y="784" on="0"/>
        <pt x="831" y="786" on="0"/>
        <pt x="970" y="789" on="0"/>
        <pt x="1091" y="793" on="0"/>
        <pt x="1135" y="795" on="1"/>
        <pt x="1135" y="1047" on="1"/>
        <pt x="354" y="1047" on="1"/>
      </contour>
    </TTGlyph>
    <TTGlyph name="Hcircumflex" xMin="143" yMin="0" xMax="1346" yMax="1887">
      <component glyphName="H" x="0" y="0" flags="0x204"/>
      <component glyphName="circumflex" x="231" y="410" flags="0x4"/>
    </TTGlyph>
    <TTGlyph name="I" xMin="152" yMin="0" xMax="391" yMax="1434">
      <contour>
        <pt x="152" y="4" on="1"/>
        <pt x="158" y="25" on="0"/>
        <pt x="168" y="87" on="0"/>
        <pt x="176" y="179" on="0"/>
        <pt x="180" y="306" on="0"/>
        <pt x="180" y="391" on="1"/>
        <pt x="180" y="1042" on="1"/>
        <pt x="180" y="1127" on="0"/>
        <pt x="176" y="1254" on="0"/>
        <pt x="168" y="1347" on="0"/>
        <pt x="158" y="1409" on="0"/>
        <pt x="152" y="1430" on="1"/>
        <pt x="152" y="1434" on="1"/>
        <pt x="391" y="1434" on="1"/>
        <pt x="391" y="1430" on="1"/>
        <pt x="385" y="1409" on="0"/>
        <pt x="374" y="1347" on="0"/>
        <pt x="367" y="1254" on="0"/>
        <pt x="362" y="1127" on="0"/>
        <pt x="362" y="1042" on="1"/>
        <pt x="362" y="391" on="1"/>
        <pt x="362" y="306" on="0"/>
        <pt x="367" y="179" on="0"/>
        <pt x="374" y="87" on="0"/>
        <pt x="385" y="25" on="0"/>
        <pt x="391" y="4" on="1"/>
        <pt x="391" y="0" on="1"/>
        <pt x="152" y="0" on="1"/>
      </contour>
    </TTGlyph>
    <TTGlyph name="IJ" xMin="152" yMin="-457" xMax="918" yMax="1434">
      <component glyphName="I" x="0" y="0" flags="0x4"/>
      <component glyphName="J" x="543" y="0" flags="0x4"/>
    </TTGlyph>
    <TTGlyph name="Iacute" xMin="83" yMin="0" xMax="543" yMax="1887">
      <component glyphName="I" x="0" y="0" flags="0x204"/>
      <component glyphName="acute" x="-198" y="410" flags="0x4"/>
    </TTGlyph>
    <TTGlyph name="Ibreve" xMin="-42" yMin="0" xMax="588" yMax="1919">
      <component glyphName="I" x="0" y="0" flags="0x204"/>
      <component glyphName="breve" x="-239" y="410" flags="0x4"/>
    </TTGlyph>
    <TTGlyph name="Icircumflex" xMin="-96" yMin="0" xMax="642" yMax="1887">
      <component glyphName="I" x="0" y="0" flags="0x204"/>
      <component glyphName="circumflex" x="-239" y="410" flags="0x4"/>
    </TTGlyph>
    <TTGlyph name="Idieresis" xMin="-3" yMin="0" xMax="549" yMax="1815">
      <component glyphName="I" x="0" y="0" flags="0x204"/>
      <component glyphName="dieresis" x="-239" y="410" flags="0x4"/>
    </TTGlyph>
    <TTGlyph name="Idotaccent" xMin="152" yMin="0" xMax="391" yMax="1825">
      <component glyphName="I" x="0" y="0" flags="0x204"/>
      <component glyphName="dotaccent" x="-237" y="410" flags="0x4"/>
    </TTGlyph>
    <TTGlyph name="Igrave" xMin="1" yMin="0" xMax="461" yMax="1887">
      <component glyphName="I" x="0" y="0" flags="0x204"/>
      <component glyphName="grave" x="-282" y="410" flags="0x4"/>
    </TTGlyph>
    <TTGlyph name="Imacron" xMin="7" yMin="0" xMax="539" yMax="1774">
      <component glyphName="I" x="0" y="0" flags="0x204"/>
      <component glyphName="macron" x="-239" y="410" flags="0x4"/>
    </TTGlyph>
    <TTGlyph name="Iogonek" xMin="6" yMin="-430" xMax="473" yMax="1434">
      <contour>
        <pt x="152" y="4" on="1"/>
        <pt x="158" y="25" on="0"/>
        <pt x="168" y="87" on="0"/>
        <pt x="176" y="179" on="0"/>
        <pt x="180" y="306" on="0"/>
        <pt x="180" y="391" on="1"/>
        <pt x="180" y="1042" on="1"/>
        <pt x="180" y="1127" on="0"/>
        <pt x="176" y="1254" on="0"/>
        <pt x="168" y="1347" on="0"/>
        <pt x="158" y="1409" on="0"/>
        <pt x="152" y="1430" on="1"/>
        <pt x="152" y="1434" on="1"/>
        <pt x="391" y="1434" on="1"/>
        <pt x="391" y="1430" on="1"/>
        <pt x="385" y="1409" on="0"/>
        <pt x="374" y="1347" on="0"/>
        <pt x="367" y="1254" on="0"/>
        <pt x="362" y="1127" on="0"/>
        <pt x="362" y="1042" on="1"/>
        <pt x="362" y="391" on="1"/>
        <pt x="362" y="306" on="0"/>
        <pt x="367" y="179" on="0"/>
        <pt x="374" y="87" on="0"/>
        <pt x="385" y="25" on="0"/>
        <pt x="391" y="4" on="1"/>
        <pt x="391" y="0" on="1"/>
        <pt x="385" y="0" on="1"/>
        <pt x="337" y="-26" on="0"/>
        <pt x="250" y="-85" on="0"/>
        <pt x="185" y="-148" on="0"/>
        <pt x="147" y="-217" on="0"/>
        <pt x="147" y="-254" on="1"/>
        <pt x="147" y="-308" on="0"/>
        <pt x="212" y="-367" on="0"/>
        <pt x="279" y="-367" on="1"/>
        <pt x="305" y="-367" on="0"/>
        <pt x="356" y="-357" on="0"/>
        <pt x="402" y="-342" on="0"/>
        <pt x="442" y="-324" on="0"/>
        <pt x="457" y="-315" on="1"/>
        <pt x="473" y="-346" on="1"/>
        <pt x="449" y="-362" on="0"/>
        <pt x="391" y="-392" on="0"/>
        <pt x="325" y="-416" on="0"/>
        <pt x="252" y="-430" on="0"/>
        <pt x="213" y="-430" on="1"/>
        <pt x="175" y="-430" on="0"/>
        <pt x="100" y="-414" on="0"/>
        <pt x="42" y="-377" on="0"/>
        <pt x="6" y="-318" on="0"/>
        <pt x="6" y="-276" on="1"/>
        <pt x="6" y="-233" on="0"/>
        <pt x="53" y="-159" on="0"/>
        <pt x="137" y="-92" on="0"/>
        <pt x="251" y="-30" on="0"/>
        <pt x="319" y="0" on="1"/>
        <pt x="152" y="0" on="1"/>
      </contour>
    </TTGlyph>
    <TTGlyph name="Itilde" xMin="-22" yMin="0" xMax="566" yMax="1821">
      <component glyphName="I" x="0" y="0" flags="0x204"/>
      <component glyphName="tilde" x="-239" y="410" flags="0x4"/>
    </TTGlyph>
    <TTGlyph name="J" xMin="-41" yMin="-457" xMax="375" yMax="1434">
      <contour>
        <pt x="346" y="207" on="1"/>
        <pt x="346" y="72" on="0"/>
        <pt x="291" y="-126" on="0"/>
        <pt x="192" y="-279" on="0"/>
        <pt x="57" y="-399" on="0"/>
        <pt x="-23" y="-457" on="1"/>
        <pt x="-41" y="-432" on="1"/>
        <pt x="28" y="-369" on="0"/>
        <pt x="109" y="-233" on="0"/>
        <pt x="152" y="-78" on="0"/>
        <pt x="164" y="101" on="0"/>
        <pt x="164" y="207" on="1"/>
        <pt x="164" y="1042" on="1"/>
        <pt x="164" y="1127" on="0"/>
        <pt x="160" y="1254" on="0"/>
        <pt x="152" y="1347" on="0"/>
        <pt x="141" y="1409" on="0"/>
        <pt x="135" y="1430" on="1"/>
        <pt x="135" y="1434" on="1"/>
        <pt x="375" y="1434" on="1"/>
        <pt x="375" y="1430" on="1"/>
        <pt x="369" y="1409" on="0"/>
        <pt x="358" y="1347" on="0"/>
        <pt x="350" y="1254" on="0"/>
        <pt x="346" y="1127" on="0"/>
        <pt x="346" y="1042" on="1"/>
      </contour>
    </TTGlyph>
    <TTGlyph name="Jcircumflex" xMin="-112" yMin="-457" xMax="626" yMax="1887">
      <component glyphName="J" x="0" y="0" flags="0x204"/>
      <component glyphName="circumflex" x="-255" y="410" flags="0x4"/>
    </TTGlyph>
    <TTGlyph name="K" xMin="143" yMin="0" xMax="1364" yMax="1434">
      <contour>
        <pt x="143" y="4" on="1"/>
        <pt x="149" y="25" on="0"/>
        <pt x="160" y="87" on="0"/>
        <pt x="168" y="179" on="0"/>
        <pt x="172" y="306" on="0"/>
        <pt x="172" y="391" on="1"/>
        <pt x="172" y="1042" on="1"/>
        <pt x="172" y="1127" on="0"/>
        <pt x="168" y="1254" on="0"/>
        <pt x="160" y="1347" on="0"/>
        <pt x="149" y="1409" on="0"/>
        <pt x="143" y="1430" on="1"/>
        <pt x="143" y="1434" on="1"/>
        <pt x="383" y="1434" on="1"/>
        <pt x="383" y="1430" on="1"/>
        <pt x="377" y="1409" on="0"/>
        <pt x="366" y="1347" on="0"/>
        <pt x="359" y="1254" on="0"/>
        <pt x="354" y="1127" on="0"/>
        <pt x="354" y="1042" on="1"/>
        <pt x="354" y="819" on="1"/>
        <pt x="938" y="1296" on="1"/>
        <pt x="1036" y="1376" on="0"/>
        <pt x="1036" y="1434" on="1"/>
        <pt x="1317" y="1434" on="1"/>
        <pt x="1317" y="1430" on="1"/>
        <pt x="1258" y="1416" on="0"/>
        <pt x="1137" y="1337" on="0"/>
        <pt x="1069" y="1280" on="1"/>
        <pt x="553" y="848" on="1"/>
        <pt x="1174" y="166" on="1"/>
        <pt x="1213" y="126" on="0"/>
        <pt x="1268" y="73" on="0"/>
        <pt x="1310" y="38" on="0"/>
        <pt x="1345" y="15" on="0"/>
        <pt x="1364" y="4" on="1"/>
        <pt x="1364" y="0" on="1"/>
        <pt x="1071" y="0" on="1"/>
        <pt x="1067" y="9" on="0"/>
        <pt x="1048" y="37" on="0"/>
        <pt x="1023" y="67" on="0"/>
        <pt x="994" y="99" on="0"/>
        <pt x="981" y="113" on="1"/>
        <pt x="354" y="801" on="1"/>
        <pt x="354" y="391" on="1"/>
        <pt x="354" y="306" on="0"/>
        <pt x="359" y="179" on="0"/>
        <pt x="366" y="87" on="0"/>
        <pt x="377" y="25" on="0"/>
        <pt x="383" y="4" on="1"/>
        <pt x="383" y="0" on="1"/>
        <pt x="143" y="0" on="1"/>
      </contour>
    </TTGlyph>
    <TTGlyph name="Kcommaaccent" xMin="143" yMin="-512" xMax="1364" yMax="1434">
      <component glyphName="K" x="0" y="0" flags="0x204"/>
      <component glyphName="commaaccent" x="190" y="0" flags="0x4"/>
    </TTGlyph>
    <TTGlyph name="L" xMin="143" yMin="-8" xMax="901" yMax="1434">
      <contour>
        <pt x="354" y="88" on="1"/>
        <pt x="472" y="88" on="0"/>
        <pt x="670" y="108" on="0"/>
        <pt x="744" y="121" on="1"/>
        <pt x="830" y="135" on="0"/>
        <pt x="901" y="154" on="1"/>
        <pt x="872" y="-8" on="1"/>
        <pt x="860" y="-7" on="0"/>
        <pt x="812" y="-5" on="0"/>
        <pt x="753" y="-3" on="0"/>
        <pt x="688" y="-2" on="0"/>
        <pt x="630" y="-1" on="0"/>
        <pt x="585" y="0" on="0"/>
        <pt x="575" y="0" on="1"/>
        <pt x="143" y="0" on="1"/>
        <pt x="143" y="4" on="1"/>
        <pt x="149" y="25" on="0"/>
        <pt x="160" y="87" on="0"/>
        <pt x="168" y="179" on="0"/>
        <pt x="172" y="306" on="0"/>
        <pt x="172" y="391" on="1"/>
        <pt x="172" y="1042" on="1"/>
        <pt x="172" y="1127" on="0"/>
        <pt x="168" y="1254" on="0"/>
        <pt x="160" y="1347" on="0"/>
        <pt x="149" y="1409" on="0"/>
        <pt x="143" y="1430" on="1"/>
        <pt x="143" y="1434" on="1"/>
        <pt x="383" y="1434" on="1"/>
        <pt x="383" y="1430" on="1"/>
        <pt x="377" y="1409" on="0"/>
        <pt x="366" y="1347" on="0"/>
        <pt x="359" y="1254" on="0"/>
        <pt x="354" y="1127" on="0"/>
        <pt x="354" y="1042" on="1"/>
      </contour>
    </TTGlyph>
    <TTGlyph name="Lacute" xMin="130" yMin="-8" xMax="901" yMax="1887">
      <component glyphName="L" x="0" y="0" flags="0x204"/>
      <component glyphName="acute" x="-151" y="410" flags="0x4"/>
    </TTGlyph>
    <TTGlyph name="Lcaron" xMin="143" yMin="-8" xMax="901" yMax="1458">
      <component glyphName="L" x="0" y="0" flags="0x204"/>
      <component glyphName="quoteright" x="549" y="0" flags="0x4"/>
    </TTGlyph>
    <TTGlyph name="Lcommaaccent" xMin="143" yMin="-512" xMax="901" yMax="1434">
      <component glyphName="L" x="0" y="0" flags="0x204"/>
      <component glyphName="commaaccent" x="-7" y="0" flags="0x4"/>
    </TTGlyph>
    <TTGlyph name="Ldot" xMin="143" yMin="-8" xMax="901" yMax="1434">
      <component glyphName="L" x="0" y="0" flags="0x204"/>
      <component glyphName="periodcentered" x="559" y="-65" flags="0x4"/>
    </TTGlyph>
    <TTGlyph name="Lslash" xMin="0" yMin="-8" xMax="901" yMax="1434">
      <contour>
        <pt x="0" y="535" on="1"/>
        <pt x="172" y="629" on="1"/>
        <pt x="172" y="1042" on="1"/>
        <pt x="172" y="1127" on="0"/>
        <pt x="168" y="1254" on="0"/>
        <pt x="160" y="1347" on="0"/>
        <pt x="149" y="1409" on="0"/>
        <pt x="143" y="1430" on="1"/>
        <pt x="143" y="1434" on="1"/>
        <pt x="383" y="1434" on="1"/>
        <pt x="383" y="1430" on="1"/>
        <pt x="377" y="1409" on="0"/>
        <pt x="366" y="1347" on="0"/>
        <pt x="359" y="1254" on="0"/>
        <pt x="354" y="1127" on="0"/>
        <pt x="354" y="1042" on="1"/>
        <pt x="354" y="729" on="1"/>
        <pt x="598" y="862" on="1"/>
        <pt x="637" y="791" on="1"/>
        <pt x="354" y="635" on="1"/>
        <pt x="354" y="88" on="1"/>
        <pt x="472" y="88" on="0"/>
        <pt x="670" y="108" on="0"/>
        <pt x="744" y="121" on="1"/>
        <pt x="830" y="135" on="0"/>
        <pt x="901" y="154" on="1"/>
        <pt x="872" y="-8" on="1"/>
        <pt x="860" y="-7" on="0"/>
        <pt x="812" y="-5" on="0"/>
        <pt x="753" y="-3" on="0"/>
        <pt x="688" y="-2" on="0"/>
        <pt x="630" y="-1" on="0"/>
        <pt x="585" y="0" on="0"/>
        <pt x="575" y="0" on="1"/>
        <pt x="143" y="0" on="1"/>
        <pt x="143" y="4" on="1"/>
        <pt x="149" y="25" on="0"/>
        <pt x="160" y="87" on="0"/>
        <pt x="168" y="179" on="0"/>
        <pt x="172" y="306" on="0"/>
        <pt x="172" y="391" on="1"/>
        <pt x="172" y="535" on="1"/>
        <pt x="39" y="463" on="1"/>
      </contour>
    </TTGlyph>
    <TTGlyph name="M" xMin="72" yMin="0" xMax="2003" yMax="1434">
      <contour>
        <pt x="72" y="4" on="1"/>
        <pt x="83" y="20" on="0"/>
        <pt x="111" y="83" on="0"/>
        <pt x="119" y="131" on="1"/>
        <pt x="130" y="201" on="0"/>
        <pt x="157" y="376" on="0"/>
        <pt x="186" y="568" on="0"/>
        <pt x="215" y="769" on="0"/>
        <pt x="242" y="964" on="0"/>
        <pt x="267" y="1145" on="0"/>
        <pt x="287" y="1295" on="0"/>
        <pt x="300" y="1406" on="0"/>
        <pt x="303" y="1434" on="1"/>
        <pt x="430" y="1434" on="1"/>
        <pt x="1059" y="258" on="1"/>
        <pt x="1683" y="1434" on="1"/>
        <pt x="1778" y="1434" on="1"/>
        <pt x="1942" y="246" on="1"/>
        <pt x="1949" y="190" on="0"/>
        <pt x="1965" y="110" on="0"/>
        <pt x="1981" y="53" on="0"/>
        <pt x="1996" y="16" on="0"/>
        <pt x="2003" y="4" on="1"/>
        <pt x="2003" y="0" on="1"/>
        <pt x="1751" y="0" on="1"/>
        <pt x="1751" y="4" on="1"/>
        <pt x="1756" y="15" on="0"/>
        <pt x="1765" y="65" on="0"/>
        <pt x="1765" y="100" on="1"/>
        <pt x="1765" y="113" on="0"/>
        <pt x="1763" y="140" on="0"/>
        <pt x="1761" y="156" on="1"/>
        <pt x="1634" y="1114" on="1"/>
        <pt x="1044" y="4" on="1"/>
        <pt x="975" y="12" on="1"/>
        <pt x="381" y="1124" on="1"/>
        <pt x="346" y="887" on="0"/>
        <pt x="320" y="686" on="1"/>
        <pt x="309" y="600" on="0"/>
        <pt x="287" y="429" on="0"/>
        <pt x="270" y="281" on="0"/>
        <pt x="260" y="168" on="0"/>
        <pt x="260" y="141" on="1"/>
        <pt x="260" y="107" on="0"/>
        <pt x="264" y="55" on="0"/>
        <pt x="266" y="37" on="1"/>
        <pt x="269" y="16" on="0"/>
        <pt x="272" y="0" on="1"/>
        <pt x="72" y="0" on="1"/>
      </contour>
    </TTGlyph>
    <TTGlyph name="N" xMin="135" yMin="-20" xMax="1378" yMax="1434">
      <contour>
        <pt x="199" y="1434" on="1"/>
        <pt x="1229" y="338" on="1"/>
        <pt x="1229" y="1042" on="1"/>
        <pt x="1229" y="1127" on="0"/>
        <pt x="1225" y="1254" on="0"/>
        <pt x="1217" y="1347" on="0"/>
        <pt x="1206" y="1409" on="0"/>
        <pt x="1200" y="1430" on="1"/>
        <pt x="1200" y="1434" on="1"/>
        <pt x="1378" y="1434" on="1"/>
        <pt x="1378" y="1430" on="1"/>
        <pt x="1372" y="1409" on="0"/>
        <pt x="1362" y="1347" on="0"/>
        <pt x="1354" y="1254" on="0"/>
        <pt x="1350" y="1127" on="0"/>
        <pt x="1350" y="1042" on="1"/>
        <pt x="1350" y="-20" on="1"/>
        <pt x="1315" y="-20" on="1"/>
        <pt x="285" y="1075" on="1"/>
        <pt x="285" y="391" on="1"/>
        <pt x="285" y="306" on="0"/>
        <pt x="289" y="179" on="0"/>
        <pt x="297" y="87" on="0"/>
        <pt x="307" y="25" on="0"/>
        <pt x="313" y="4" on="1"/>
        <pt x="313" y="0" on="1"/>
        <pt x="135" y="0" on="1"/>
        <pt x="135" y="4" on="1"/>
        <pt x="141" y="25" on="0"/>
        <pt x="152" y="87" on="0"/>
        <pt x="160" y="179" on="0"/>
        <pt x="164" y="306" on="0"/>
        <pt x="164" y="391" on="1"/>
        <pt x="164" y="1042" on="1"/>
        <pt x="164" y="1127" on="0"/>
        <pt x="160" y="1254" on="0"/>
        <pt x="152" y="1347" on="0"/>
        <pt x="141" y="1409" on="0"/>
        <pt x="135" y="1430" on="1"/>
        <pt x="135" y="1434" on="1"/>
      </contour>
    </TTGlyph>
    <TTGlyph name="Nacute" xMin="135" yMin="-20" xMax="1378" yMax="1887">
      <component glyphName="N" x="0" y="0" flags="0x204"/>
      <component glyphName="acute" x="246" y="410" flags="0x4"/>
    </TTGlyph>
    <TTGlyph name="Ncaron" xMin="135" yMin="-20" xMax="1378" yMax="1887">
      <component glyphName="N" x="0" y="0" flags="0x204"/>
      <component glyphName="caron" x="244" y="410" flags="0x4"/>
    </TTGlyph>
    <TTGlyph name="Ncommaaccent" xMin="135" yMin="-512" xMax="1378" yMax="1434">
      <component glyphName="N" x="0" y="0" flags="0x204"/>
      <component glyphName="commaaccent" x="246" y="0" flags="0x4"/>
    </TTGlyph>
    <TTGlyph name="Ntilde" xMin="135" yMin="-20" xMax="1378" yMax="1821">
      <component glyphName="N" x="0" y="0" flags="0x204"/>
      <component glyphName="tilde" x="258" y="410" flags="0x4"/>
    </TTGlyph>
    <TTGlyph name="O" xMin="82" yMin="-31" xMax="1569" yMax="1458">
      <contour>
        <pt x="797" y="1458" on="1"/>
        <pt x="964" y="1458" on="0"/>
        <pt x="1247" y="1349" on="0"/>
        <pt x="1453" y="1152" on="0"/>
        <pt x="1569" y="876" on="0"/>
        <pt x="1569" y="709" on="1"/>
        <pt x="1569" y="614" on="0"/>
        <pt x="1525" y="430" on="0"/>
        <pt x="1440" y="266" on="0"/>
        <pt x="1316" y="127" on="0"/>
        <pt x="1157" y="26" on="0"/>
        <pt x="965" y="-31" on="0"/>
        <pt x="854" y="-31" on="1"/>
        <pt x="687" y="-31" on="0"/>
        <pt x="404" y="76" on="0"/>
        <pt x="198" y="272" on="0"/>
        <pt x="82" y="547" on="0"/>
        <pt x="82" y="715" on="1"/>
        <pt x="82" y="810" on="0"/>
        <pt x="126" y="994" on="0"/>
        <pt x="211" y="1160" on="0"/>
        <pt x="334" y="1299" on="0"/>
        <pt x="493" y="1401" on="0"/>
        <pt x="686" y="1458" on="0"/>
      </contour>
      <contour>
        <pt x="854" y="59" on="1"/>
        <pt x="965" y="59" on="0"/>
        <pt x="1149" y="139" on="0"/>
        <pt x="1282" y="291" on="0"/>
        <pt x="1356" y="510" on="0"/>
        <pt x="1356" y="649" on="1"/>
        <pt x="1356" y="803" on="0"/>
        <pt x="1285" y="1066" on="0"/>
        <pt x="1145" y="1259" on="0"/>
        <pt x="936" y="1368" on="0"/>
        <pt x="797" y="1368" on="1"/>
        <pt x="686" y="1368" on="0"/>
        <pt x="502" y="1289" on="0"/>
        <pt x="369" y="1139" on="0"/>
        <pt x="295" y="921" on="0"/>
        <pt x="295" y="782" on="1"/>
        <pt x="295" y="629" on="0"/>
        <pt x="365" y="364" on="0"/>
        <pt x="505" y="170" on="0"/>
        <pt x="715" y="59" on="0"/>
      </contour>
    </TTGlyph>
    <TTGlyph name="OE" xMin="82" yMin="-31" xMax="2095" yMax="1458">
      <contour>
        <pt x="1337" y="1434" on="1"/>
        <pt x="1462" y="1434" on="0"/>
        <pt x="1709" y="1436" on="0"/>
        <pt x="1915" y="1439" on="0"/>
        <pt x="2061" y="1445" on="0"/>
        <pt x="2087" y="1450" on="1"/>
        <pt x="2038" y="1317" on="1"/>
        <pt x="2005" y="1326" on="0"/>
        <pt x="1961" y="1333" on="1"/>
        <pt x="1923" y="1339" on="0"/>
        <pt x="1814" y="1350" on="0"/>
        <pt x="1743" y="1350" on="1"/>
        <pt x="1719" y="1350" on="0"/>
        <pt x="1652" y="1347" on="0"/>
        <pt x="1621" y="1345" on="1"/>
        <pt x="1585" y="1343" on="0"/>
        <pt x="1548" y="1341" on="1"/>
        <pt x="1548" y="795" on="1"/>
        <pt x="1651" y="796" on="0"/>
        <pt x="1817" y="806" on="0"/>
        <pt x="1875" y="811" on="1"/>
        <pt x="1943" y="817" on="0"/>
        <pt x="1995" y="825" on="1"/>
        <pt x="1964" y="680" on="1"/>
        <pt x="1895" y="689" on="0"/>
        <pt x="1823" y="697" on="1"/>
        <pt x="1761" y="704" on="0"/>
        <pt x="1615" y="715" on="0"/>
        <pt x="1548" y="715" on="1"/>
        <pt x="1548" y="88" on="1"/>
        <pt x="1666" y="88" on="0"/>
        <pt x="1864" y="108" on="0"/>
        <pt x="1938" y="121" on="1"/>
        <pt x="2024" y="135" on="0"/>
        <pt x="2095" y="154" on="1"/>
        <pt x="2066" y="-8" on="1"/>
        <pt x="2054" y="-7" on="0"/>
        <pt x="2006" y="-5" on="0"/>
        <pt x="1947" y="-3" on="0"/>
        <pt x="1882" y="-2" on="0"/>
        <pt x="1824" y="-1" on="0"/>
        <pt x="1779" y="0" on="0"/>
        <pt x="1769" y="0" on="1"/>
        <pt x="1337" y="0" on="1"/>
        <pt x="1337" y="4" on="1"/>
        <pt x="1345" y="30" on="0"/>
        <pt x="1357" y="118" on="0"/>
        <pt x="1362" y="190" on="1"/>
        <pt x="1272" y="88" on="0"/>
        <pt x="1019" y="-31" on="0"/>
        <pt x="854" y="-31" on="1"/>
        <pt x="687" y="-31" on="0"/>
        <pt x="404" y="76" on="0"/>
        <pt x="198" y="272" on="0"/>
        <pt x="82" y="547" on="0"/>
        <pt x="82" y="715" on="1"/>
        <pt x="82" y="810" on="0"/>
        <pt x="126" y="994" on="0"/>
        <pt x="211" y="1160" on="0"/>
        <pt x="334" y="1299" on="0"/>
        <pt x="493" y="1401" on="0"/>
        <pt x="686" y="1458" on="0"/>
        <pt x="797" y="1458" on="1"/>
        <pt x="976" y="1458" on="0"/>
        <pt x="1263" y="1336" on="0"/>
        <pt x="1362" y="1225" on="1"/>
        <pt x="1359" y="1305" on="0"/>
        <pt x="1345" y="1401" on="0"/>
        <pt x="1337" y="1430" on="1"/>
      </contour>
      <contour>
        <pt x="854" y="59" on="1"/>
        <pt x="965" y="59" on="0"/>
        <pt x="1149" y="139" on="0"/>
        <pt x="1282" y="291" on="0"/>
        <pt x="1356" y="510" on="0"/>
        <pt x="1356" y="649" on="1"/>
        <pt x="1356" y="803" on="0"/>
        <pt x="1285" y="1066" on="0"/>
        <pt x="1145" y="1259" on="0"/>
        <pt x="936" y="1368" on="0"/>
        <pt x="797" y="1368" on="1"/>
        <pt x="686" y="1368" on="0"/>
        <pt x="502" y="1289" on="0"/>
        <pt x="369" y="1139" on="0"/>
        <pt x="295" y="921" on="0"/>
        <pt x="295" y="782" on="1"/>
        <pt x="295" y="629" on="0"/>
        <pt x="365" y="364" on="0"/>
        <pt x="505" y="170" on="0"/>
        <pt x="715" y="59" on="0"/>
      </contour>
    </TTGlyph>
    <TTGlyph name="Oacute" xMin="82" yMin="-31" xMax="1569" yMax="1887">
      <component glyphName="O" x="0" y="0" flags="0x204"/>
      <component glyphName="acute" x="313" y="410" flags="0x4"/>
    </TTGlyph>
    <TTGlyph name="Obreve" xMin="82" yMin="-31" xMax="1569" yMax="1919">
      <component glyphName="O" x="0" y="0" flags="0x204"/>
      <component glyphName="breve" x="313" y="410" flags="0x4"/>
    </TTGlyph>
    <TTGlyph name="Ocircumflex" xMin="82" yMin="-31" xMax="1569" yMax="1887">
      <component glyphName="O" x="0" y="0" flags="0x204"/>
      <component glyphName="circumflex" x="313" y="410" flags="0x4"/>
    </TTGlyph>
    <TTGlyph name="Odieresis" xMin="82" yMin="-31" xMax="1569" yMax="1815">
      <component glyphName="O" x="0" y="0" flags="0x204"/>
      <component glyphName="dieresis" x="313" y="410" flags="0x4"/>
    </TTGlyph>
    <TTGlyph name="Ograve" xMin="82" yMin="-31" xMax="1569" yMax="1887">
      <component glyphName="O" x="0" y="0" flags="0x204"/>
      <component glyphName="grave" x="276" y="410" flags="0x4"/>
    </TTGlyph>
    <TTGlyph name="Ohungarumlaut" xMin="82" yMin="-31" xMax="1569" yMax="1889">
      <component glyphName="O" x="0" y="0" flags="0x204"/>
      <component glyphName="hungarumlaut" x="393" y="410" flags="0x4"/>
    </TTGlyph>
    <TTGlyph name="Omacron" xMin="82" yMin="-31" xMax="1569" yMax="1774">
      <component glyphName="O" x="0" y="0" flags="0x204"/>
      <component glyphName="macron" x="313" y="410" flags="0x4"/>
    </TTGlyph>
    <TTGlyph name="Oslash" xMin="82" yMin="-156" xMax="1569" yMax="1569">
      <contour>
        <pt x="367" y="119" on="1"/>
        <pt x="232" y="218" on="0"/>
        <pt x="82" y="520" on="0"/>
        <pt x="82" y="715" on="1"/>
        <pt x="82" y="810" on="0"/>
        <pt x="126" y="994" on="0"/>
        <pt x="211" y="1160" on="0"/>
        <pt x="334" y="1299" on="0"/>
        <pt x="493" y="1401" on="0"/>
        <pt x="686" y="1458" on="0"/>
        <pt x="797" y="1458" on="1"/>
        <pt x="905" y="1458" on="0"/>
        <pt x="1100" y="1413" on="0"/>
        <pt x="1184" y="1368" on="1"/>
        <pt x="1315" y="1569" on="1"/>
        <pt x="1397" y="1516" on="1"/>
        <pt x="1268" y="1319" on="1"/>
        <pt x="1338" y="1270" on="0"/>
        <pt x="1449" y="1141" on="0"/>
        <pt x="1527" y="987" on="0"/>
        <pt x="1569" y="808" on="0"/>
        <pt x="1569" y="709" on="1"/>
        <pt x="1569" y="614" on="0"/>
        <pt x="1525" y="430" on="0"/>
        <pt x="1440" y="266" on="0"/>
        <pt x="1316" y="127" on="0"/>
        <pt x="1157" y="26" on="0"/>
        <pt x="965" y="-31" on="0"/>
        <pt x="854" y="-31" on="1"/>
        <pt x="739" y="-31" on="0"/>
        <pt x="535" y="18" on="0"/>
        <pt x="449" y="66" on="1"/>
        <pt x="303" y="-156" on="1"/>
        <pt x="221" y="-102" on="1"/>
      </contour>
      <contour>
        <pt x="854" y="59" on="1"/>
        <pt x="965" y="59" on="0"/>
        <pt x="1149" y="139" on="0"/>
        <pt x="1282" y="291" on="0"/>
        <pt x="1356" y="510" on="0"/>
        <pt x="1356" y="649" on="1"/>
        <pt x="1356" y="817" on="0"/>
        <pt x="1271" y="1097" on="0"/>
        <pt x="1188" y="1196" on="1"/>
        <pt x="520" y="174" on="1"/>
        <pt x="585" y="118" on="0"/>
        <pt x="751" y="59" on="0"/>
      </contour>
      <contour>
        <pt x="295" y="782" on="1"/>
        <pt x="295" y="620" on="0"/>
        <pt x="371" y="345" on="0"/>
        <pt x="449" y="246" on="1"/>
        <pt x="1116" y="1264" on="1"/>
        <pt x="1051" y="1313" on="0"/>
        <pt x="894" y="1368" on="0"/>
        <pt x="797" y="1368" on="1"/>
        <pt x="686" y="1368" on="0"/>
        <pt x="502" y="1289" on="0"/>
        <pt x="369" y="1139" on="0"/>
        <pt x="295" y="921" on="0"/>
      </contour>
    </TTGlyph>
    <TTGlyph name="Oslashacute" xMin="82" yMin="-156" xMax="1569" yMax="1887">
      <component glyphName="Oslash" x="0" y="0" flags="0x204"/>
      <component glyphName="acute" x="313" y="410" flags="0x4"/>
    </TTGlyph>
    <TTGlyph name="Otilde" xMin="82" yMin="-31" xMax="1569" yMax="1821">
      <component glyphName="O" x="0" y="0" flags="0x204"/>
      <component glyphName="tilde" x="313" y="410" flags="0x4"/>
    </TTGlyph>
    <TTGlyph name="P" xMin="143" yMin="0" xMax="997" yMax="1446">
      <contour>
        <pt x="354" y="635" on="1"/>
        <pt x="452" y="617" on="0"/>
        <pt x="615" y="646" on="0"/>
        <pt x="732" y="741" on="0"/>
        <pt x="797" y="903" on="0"/>
        <pt x="797" y="1020" on="1"/>
        <pt x="797" y="1101" on="0"/>
        <pt x="763" y="1234" on="0"/>
        <pt x="696" y="1327" on="0"/>
        <pt x="594" y="1378" on="0"/>
        <pt x="526" y="1378" on="1"/>
        <pt x="483" y="1378" on="0"/>
        <pt x="419" y="1371" on="0"/>
        <pt x="397" y="1367" on="1"/>
        <pt x="371" y="1362" on="0"/>
        <pt x="354" y="1356" on="1"/>
      </contour>
      <contour>
        <pt x="143" y="1434" on="1"/>
        <pt x="163" y="1432" on="0"/>
        <pt x="185" y="1430" on="1"/>
        <pt x="204" y="1428" on="0"/>
        <pt x="251" y="1427" on="0"/>
        <pt x="276" y="1427" on="1"/>
        <pt x="315" y="1427" on="0"/>
        <pt x="448" y="1446" on="0"/>
        <pt x="551" y="1446" on="1"/>
        <pt x="647" y="1446" on="0"/>
        <pt x="810" y="1390" on="0"/>
        <pt x="930" y="1282" on="0"/>
        <pt x="997" y="1127" on="0"/>
        <pt x="997" y="1028" on="1"/>
        <pt x="997" y="895" on="0"/>
        <pt x="891" y="701" on="0"/>
        <pt x="713" y="581" on="0"/>
        <pt x="481" y="538" on="0"/>
        <pt x="354" y="557" on="1"/>
        <pt x="354" y="391" on="1"/>
        <pt x="354" y="306" on="0"/>
        <pt x="359" y="179" on="0"/>
        <pt x="366" y="87" on="0"/>
        <pt x="377" y="25" on="0"/>
        <pt x="383" y="4" on="1"/>
        <pt x="383" y="0" on="1"/>
        <pt x="143" y="0" on="1"/>
        <pt x="143" y="4" on="1"/>
        <pt x="149" y="25" on="0"/>
        <pt x="160" y="87" on="0"/>
        <pt x="168" y="179" on="0"/>
        <pt x="172" y="306" on="0"/>
        <pt x="172" y="391" on="1"/>
        <pt x="172" y="1042" on="1"/>
        <pt x="172" y="1127" on="0"/>
        <pt x="168" y="1254" on="0"/>
        <pt x="160" y="1347" on="0"/>
        <pt x="149" y="1409" on="0"/>
        <pt x="143" y="1430" on="1"/>
      </contour>
    </TTGlyph>
    <TTGlyph name="Q" xMin="82" yMin="-573" xMax="1815" yMax="1458">
      <contour>
        <pt x="797" y="1458" on="1"/>
        <pt x="964" y="1458" on="0"/>
        <pt x="1247" y="1349" on="0"/>
        <pt x="1453" y="1152" on="0"/>
        <pt x="1569" y="876" on="0"/>
        <pt x="1569" y="709" on="1"/>
        <pt x="1569" y="596" on="0"/>
        <pt x="1507" y="381" on="0"/>
        <pt x="1389" y="196" on="0"/>
        <pt x="1218" y="53" on="0"/>
        <pt x="1110" y="12" on="1"/>
        <pt x="1140" y="-44" on="0"/>
        <pt x="1205" y="-161" on="0"/>
        <pt x="1286" y="-274" on="0"/>
        <pt x="1390" y="-378" on="0"/>
        <pt x="1526" y="-464" on="0"/>
        <pt x="1702" y="-530" on="0"/>
        <pt x="1815" y="-547" on="1"/>
        <pt x="1814" y="-550" on="0"/>
        <pt x="1812" y="-554" on="1"/>
        <pt x="1810" y="-558" on="0"/>
        <pt x="1806" y="-567" on="0"/>
        <pt x="1804" y="-573" on="1"/>
        <pt x="1673" y="-569" on="0"/>
        <pt x="1450" y="-512" on="0"/>
        <pt x="1263" y="-423" on="0"/>
        <pt x="1109" y="-311" on="0"/>
        <pt x="986" y="-194" on="0"/>
        <pt x="892" y="-79" on="0"/>
        <pt x="858" y="-31" on="1"/>
        <pt x="689" y="-31" on="0"/>
        <pt x="405" y="76" on="0"/>
        <pt x="198" y="272" on="0"/>
        <pt x="82" y="547" on="0"/>
        <pt x="82" y="715" on="1"/>
        <pt x="82" y="810" on="0"/>
        <pt x="126" y="994" on="0"/>
        <pt x="211" y="1160" on="0"/>
        <pt x="334" y="1299" on="0"/>
        <pt x="493" y="1401" on="0"/>
        <pt x="686" y="1458" on="0"/>
      </contour>
      <contour>
        <pt x="854" y="59" on="1"/>
        <pt x="965" y="59" on="0"/>
        <pt x="1149" y="139" on="0"/>
        <pt x="1282" y="291" on="0"/>
        <pt x="1356" y="510" on="0"/>
        <pt x="1356" y="649" on="1"/>
        <pt x="1356" y="803" on="0"/>
        <pt x="1285" y="1066" on="0"/>
        <pt x="1145" y="1259" on="0"/>
        <pt x="936" y="1368" on="0"/>
        <pt x="797" y="1368" on="1"/>
        <pt x="686" y="1368" on="0"/>
        <pt x="502" y="1289" on="0"/>
        <pt x="369" y="1139" on="0"/>
        <pt x="295" y="921" on="0"/>
        <pt x="295" y="782" on="1"/>
        <pt x="295" y="629" on="0"/>
        <pt x="365" y="364" on="0"/>
        <pt x="505" y="170" on="0"/>
        <pt x="715" y="59" on="0"/>
      </contour>
    </TTGlyph>
    <TTGlyph name="R" xMin="143" yMin="0" xMax="1262" yMax="1446">
      <contour>
        <pt x="354" y="391" on="1"/>
        <pt x="354" y="306" on="0"/>
        <pt x="359" y="179" on="0"/>
        <pt x="366" y="87" on="0"/>
        <pt x="377" y="25" on="0"/>
        <pt x="383" y="4" on="1"/>
        <pt x="383" y="0" on="1"/>
        <pt x="143" y="0" on="1"/>
        <pt x="143" y="4" on="1"/>
        <pt x="149" y="25" on="0"/>
        <pt x="160" y="87" on="0"/>
        <pt x="168" y="179" on="0"/>
        <pt x="172" y="306" on="0"/>
        <pt x="172" y="391" on="1"/>
        <pt x="172" y="1042" on="1"/>
        <pt x="172" y="1127" on="0"/>
        <pt x="168" y="1254" on="0"/>
        <pt x="160" y="1347" on="0"/>
        <pt x="149" y="1409" on="0"/>
        <pt x="143" y="1430" on="1"/>
        <pt x="143" y="1434" on="1"/>
        <pt x="163" y="1432" on="0"/>
        <pt x="185" y="1430" on="1"/>
        <pt x="204" y="1428" on="0"/>
        <pt x="251" y="1427" on="0"/>
        <pt x="276" y="1427" on="1"/>
        <pt x="315" y="1427" on="0"/>
        <pt x="448" y="1446" on="0"/>
        <pt x="551" y="1446" on="1"/>
        <pt x="647" y="1446" on="0"/>
        <pt x="810" y="1394" on="0"/>
        <pt x="930" y="1294" on="0"/>
        <pt x="997" y="1149" on="0"/>
        <pt x="997" y="1057" on="1"/>
        <pt x="997" y="985" on="0"/>
        <pt x="960" y="862" on="0"/>
        <pt x="893" y="762" on="0"/>
        <pt x="799" y="685" on="0"/>
        <pt x="741" y="659" on="1"/>
        <pt x="1092" y="166" on="1"/>
        <pt x="1118" y="129" on="0"/>
        <pt x="1163" y="75" on="0"/>
        <pt x="1204" y="37" on="0"/>
        <pt x="1242" y="12" on="0"/>
        <pt x="1262" y="4" on="1"/>
        <pt x="1262" y="0" on="1"/>
        <pt x="973" y="0" on="1"/>
        <pt x="970" y="19" on="0"/>
        <pt x="937" y="82" on="0"/>
        <pt x="915" y="113" on="1"/>
        <pt x="561" y="612" on="1"/>
        <pt x="512" y="607" on="0"/>
        <pt x="408" y="607" on="0"/>
        <pt x="354" y="616" on="1"/>
      </contour>
      <contour>
        <pt x="354" y="694" on="1"/>
        <pt x="452" y="676" on="0"/>
        <pt x="615" y="702" on="0"/>
        <pt x="732" y="790" on="0"/>
        <pt x="797" y="941" on="0"/>
        <pt x="797" y="1049" on="1"/>
        <pt x="797" y="1124" on="0"/>
        <pt x="763" y="1246" on="0"/>
        <pt x="696" y="1331" on="0"/>
        <pt x="594" y="1378" on="0"/>
        <pt x="526" y="1378" on="1"/>
        <pt x="483" y="1378" on="0"/>
        <pt x="419" y="1371" on="0"/>
        <pt x="397" y="1367" on="1"/>
        <pt x="371" y="1362" on="0"/>
        <pt x="354" y="1356" on="1"/>
      </contour>
    </TTGlyph>
    <TTGlyph name="Racute" xMin="143" yMin="0" xMax="1262" yMax="1887">
      <component glyphName="R" x="0" y="0" flags="0x204"/>
      <component glyphName="acute" x="84" y="410" flags="0x4"/>
    </TTGlyph>
    <TTGlyph name="Rcaron" xMin="143" yMin="0" xMax="1262" yMax="1887">
      <component glyphName="R" x="0" y="0" flags="0x204"/>
      <component glyphName="caron" x="20" y="410" flags="0x4"/>
    </TTGlyph>
    <TTGlyph name="Rcommaaccent" xMin="143" yMin="-512" xMax="1262" yMax="1446">
      <component glyphName="R" x="0" y="0" flags="0x204"/>
      <component glyphName="commaaccent" x="145" y="0" flags="0x4"/>
    </TTGlyph>
    <TTGlyph name="S" xMin="102" yMin="-31" xMax="829" yMax="1460">
      <contour>
        <pt x="741" y="1206" on="1"/>
        <pt x="719" y="1206" on="1"/>
        <pt x="711" y="1229" on="0"/>
        <pt x="676" y="1287" on="0"/>
        <pt x="619" y="1338" on="0"/>
        <pt x="538" y="1372" on="0"/>
        <pt x="483" y="1372" on="1"/>
        <pt x="434" y="1372" on="0"/>
        <pt x="358" y="1342" on="0"/>
        <pt x="307" y="1288" on="0"/>
        <pt x="281" y="1214" on="0"/>
        <pt x="281" y="1169" on="1"/>
        <pt x="281" y="1097" on="0"/>
        <pt x="362" y="966" on="0"/>
        <pt x="484" y="838" on="0"/>
        <pt x="626" y="710" on="0"/>
        <pt x="748" y="572" on="0"/>
        <pt x="829" y="421" on="0"/>
        <pt x="829" y="334" on="1"/>
        <pt x="829" y="269" on="0"/>
        <pt x="784" y="138" on="0"/>
        <pt x="690" y="34" on="0"/>
        <pt x="542" y="-31" on="0"/>
        <pt x="440" y="-31" on="1"/>
        <pt x="383" y="-31" on="0"/>
        <pt x="280" y="-10" on="0"/>
        <pt x="193" y="21" on="0"/>
        <pt x="124" y="57" on="0"/>
        <pt x="102" y="72" on="1"/>
        <pt x="125" y="293" on="1"/>
        <pt x="150" y="293" on="1"/>
        <pt x="161" y="246" on="0"/>
        <pt x="211" y="161" on="0"/>
        <pt x="284" y="96" on="0"/>
        <pt x="378" y="57" on="0"/>
        <pt x="434" y="57" on="1"/>
        <pt x="485" y="57" on="0"/>
        <pt x="566" y="88" on="0"/>
        <pt x="624" y="143" on="0"/>
        <pt x="655" y="219" on="0"/>
        <pt x="655" y="264" on="1"/>
        <pt x="655" y="327" on="0"/>
        <pt x="609" y="434" on="0"/>
        <pt x="534" y="530" on="0"/>
        <pt x="439" y="620" on="0"/>
        <pt x="339" y="711" on="0"/>
        <pt x="244" y="807" on="0"/>
        <pt x="169" y="916" on="0"/>
        <pt x="123" y="1041" on="0"/>
        <pt x="123" y="1116" on="1"/>
        <pt x="123" y="1195" on="0"/>
        <pt x="184" y="1322" on="0"/>
        <pt x="285" y="1412" on="0"/>
        <pt x="413" y="1460" on="0"/>
        <pt x="481" y="1460" on="1"/>
        <pt x="531" y="1460" on="0"/>
        <pt x="615" y="1444" on="0"/>
        <pt x="682" y="1422" on="0"/>
        <pt x="732" y="1400" on="0"/>
        <pt x="748" y="1393" on="1"/>
      </contour>
    </TTGlyph>
    <TTGlyph name="Sacute" xMin="102" yMin="-31" xMax="829" yMax="1887">
      <component glyphName="S" x="0" y="0" flags="0x204"/>
      <component glyphName="acute" x="-44" y="410" flags="0x4"/>
    </TTGlyph>
    <TTGlyph name="Scaron" xMin="99" yMin="-31" xMax="837" yMax="1887">
      <component glyphName="S" x="0" y="0" flags="0x204"/>
      <component glyphName="caron" x="-44" y="410" flags="0x4"/>
    </TTGlyph>
    <TTGlyph name="Scedilla" xMin="102" yMin="-457" xMax="829" yMax="1460">
      <contour>
        <pt x="700" y="-285" on="1"/>
        <pt x="700" y="-324" on="0"/>
        <pt x="662" y="-388" on="0"/>
        <pt x="595" y="-433" on="0"/>
        <pt x="504" y="-457" on="0"/>
        <pt x="451" y="-457" on="1"/>
        <pt x="389" y="-457" on="0"/>
        <pt x="280" y="-430" on="0"/>
        <pt x="233" y="-406" on="1"/>
        <pt x="252" y="-360" on="1"/>
        <pt x="265" y="-366" on="0"/>
        <pt x="297" y="-381" on="0"/>
        <pt x="336" y="-393" on="0"/>
        <pt x="385" y="-401" on="0"/>
        <pt x="416" y="-401" on="1"/>
        <pt x="482" y="-401" on="0"/>
        <pt x="565" y="-337" on="0"/>
        <pt x="565" y="-285" on="1"/>
        <pt x="565" y="-228" on="0"/>
        <pt x="487" y="-174" on="0"/>
        <pt x="430" y="-174" on="1"/>
        <pt x="421" y="-174" on="0"/>
        <pt x="391" y="-176" on="0"/>
        <pt x="383" y="-178" on="1"/>
        <pt x="436" y="-31" on="1"/>
        <pt x="380" y="-30" on="0"/>
        <pt x="279" y="-9" on="0"/>
        <pt x="193" y="21" on="0"/>
        <pt x="124" y="57" on="0"/>
        <pt x="102" y="72" on="1"/>
        <pt x="125" y="293" on="1"/>
        <pt x="150" y="293" on="1"/>
        <pt x="161" y="246" on="0"/>
        <pt x="211" y="161" on="0"/>
        <pt x="284" y="96" on="0"/>
        <pt x="378" y="57" on="0"/>
        <pt x="434" y="57" on="1"/>
        <pt x="485" y="57" on="0"/>
        <pt x="566" y="88" on="0"/>
        <pt x="624" y="143" on="0"/>
        <pt x="655" y="219" on="0"/>
        <pt x="655" y="264" on="1"/>
        <pt x="655" y="327" on="0"/>
        <pt x="609" y="434" on="0"/>
        <pt x="534" y="530" on="0"/>
        <pt x="439" y="620" on="0"/>
        <pt x="339" y="711" on="0"/>
        <pt x="244" y="807" on="0"/>
        <pt x="169" y="916" on="0"/>
        <pt x="123" y="1041" on="0"/>
        <pt x="123" y="1116" on="1"/>
        <pt x="123" y="1195" on="0"/>
        <pt x="184" y="1322" on="0"/>
        <pt x="285" y="1412" on="0"/>
        <pt x="413" y="1460" on="0"/>
        <pt x="481" y="1460" on="1"/>
        <pt x="531" y="1460" on="0"/>
        <pt x="615" y="1444" on="0"/>
        <pt x="682" y="1422" on="0"/>
        <pt x="732" y="1400" on="0"/>
        <pt x="748" y="1393" on="1"/>
        <pt x="741" y="1206" on="1"/>
        <pt x="719" y="1206" on="1"/>
        <pt x="711" y="1229" on="0"/>
        <pt x="676" y="1287" on="0"/>
        <pt x="619" y="1338" on="0"/>
        <pt x="538" y="1372" on="0"/>
        <pt x="483" y="1372" on="1"/>
        <pt x="434" y="1372" on="0"/>
        <pt x="358" y="1342" on="0"/>
        <pt x="307" y="1288" on="0"/>
        <pt x="281" y="1214" on="0"/>
        <pt x="281" y="1169" on="1"/>
        <pt x="281" y="1097" on="0"/>
        <pt x="362" y="966" on="0"/>
        <pt x="484" y="838" on="0"/>
        <pt x="626" y="710" on="0"/>
        <pt x="748" y="572" on="0"/>
        <pt x="829" y="421" on="0"/>
        <pt x="829" y="334" on="1"/>
        <pt x="829" y="272" on="0"/>
        <pt x="789" y="148" on="0"/>
        <pt x="705" y="47" on="0"/>
        <pt x="574" y="-22" on="0"/>
        <pt x="483" y="-29" on="1"/>
        <pt x="446" y="-129" on="1"/>
        <pt x="459" y="-127" on="0"/>
        <pt x="482" y="-125" on="0"/>
        <pt x="496" y="-125" on="1"/>
        <pt x="552" y="-125" on="0"/>
        <pt x="630" y="-154" on="0"/>
        <pt x="678" y="-199" on="0"/>
        <pt x="700" y="-257" on="0"/>
      </contour>
    </TTGlyph>
    <TTGlyph name="Scircumflex" xMin="99" yMin="-31" xMax="837" yMax="1887">
      <component glyphName="S" x="0" y="0" flags="0x204"/>
      <component glyphName="circumflex" x="-44" y="410" flags="0x4"/>
    </TTGlyph>
    <TTGlyph name="T" xMin="0" yMin="0" xMax="1223" yMax="1442">
      <contour>
        <pt x="520" y="1346" on="1"/>
        <pt x="402" y="1346" on="0"/>
        <pt x="212" y="1325" on="0"/>
        <pt x="143" y="1313" on="1"/>
        <pt x="63" y="1298" on="0"/>
        <pt x="0" y="1280" on="1"/>
        <pt x="29" y="1442" on="1"/>
        <pt x="41" y="1441" on="0"/>
        <pt x="89" y="1439" on="0"/>
        <pt x="148" y="1437" on="0"/>
        <pt x="213" y="1436" on="0"/>
        <pt x="271" y="1435" on="0"/>
        <pt x="316" y="1434" on="0"/>
        <pt x="326" y="1434" on="1"/>
        <pt x="897" y="1434" on="1"/>
        <pt x="907" y="1434" on="0"/>
        <pt x="952" y="1435" on="0"/>
        <pt x="1010" y="1436" on="0"/>
        <pt x="1075" y="1437" on="0"/>
        <pt x="1134" y="1439" on="0"/>
        <pt x="1182" y="1441" on="0"/>
        <pt x="1194" y="1442" on="1"/>
        <pt x="1223" y="1280" on="1"/>
        <pt x="1159" y="1298" on="0"/>
        <pt x="1079" y="1313" on="1"/>
        <pt x="1010" y="1325" on="0"/>
        <pt x="820" y="1346" on="0"/>
        <pt x="702" y="1346" on="1"/>
        <pt x="702" y="391" on="1"/>
        <pt x="702" y="306" on="0"/>
        <pt x="707" y="179" on="0"/>
        <pt x="714" y="87" on="0"/>
        <pt x="725" y="25" on="0"/>
        <pt x="731" y="4" on="1"/>
        <pt x="731" y="0" on="1"/>
        <pt x="492" y="0" on="1"/>
        <pt x="492" y="4" on="1"/>
        <pt x="498" y="25" on="0"/>
        <pt x="508" y="87" on="0"/>
        <pt x="516" y="179" on="0"/>
        <pt x="520" y="306" on="0"/>
        <pt x="520" y="391" on="1"/>
      </contour>
    </TTGlyph>
    <TTGlyph name="Tbar" xMin="0" yMin="0" xMax="1223" yMax="1442">
      <contour>
        <pt x="90" y="911" on="1"/>
        <pt x="520" y="911" on="1"/>
        <pt x="520" y="1346" on="1"/>
        <pt x="402" y="1346" on="0"/>
        <pt x="212" y="1325" on="0"/>
        <pt x="143" y="1313" on="1"/>
        <pt x="63" y="1298" on="0"/>
        <pt x="0" y="1280" on="1"/>
        <pt x="29" y="1442" on="1"/>
        <pt x="41" y="1441" on="0"/>
        <pt x="89" y="1439" on="0"/>
        <pt x="148" y="1437" on="0"/>
        <pt x="213" y="1436" on="0"/>
        <pt x="271" y="1435" on="0"/>
        <pt x="316" y="1434" on="0"/>
        <pt x="326" y="1434" on="1"/>
        <pt x="897" y="1434" on="1"/>
        <pt x="907" y="1434" on="0"/>
        <pt x="952" y="1435" on="0"/>
        <pt x="1010" y="1436" on="0"/>
        <pt x="1075" y="1437" on="0"/>
        <pt x="1134" y="1439" on="0"/>
        <pt x="1182" y="1441" on="0"/>
        <pt x="1194" y="1442" on="1"/>
        <pt x="1223" y="1280" on="1"/>
        <pt x="1159" y="1298" on="0"/>
        <pt x="1079" y="1313" on="1"/>
        <pt x="1010" y="1325" on="0"/>
        <pt x="820" y="1346" on="0"/>
        <pt x="702" y="1346" on="1"/>
        <pt x="702" y="911" on="1"/>
        <pt x="1133" y="911" on="1"/>
        <pt x="1133" y="829" on="1"/>
        <pt x="702" y="829" on="1"/>
        <pt x="702" y="391" on="1"/>
        <pt x="702" y="306" on="0"/>
        <pt x="707" y="179" on="0"/>
        <pt x="714" y="87" on="0"/>
        <pt x="725" y="25" on="0"/>
        <pt x="731" y="4" on="1"/>
        <pt x="731" y="0" on="1"/>
        <pt x="492" y="0" on="1"/>
        <pt x="492" y="4" on="1"/>
        <pt x="498" y="25" on="0"/>
        <pt x="508" y="87" on="0"/>
        <pt x="516" y="179" on="0"/>
        <pt x="520" y="306" on="0"/>
        <pt x="520" y="391" on="1"/>
        <pt x="520" y="829" on="1"/>
        <pt x="90" y="829" on="1"/>
      </contour>
    </TTGlyph>
    <TTGlyph name="Tcaron" xMin="0" yMin="0" xMax="1223" yMax="1887">
      <component glyphName="T" x="0" y="0" flags="0x204"/>
      <component glyphName="caron" x="98" y="410" flags="0x4"/>
    </TTGlyph>
    <TTGlyph name="Tcommaaccent" xMin="0" yMin="-512" xMax="1223" yMax="1442">
      <component glyphName="T" x="0" y="0" flags="0x204"/>
      <component glyphName="commaaccent" x="100" y="0" flags="0x4"/>
    </TTGlyph>
    <TTGlyph name="Thorn" xMin="143" yMin="0" xMax="997" yMax="1434">
      <contour>
        <pt x="383" y="1430" on="1"/>
        <pt x="378" y="1411" on="0"/>
        <pt x="368" y="1359" on="0"/>
        <pt x="360" y="1285" on="0"/>
        <pt x="355" y="1188" on="0"/>
        <pt x="354" y="1124" on="1"/>
        <pt x="391" y="1127" on="0"/>
        <pt x="488" y="1137" on="0"/>
        <pt x="551" y="1137" on="1"/>
        <pt x="647" y="1137" on="0"/>
        <pt x="810" y="1086" on="0"/>
        <pt x="930" y="989" on="0"/>
        <pt x="997" y="849" on="0"/>
        <pt x="997" y="760" on="1"/>
        <pt x="997" y="651" on="0"/>
        <pt x="908" y="490" on="0"/>
        <pt x="755" y="384" on="0"/>
        <pt x="553" y="332" on="0"/>
        <pt x="440" y="332" on="1"/>
        <pt x="419" y="332" on="0"/>
        <pt x="376" y="334" on="0"/>
        <pt x="354" y="336" on="1"/>
        <pt x="354" y="334" on="1"/>
        <pt x="354" y="291" on="0"/>
        <pt x="359" y="186" on="0"/>
        <pt x="366" y="90" on="0"/>
        <pt x="377" y="16" on="0"/>
        <pt x="383" y="4" on="1"/>
        <pt x="383" y="0" on="1"/>
        <pt x="143" y="0" on="1"/>
        <pt x="143" y="4" on="1"/>
        <pt x="147" y="12" on="0"/>
        <pt x="155" y="57" on="0"/>
        <pt x="161" y="121" on="0"/>
        <pt x="166" y="198" on="0"/>
        <pt x="170" y="278" on="0"/>
        <pt x="172" y="357" on="0"/>
        <pt x="172" y="391" on="1"/>
        <pt x="172" y="1042" on="1"/>
        <pt x="172" y="1127" on="0"/>
        <pt x="168" y="1254" on="0"/>
        <pt x="160" y="1347" on="0"/>
        <pt x="149" y="1409" on="0"/>
        <pt x="143" y="1430" on="1"/>
        <pt x="143" y="1434" on="1"/>
        <pt x="383" y="1434" on="1"/>
      </contour>
      <contour>
        <pt x="354" y="414" on="1"/>
        <pt x="382" y="409" on="0"/>
        <pt x="434" y="403" on="0"/>
        <pt x="459" y="403" on="1"/>
        <pt x="536" y="403" on="0"/>
        <pt x="661" y="446" on="0"/>
        <pt x="749" y="532" on="0"/>
        <pt x="797" y="663" on="0"/>
        <pt x="797" y="752" on="1"/>
        <pt x="797" y="824" on="0"/>
        <pt x="763" y="941" on="0"/>
        <pt x="696" y="1024" on="0"/>
        <pt x="594" y="1069" on="0"/>
        <pt x="526" y="1069" on="1"/>
        <pt x="483" y="1069" on="0"/>
        <pt x="419" y="1062" on="0"/>
        <pt x="397" y="1058" on="1"/>
        <pt x="371" y="1053" on="0"/>
        <pt x="354" y="1047" on="1"/>
        <pt x="354" y="1042" on="1"/>
      </contour>
    </TTGlyph>
    <TTGlyph name="U" xMin="135" yMin="-31" xMax="1319" yMax="1434">
      <contour>
        <pt x="1169" y="1042" on="1"/>
        <pt x="1169" y="1127" on="0"/>
        <pt x="1165" y="1254" on="0"/>
        <pt x="1157" y="1347" on="0"/>
        <pt x="1147" y="1409" on="0"/>
        <pt x="1141" y="1430" on="1"/>
        <pt x="1141" y="1434" on="1"/>
        <pt x="1319" y="1434" on="1"/>
        <pt x="1319" y="1430" on="1"/>
        <pt x="1313" y="1409" on="0"/>
        <pt x="1302" y="1347" on="0"/>
        <pt x="1295" y="1254" on="0"/>
        <pt x="1290" y="1127" on="0"/>
        <pt x="1290" y="1042" on="1"/>
        <pt x="1290" y="502" on="1"/>
        <pt x="1290" y="359" on="0"/>
        <pt x="1208" y="157" on="0"/>
        <pt x="1062" y="28" on="0"/>
        <pt x="858" y="-31" on="0"/>
        <pt x="737" y="-31" on="1"/>
        <pt x="616" y="-31" on="0"/>
        <pt x="407" y="25" on="0"/>
        <pt x="252" y="150" on="0"/>
        <pt x="164" y="349" on="0"/>
        <pt x="164" y="492" on="1"/>
        <pt x="164" y="1042" on="1"/>
        <pt x="164" y="1127" on="0"/>
        <pt x="160" y="1254" on="0"/>
        <pt x="152" y="1347" on="0"/>
        <pt x="141" y="1409" on="0"/>
        <pt x="135" y="1430" on="1"/>
        <pt x="135" y="1434" on="1"/>
        <pt x="375" y="1434" on="1"/>
        <pt x="375" y="1430" on="1"/>
        <pt x="369" y="1409" on="0"/>
        <pt x="358" y="1347" on="0"/>
        <pt x="350" y="1254" on="0"/>
        <pt x="346" y="1127" on="0"/>
        <pt x="346" y="1042" on="1"/>
        <pt x="346" y="481" on="1"/>
        <pt x="346" y="362" on="0"/>
        <pt x="417" y="207" on="0"/>
        <pt x="533" y="116" on="0"/>
        <pt x="681" y="80" on="0"/>
        <pt x="758" y="80" on="1"/>
        <pt x="835" y="80" on="0"/>
        <pt x="983" y="116" on="0"/>
        <pt x="1098" y="207" on="0"/>
        <pt x="1169" y="362" on="0"/>
        <pt x="1169" y="481" on="1"/>
      </contour>
    </TTGlyph>
    <TTGlyph name="Uacute" xMin="135" yMin="-31" xMax="1319" yMax="1887">
      <component glyphName="U" x="0" y="0" flags="0x204"/>
      <component glyphName="acute" x="256" y="410" flags="0x4"/>
    </TTGlyph>
    <TTGlyph name="Ubreve" xMin="135" yMin="-31" xMax="1319" yMax="1919">
      <component glyphName="U" x="0" y="0" flags="0x204"/>
      <component glyphName="breve" x="236" y="410" flags="0x4"/>
    </TTGlyph>
    <TTGlyph name="Ucircumflex" xMin="135" yMin="-31" xMax="1319" yMax="1887">
      <component glyphName="U" x="0" y="0" flags="0x204"/>
      <component glyphName="circumflex" x="236" y="410" flags="0x4"/>
    </TTGlyph>
    <TTGlyph name="Udieresis" xMin="135" yMin="-31" xMax="1319" yMax="1815">
      <component glyphName="U" x="0" y="0" flags="0x204"/>
      <component glyphName="dieresis" x="236" y="410" flags="0x4"/>
    </TTGlyph>
    <TTGlyph name="Ugrave" xMin="135" yMin="-31" xMax="1319" yMax="1887">
      <component glyphName="U" x="0" y="0" flags="0x204"/>
      <component glyphName="grave" x="213" y="410" flags="0x4"/>
    </TTGlyph>
    <TTGlyph name="Uhungarumlaut" xMin="135" yMin="-31" xMax="1319" yMax="1889">
      <component glyphName="U" x="0" y="0" flags="0x204"/>
      <component glyphName="hungarumlaut" x="274" y="410" flags="0x4"/>
    </TTGlyph>
    <TTGlyph name="Umacron" xMin="135" yMin="-31" xMax="1319" yMax="1774">
      <component glyphName="U" x="0" y="0" flags="0x204"/>
      <component glyphName="macron" x="236" y="410" flags="0x4"/>
    </TTGlyph>
    <TTGlyph name="Uogonek" xMin="135" yMin="-430" xMax="1319" yMax="1434">
      <contour>
        <pt x="991" y="-346" on="1"/>
        <pt x="967" y="-362" on="0"/>
        <pt x="909" y="-392" on="0"/>
        <pt x="843" y="-416" on="0"/>
        <pt x="770" y="-430" on="0"/>
        <pt x="731" y="-430" on="1"/>
        <pt x="693" y="-430" on="0"/>
        <pt x="618" y="-414" on="0"/>
        <pt x="560" y="-377" on="0"/>
        <pt x="524" y="-318" on="0"/>
        <pt x="524" y="-276" on="1"/>
        <pt x="524" y="-239" on="0"/>
        <pt x="560" y="-172" on="0"/>
        <pt x="625" y="-112" on="0"/>
        <pt x="716" y="-57" on="0"/>
        <pt x="770" y="-31" on="1"/>
        <pt x="737" y="-31" on="1"/>
        <pt x="616" y="-31" on="0"/>
        <pt x="407" y="25" on="0"/>
        <pt x="252" y="150" on="0"/>
        <pt x="164" y="349" on="0"/>
        <pt x="164" y="492" on="1"/>
        <pt x="164" y="1042" on="1"/>
        <pt x="164" y="1127" on="0"/>
        <pt x="160" y="1254" on="0"/>
        <pt x="152" y="1347" on="0"/>
        <pt x="141" y="1409" on="0"/>
        <pt x="135" y="1430" on="1"/>
        <pt x="135" y="1434" on="1"/>
        <pt x="375" y="1434" on="1"/>
        <pt x="375" y="1430" on="1"/>
        <pt x="369" y="1409" on="0"/>
        <pt x="358" y="1347" on="0"/>
        <pt x="350" y="1254" on="0"/>
        <pt x="346" y="1127" on="0"/>
        <pt x="346" y="1042" on="1"/>
        <pt x="346" y="481" on="1"/>
        <pt x="346" y="362" on="0"/>
        <pt x="417" y="207" on="0"/>
        <pt x="533" y="116" on="0"/>
        <pt x="681" y="80" on="0"/>
        <pt x="758" y="80" on="1"/>
        <pt x="835" y="80" on="0"/>
        <pt x="983" y="116" on="0"/>
        <pt x="1098" y="207" on="0"/>
        <pt x="1169" y="362" on="0"/>
        <pt x="1169" y="481" on="1"/>
        <pt x="1169" y="1042" on="1"/>
        <pt x="1169" y="1127" on="0"/>
        <pt x="1165" y="1254" on="0"/>
        <pt x="1157" y="1347" on="0"/>
        <pt x="1147" y="1409" on="0"/>
        <pt x="1141" y="1430" on="1"/>
        <pt x="1141" y="1434" on="1"/>
        <pt x="1319" y="1434" on="1"/>
        <pt x="1319" y="1430" on="1"/>
        <pt x="1313" y="1409" on="0"/>
        <pt x="1302" y="1347" on="0"/>
        <pt x="1295" y="1254" on="0"/>
        <pt x="1290" y="1127" on="0"/>
        <pt x="1290" y="1042" on="1"/>
        <pt x="1290" y="502" on="1"/>
        <pt x="1290" y="378" on="0"/>
        <pt x="1228" y="194" on="0"/>
        <pt x="1116" y="66" on="0"/>
        <pt x="958" y="-9" on="0"/>
        <pt x="862" y="-23" on="1"/>
        <pt x="821" y="-47" on="0"/>
        <pt x="749" y="-101" on="0"/>
        <pt x="696" y="-159" on="0"/>
        <pt x="666" y="-221" on="0"/>
        <pt x="666" y="-254" on="1"/>
        <pt x="666" y="-308" on="0"/>
        <pt x="731" y="-367" on="0"/>
        <pt x="797" y="-367" on="1"/>
        <pt x="823" y="-367" on="0"/>
        <pt x="874" y="-357" on="0"/>
        <pt x="920" y="-342" on="0"/>
        <pt x="960" y="-324" on="0"/>
        <pt x="975" y="-315" on="1"/>
      </contour>
    </TTGlyph>
    <TTGlyph name="Uring" xMin="135" yMin="-31" xMax="1319" yMax="1995">
      <component glyphName="U" x="0" y="0" flags="0x204"/>
      <component glyphName="ring" x="236" y="410" flags="0x4"/>
    </TTGlyph>
    <TTGlyph name="Utilde" xMin="135" yMin="-31" xMax="1319" yMax="1821">
      <component glyphName="U" x="0" y="0" flags="0x204"/>
      <component glyphName="tilde" x="252" y="410" flags="0x4"/>
    </TTGlyph>
    <TTGlyph name="V" xMin="-41" yMin="-31" xMax="1389" yMax="1434">
      <contour>
        <pt x="233" y="1434" on="1"/>
        <pt x="233" y="1430" on="1"/>
        <pt x="231" y="1425" on="0"/>
        <pt x="229" y="1405" on="0"/>
        <pt x="229" y="1397" on="1"/>
        <pt x="229" y="1366" on="0"/>
        <pt x="246" y="1291" on="0"/>
        <pt x="270" y="1235" on="1"/>
        <pt x="713" y="236" on="1"/>
        <pt x="1141" y="1227" on="1"/>
        <pt x="1156" y="1264" on="0"/>
        <pt x="1190" y="1352" on="0"/>
        <pt x="1190" y="1397" on="1"/>
        <pt x="1190" y="1409" on="0"/>
        <pt x="1186" y="1426" on="0"/>
        <pt x="1184" y="1430" on="1"/>
        <pt x="1184" y="1434" on="1"/>
        <pt x="1389" y="1434" on="1"/>
        <pt x="1389" y="1430" on="1"/>
        <pt x="1370" y="1411" on="0"/>
        <pt x="1316" y="1313" on="0"/>
        <pt x="1284" y="1241" on="1"/>
        <pt x="711" y="-31" on="1"/>
        <pt x="631" y="-31" on="1"/>
        <pt x="88" y="1192" on="1"/>
        <pt x="69" y="1235" on="0"/>
        <pt x="28" y="1315" on="0"/>
        <pt x="-8" y="1380" on="0"/>
        <pt x="-36" y="1424" on="0"/>
        <pt x="-41" y="1430" on="1"/>
        <pt x="-41" y="1434" on="1"/>
      </contour>
    </TTGlyph>
    <TTGlyph name="W" xMin="-31" yMin="-31" xMax="2107" yMax="1434">
      <contour>
        <pt x="1079" y="1245" on="1"/>
        <pt x="1479" y="274" on="1"/>
        <pt x="1868" y="1227" on="1"/>
        <pt x="1891" y="1286" on="0"/>
        <pt x="1913" y="1368" on="0"/>
        <pt x="1913" y="1397" on="1"/>
        <pt x="1913" y="1406" on="0"/>
        <pt x="1911" y="1425" on="0"/>
        <pt x="1909" y="1430" on="1"/>
        <pt x="1909" y="1434" on="1"/>
        <pt x="2107" y="1434" on="1"/>
        <pt x="2107" y="1430" on="1"/>
        <pt x="2087" y="1408" on="0"/>
        <pt x="2040" y="1312" on="0"/>
        <pt x="2009" y="1241" on="1"/>
        <pt x="1475" y="-31" on="1"/>
        <pt x="1399" y="-31" on="1"/>
        <pt x="1010" y="913" on="1"/>
        <pt x="655" y="-31" on="1"/>
        <pt x="580" y="-31" on="1"/>
        <pt x="90" y="1192" on="1"/>
        <pt x="72" y="1235" on="0"/>
        <pt x="35" y="1315" on="0"/>
        <pt x="2" y="1379" on="0"/>
        <pt x="-25" y="1423" on="0"/>
        <pt x="-31" y="1430" on="1"/>
        <pt x="-31" y="1434" on="1"/>
        <pt x="246" y="1434" on="1"/>
        <pt x="246" y="1430" on="1"/>
        <pt x="244" y="1419" on="0"/>
        <pt x="244" y="1407" on="0"/>
        <pt x="244" y="1399" on="1"/>
        <pt x="244" y="1365" on="0"/>
        <pt x="259" y="1289" on="0"/>
        <pt x="281" y="1235" on="1"/>
        <pt x="657" y="285" on="1"/>
        <pt x="1016" y="1241" on="1"/>
      </contour>
    </TTGlyph>
    <TTGlyph name="Wacute" xMin="-31" yMin="-31" xMax="2107" yMax="1887">
      <component glyphName="W" x="0" y="0" flags="0x204"/>
      <component glyphName="acute" x="526" y="410" flags="0x4"/>
    </TTGlyph>
    <TTGlyph name="Wcircumflex" xMin="-31" yMin="-31" xMax="2107" yMax="1887">
      <component glyphName="W" x="0" y="0" flags="0x204"/>
      <component glyphName="circumflex" x="526" y="410" flags="0x4"/>
    </TTGlyph>
    <TTGlyph name="Wdieresis" xMin="-31" yMin="-31" xMax="2107" yMax="1815">
      <component glyphName="W" x="0" y="0" flags="0x204"/>
      <component glyphName="dieresis" x="526" y="410" flags="0x4"/>
    </TTGlyph>
    <TTGlyph name="Wgrave" xMin="-31" yMin="-31" xMax="2107" yMax="1887">
      <component glyphName="W" x="0" y="0" flags="0x204"/>
      <component glyphName="grave" x="524" y="410" flags="0x4"/>
    </TTGlyph>
    <TTGlyph name="X" xMin="23" yMin="0" xMax="1407" yMax="1434">
      <contour>
        <pt x="678" y="627" on="1"/>
        <pt x="324" y="178" on="1"/>
        <pt x="304" y="154" on="0"/>
        <pt x="266" y="103" on="0"/>
        <pt x="236" y="55" on="0"/>
        <pt x="217" y="14" on="0"/>
        <pt x="217" y="0" on="1"/>
        <pt x="23" y="0" on="1"/>
        <pt x="23" y="4" on="1"/>
        <pt x="44" y="23" on="0"/>
        <pt x="126" y="101" on="0"/>
        <pt x="172" y="160" on="1"/>
        <pt x="612" y="713" on="1"/>
        <pt x="160" y="1307" on="1"/>
        <pt x="123" y="1355" on="0"/>
        <pt x="51" y="1420" on="0"/>
        <pt x="33" y="1430" on="1"/>
        <pt x="33" y="1434" on="1"/>
        <pt x="346" y="1434" on="1"/>
        <pt x="346" y="1422" on="0"/>
        <pt x="353" y="1384" on="0"/>
        <pt x="373" y="1333" on="0"/>
        <pt x="408" y="1271" on="0"/>
        <pt x="436" y="1235" on="1"/>
        <pt x="725" y="856" on="1"/>
        <pt x="1044" y="1255" on="1"/>
        <pt x="1062" y="1277" on="0"/>
        <pt x="1097" y="1329" on="0"/>
        <pt x="1124" y="1378" on="0"/>
        <pt x="1141" y="1420" on="0"/>
        <pt x="1141" y="1434" on="1"/>
        <pt x="1335" y="1434" on="1"/>
        <pt x="1335" y="1430" on="1"/>
        <pt x="1325" y="1422" on="0"/>
        <pt x="1301" y="1400" on="0"/>
        <pt x="1270" y="1368" on="0"/>
        <pt x="1232" y="1324" on="0"/>
        <pt x="1208" y="1294" on="1"/>
        <pt x="791" y="768" on="1"/>
        <pt x="1257" y="158" on="1"/>
        <pt x="1305" y="96" on="0"/>
        <pt x="1388" y="15" on="0"/>
        <pt x="1407" y="4" on="1"/>
        <pt x="1407" y="0" on="1"/>
        <pt x="1096" y="0" on="1"/>
        <pt x="1096" y="23" on="0"/>
        <pt x="1058" y="129" on="0"/>
        <pt x="1006" y="199" on="1"/>
      </contour>
    </TTGlyph>
    <TTGlyph name="Y" xMin="-51" yMin="0" xMax="1282" yMax="1434">
      <contour>
        <pt x="727" y="688" on="1"/>
        <pt x="727" y="391" on="1"/>
        <pt x="727" y="306" on="0"/>
        <pt x="731" y="179" on="0"/>
        <pt x="739" y="87" on="0"/>
        <pt x="750" y="25" on="0"/>
        <pt x="756" y="4" on="1"/>
        <pt x="756" y="0" on="1"/>
        <pt x="516" y="0" on="1"/>
        <pt x="516" y="4" on="1"/>
        <pt x="522" y="25" on="0"/>
        <pt x="533" y="87" on="0"/>
        <pt x="540" y="179" on="0"/>
        <pt x="545" y="306" on="0"/>
        <pt x="545" y="391" on="1"/>
        <pt x="545" y="668" on="1"/>
        <pt x="98" y="1276" on="1"/>
        <pt x="75" y="1307" on="0"/>
        <pt x="30" y="1359" on="0"/>
        <pt x="-10" y="1398" on="0"/>
        <pt x="-42" y="1424" on="0"/>
        <pt x="-51" y="1430" on="1"/>
        <pt x="-51" y="1434" on="1"/>
        <pt x="252" y="1434" on="1"/>
        <pt x="252" y="1411" on="0"/>
        <pt x="291" y="1306" on="0"/>
        <pt x="342" y="1235" on="1"/>
        <pt x="670" y="786" on="1"/>
        <pt x="991" y="1255" on="1"/>
        <pt x="1008" y="1280" on="0"/>
        <pt x="1042" y="1332" on="0"/>
        <pt x="1070" y="1380" on="0"/>
        <pt x="1087" y="1420" on="0"/>
        <pt x="1087" y="1434" on="1"/>
        <pt x="1282" y="1434" on="1"/>
        <pt x="1282" y="1430" on="1"/>
        <pt x="1260" y="1411" on="0"/>
        <pt x="1186" y="1336" on="0"/>
        <pt x="1143" y="1274" on="1"/>
      </contour>
    </TTGlyph>
    <TTGlyph name="Yacute" xMin="-51" yMin="0" xMax="1282" yMax="1887">
      <component glyphName="Y" x="0" y="0" flags="0x204"/>
      <component glyphName="acute" x="166" y="410" flags="0x4"/>
    </TTGlyph>
    <TTGlyph name="Ycircumflex" xMin="-51" yMin="0" xMax="1282" yMax="1887">
      <component glyphName="Y" x="0" y="0" flags="0x204"/>
      <component glyphName="circumflex" x="154" y="410" flags="0x4"/>
    </TTGlyph>
    <TTGlyph name="Ydieresis" xMin="-51" yMin="0" xMax="1282" yMax="1815">
      <component glyphName="Y" x="0" y="0" flags="0x204"/>
      <component glyphName="dieresis" x="154" y="410" flags="0x4"/>
    </TTGlyph>
    <TTGlyph name="Ygrave" xMin="-51" yMin="0" xMax="1282" yMax="1887">
      <component glyphName="Y" x="0" y="0" flags="0x204"/>
      <component glyphName="grave" x="123" y="410" flags="0x4"/>
    </TTGlyph>
    <TTGlyph name="Z" xMin="23" yMin="-8" xMax="1272" yMax="1442">
      <contour>
        <pt x="297" y="88" on="1"/>
        <pt x="725" y="88" on="1"/>
        <pt x="842" y="88" on="0"/>
        <pt x="1041" y="108" on="0"/>
        <pt x="1115" y="121" on="1"/>
        <pt x="1201" y="135" on="0"/>
        <pt x="1272" y="154" on="1"/>
        <pt x="1223" y="-8" on="1"/>
        <pt x="1211" y="-7" on="0"/>
        <pt x="1163" y="-5" on="0"/>
        <pt x="1104" y="-3" on="0"/>
        <pt x="1039" y="-2" on="0"/>
        <pt x="981" y="-1" on="0"/>
        <pt x="936" y="0" on="0"/>
        <pt x="926" y="0" on="1"/>
        <pt x="23" y="0" on="1"/>
        <pt x="23" y="25" on="1"/>
        <pt x="997" y="1346" on="1"/>
        <pt x="621" y="1346" on="1"/>
        <pt x="503" y="1346" on="0"/>
        <pt x="304" y="1325" on="0"/>
        <pt x="230" y="1313" on="1"/>
        <pt x="144" y="1298" on="0"/>
        <pt x="74" y="1280" on="1"/>
        <pt x="143" y="1442" on="1"/>
        <pt x="155" y="1441" on="0"/>
        <pt x="204" y="1439" on="0"/>
        <pt x="263" y="1437" on="0"/>
        <pt x="327" y="1436" on="0"/>
        <pt x="385" y="1435" on="0"/>
        <pt x="430" y="1434" on="0"/>
        <pt x="440" y="1434" on="1"/>
        <pt x="1272" y="1434" on="1"/>
        <pt x="1272" y="1407" on="1"/>
      </contour>
    </TTGlyph>
    <TTGlyph name="Zacute" xMin="23" yMin="-8" xMax="1272" yMax="1887">
      <component glyphName="Z" x="0" y="0" flags="0x204"/>
      <component glyphName="acute" x="207" y="410" flags="0x4"/>
    </TTGlyph>
    <TTGlyph name="Zcaron" xMin="23" yMin="-8" xMax="1272" yMax="1887">
      <component glyphName="Z" x="0" y="0" flags="0x204"/>
      <component glyphName="caron" x="186" y="410" flags="0x4"/>
    </TTGlyph>
    <TTGlyph name="Zdotaccent" xMin="23" yMin="-8" xMax="1272" yMax="1825">
      <component glyphName="Z" x="0" y="0" flags="0x204"/>
      <component glyphName="dotaccent" x="186" y="410" flags="0x4"/>
    </TTGlyph>
    <TTGlyph name="a" xMin="-10" yMin="0" xMax="1161" yMax="1100">
      <contour>
        <pt x="784" y="338" on="1"/>
        <pt x="757" y="338" on="0"/>
        <pt x="676" y="338" on="0"/>
        <pt x="580" y="338" on="0"/>
        <pt x="478" y="338" on="0"/>
        <pt x="386" y="337" on="0"/>
        <pt x="310" y="336" on="0"/>
        <pt x="289" y="336" on="1"/>
        <pt x="252" y="258" on="1"/>
        <pt x="228" y="210" on="0"/>
        <pt x="194" y="139" on="0"/>
        <pt x="172" y="85" on="0"/>
        <pt x="162" y="46" on="0"/>
        <pt x="162" y="29" on="1"/>
        <pt x="162" y="18" on="0"/>
        <pt x="164" y="7" on="0"/>
        <pt x="166" y="4" on="1"/>
        <pt x="166" y="0" on="1"/>
        <pt x="-10" y="0" on="1"/>
        <pt x="-10" y="4" on="1"/>
        <pt x="-3" y="11" on="0"/>
        <pt x="27" y="58" on="0"/>
        <pt x="66" y="126" on="0"/>
        <pt x="111" y="212" on="0"/>
        <pt x="133" y="258" on="1"/>
        <pt x="541" y="1100" on="1"/>
        <pt x="616" y="1100" on="1"/>
        <pt x="1016" y="258" on="1"/>
        <pt x="1039" y="210" on="0"/>
        <pt x="1086" y="122" on="0"/>
        <pt x="1126" y="53" on="0"/>
        <pt x="1156" y="8" on="0"/>
        <pt x="1161" y="4" on="1"/>
        <pt x="1161" y="0" on="1"/>
        <pt x="905" y="0" on="1"/>
        <pt x="907" y="8" on="0"/>
        <pt x="907" y="21" on="0"/>
        <pt x="907" y="29" on="1"/>
        <pt x="907" y="51" on="0"/>
        <pt x="888" y="113" on="0"/>
        <pt x="861" y="178" on="0"/>
        <pt x="832" y="238" on="0"/>
        <pt x="823" y="258" on="1"/>
      </contour>
      <contour>
        <pt x="328" y="416" on="1"/>
        <pt x="389" y="416" on="1"/>
        <pt x="431" y="416" on="0"/>
        <pt x="526" y="417" on="0"/>
        <pt x="622" y="417" on="0"/>
        <pt x="712" y="418" on="0"/>
        <pt x="748" y="418" on="1"/>
        <pt x="541" y="860" on="1"/>
      </contour>
    </TTGlyph>
    <TTGlyph name="aacute" xMin="-10" yMin="0" xMax="1161" yMax="1510">
      <component glyphName="a" x="0" y="0" flags="0x204"/>
      <component glyphName="acute" x="68" y="33" flags="0x4"/>
    </TTGlyph>
    <TTGlyph name="abreve" xMin="-10" yMin="0" xMax="1161" yMax="1542">
      <component glyphName="a" x="0" y="0" flags="0x204"/>
      <component glyphName="breve" x="68" y="33" flags="0x4"/>
    </TTGlyph>
    <TTGlyph name="acircumflex" xMin="-10" yMin="0" xMax="1161" yMax="1510">
      <component glyphName="a" x="0" y="0" flags="0x204"/>
      <component glyphName="circumflex" x="68" y="33" flags="0x4"/>
    </TTGlyph>
    <TTGlyph name="acute" xMin="281" yMin="1145" xMax="741" yMax="1477">
      <contour>
        <pt x="741" y="1321" on="1"/>
        <pt x="667" y="1296" on="0"/>
        <pt x="591" y="1268" on="1"/>
        <pt x="558" y="1256" on="0"/>
        <pt x="486" y="1228" on="0"/>
        <pt x="412" y="1196" on="0"/>
        <pt x="337" y="1163" on="0"/>
        <pt x="303" y="1145" on="1"/>
        <pt x="281" y="1182" on="1"/>
        <pt x="346" y="1225" on="0"/>
        <pt x="475" y="1327" on="0"/>
        <pt x="529" y="1372" on="1"/>
        <pt x="591" y="1424" on="0"/>
        <pt x="649" y="1477" on="1"/>
      </contour>
    </TTGlyph>
    <TTGlyph name="adieresis" xMin="-10" yMin="0" xMax="1161" yMax="1438">
      <component glyphName="a" x="0" y="0" flags="0x204"/>
      <component glyphName="dieresis" x="68" y="33" flags="0x4"/>
    </TTGlyph>
    <TTGlyph name="ae" xMin="-61" yMin="-6" xMax="1335" yMax="1087">
      <contour>
        <pt x="709" y="1075" on="1"/>
        <pt x="807" y="1075" on="0"/>
        <pt x="1011" y="1076" on="0"/>
        <pt x="1184" y="1079" on="0"/>
        <pt x="1309" y="1083" on="0"/>
        <pt x="1329" y="1087" on="1"/>
        <pt x="1290" y="979" on="1"/>
        <pt x="1264" y="986" on="0"/>
        <pt x="1230" y="992" on="1"/>
        <pt x="1201" y="997" on="0"/>
        <pt x="1114" y="1006" on="0"/>
        <pt x="1059" y="1006" on="1"/>
        <pt x="1039" y="1006" on="0"/>
        <pt x="987" y="1003" on="0"/>
        <pt x="963" y="1001" on="1"/>
        <pt x="935" y="999" on="0"/>
        <pt x="905" y="997" on="1"/>
        <pt x="905" y="602" on="1"/>
        <pt x="986" y="603" on="0"/>
        <pt x="1116" y="609" on="0"/>
        <pt x="1162" y="614" on="1"/>
        <pt x="1216" y="618" on="0"/>
        <pt x="1257" y="625" on="1"/>
        <pt x="1233" y="506" on="1"/>
        <pt x="1178" y="513" on="0"/>
        <pt x="1122" y="518" on="1"/>
        <pt x="1074" y="523" on="0"/>
        <pt x="959" y="530" on="0"/>
        <pt x="905" y="530" on="1"/>
        <pt x="905" y="76" on="1"/>
        <pt x="998" y="76" on="0"/>
        <pt x="1154" y="91" on="0"/>
        <pt x="1212" y="100" on="1"/>
        <pt x="1280" y="111" on="0"/>
        <pt x="1335" y="125" on="1"/>
        <pt x="1313" y="-6" on="1"/>
        <pt x="1298" y="-5" on="0"/>
        <pt x="1231" y="-2" on="0"/>
        <pt x="1157" y="-1" on="0"/>
        <pt x="1093" y="0" on="0"/>
        <pt x="1081" y="0" on="1"/>
        <pt x="702" y="0" on="1"/>
        <pt x="702" y="4" on="1"/>
        <pt x="709" y="25" on="0"/>
        <pt x="720" y="91" on="0"/>
        <pt x="727" y="188" on="0"/>
        <pt x="731" y="322" on="0"/>
        <pt x="731" y="412" on="1"/>
        <pt x="731" y="524" on="1"/>
        <pt x="573" y="524" on="1"/>
        <pt x="416" y="524" on="1"/>
        <pt x="256" y="250" on="1"/>
        <pt x="227" y="201" on="0"/>
        <pt x="185" y="132" on="0"/>
        <pt x="158" y="81" on="0"/>
        <pt x="145" y="45" on="0"/>
        <pt x="145" y="29" on="1"/>
        <pt x="145" y="18" on="0"/>
        <pt x="148" y="7" on="0"/>
        <pt x="150" y="4" on="1"/>
        <pt x="150" y="0" on="1"/>
        <pt x="-61" y="0" on="1"/>
        <pt x="-61" y="4" on="1"/>
        <pt x="-47" y="11" on="0"/>
        <pt x="-4" y="57" on="0"/>
        <pt x="47" y="124" on="0"/>
        <pt x="102" y="207" on="0"/>
        <pt x="129" y="252" on="1"/>
        <pt x="524" y="907" on="1"/>
        <pt x="547" y="945" on="0"/>
        <pt x="579" y="1008" on="0"/>
        <pt x="590" y="1030" on="1"/>
        <pt x="602" y="1056" on="0"/>
        <pt x="610" y="1075" on="1"/>
      </contour>
      <contour>
        <pt x="459" y="598" on="1"/>
        <pt x="463" y="598" on="1"/>
        <pt x="522" y="598" on="0"/>
        <pt x="665" y="598" on="0"/>
        <pt x="731" y="600" on="1"/>
        <pt x="731" y="1001" on="1"/>
        <pt x="696" y="1001" on="1"/>
      </contour>
    </TTGlyph>
    <TTGlyph name="aeacute" xMin="-61" yMin="-6" xMax="1335" yMax="1510">
      <component glyphName="ae" x="0" y="0" flags="0x204"/>
      <component glyphName="acute" x="451" y="33" flags="0x4"/>
    </TTGlyph>
    <TTGlyph name="agrave" xMin="-10" yMin="0" xMax="1161" yMax="1510">
      <component glyphName="a" x="0" y="0" flags="0x204"/>
      <component glyphName="grave" x="68" y="33" flags="0x4"/>
    </TTGlyph>
    <TTGlyph name="amacron" xMin="-10" yMin="0" xMax="1161" yMax="1397">
      <component glyphName="a" x="0" y="0" flags="0x204"/>
      <component glyphName="macron" x="68" y="33" flags="0x4"/>
    </TTGlyph>
    <TTGlyph name="ampersand" xMin="102" yMin="-342" xMax="1985" yMax="1458">
      <contour>
        <pt x="1284" y="537" on="1"/>
        <pt x="1247" y="338" on="0"/>
        <pt x="1126" y="201" on="1"/>
        <pt x="1228" y="99" on="0"/>
        <pt x="1442" y="-74" on="0"/>
        <pt x="1649" y="-202" on="0"/>
        <pt x="1841" y="-274" on="0"/>
        <pt x="1921" y="-274" on="1"/>
        <pt x="1953" y="-274" on="0"/>
        <pt x="1985" y="-268" on="1"/>
        <pt x="1985" y="-291" on="1"/>
        <pt x="1973" y="-296" on="0"/>
        <pt x="1934" y="-314" on="0"/>
        <pt x="1877" y="-330" on="0"/>
        <pt x="1800" y="-342" on="0"/>
        <pt x="1751" y="-342" on="1"/>
        <pt x="1673" y="-342" on="0"/>
        <pt x="1492" y="-277" on="0"/>
        <pt x="1298" y="-162" on="0"/>
        <pt x="1099" y="-4" on="0"/>
        <pt x="1004" y="90" on="1"/>
        <pt x="917" y="31" on="0"/>
        <pt x="708" y="-33" on="0"/>
        <pt x="584" y="-33" on="1"/>
        <pt x="472" y="-33" on="0"/>
        <pt x="293" y="23" on="0"/>
        <pt x="169" y="127" on="0"/>
        <pt x="102" y="275" on="0"/>
        <pt x="102" y="367" on="1"/>
        <pt x="102" y="455" on="0"/>
        <pt x="168" y="592" on="0"/>
        <pt x="275" y="702" on="0"/>
        <pt x="413" y="792" on="0"/>
        <pt x="485" y="834" on="1"/>
        <pt x="456" y="909" on="0"/>
        <pt x="424" y="1051" on="0"/>
        <pt x="424" y="1116" on="1"/>
        <pt x="424" y="1195" on="0"/>
        <pt x="475" y="1322" on="0"/>
        <pt x="563" y="1410" on="0"/>
        <pt x="682" y="1458" on="0"/>
        <pt x="750" y="1458" on="1"/>
        <pt x="800" y="1458" on="0"/>
        <pt x="888" y="1430" on="0"/>
        <pt x="953" y="1375" on="0"/>
        <pt x="991" y="1293" on="0"/>
        <pt x="991" y="1239" on="1"/>
        <pt x="991" y="1171" on="0"/>
        <pt x="934" y="1063" on="0"/>
        <pt x="841" y="973" on="0"/>
        <pt x="721" y="895" on="0"/>
        <pt x="657" y="858" on="1"/>
        <pt x="689" y="783" on="0"/>
        <pt x="778" y="629" on="0"/>
        <pt x="884" y="476" on="0"/>
        <pt x="1006" y="328" on="0"/>
        <pt x="1071" y="258" on="1"/>
        <pt x="1119" y="323" on="0"/>
        <pt x="1174" y="489" on="0"/>
        <pt x="1174" y="588" on="1"/>
        <pt x="1174" y="672" on="0"/>
        <pt x="1155" y="785" on="0"/>
        <pt x="1145" y="825" on="1"/>
        <pt x="1145" y="829" on="1"/>
        <pt x="1325" y="829" on="1"/>
        <pt x="1325" y="825" on="1"/>
        <pt x="1318" y="801" on="0"/>
        <pt x="1311" y="742" on="0"/>
        <pt x="1303" y="671" on="0"/>
        <pt x="1293" y="586" on="0"/>
      </contour>
      <contour>
        <pt x="659" y="57" on="1"/>
        <pt x="741" y="57" on="0"/>
        <pt x="890" y="101" on="0"/>
        <pt x="952" y="143" on="1"/>
        <pt x="884" y="215" on="0"/>
        <pt x="756" y="368" on="0"/>
        <pt x="644" y="527" on="0"/>
        <pt x="549" y="688" on="0"/>
        <pt x="514" y="766" on="1"/>
        <pt x="467" y="734" on="0"/>
        <pt x="386" y="664" on="0"/>
        <pt x="326" y="580" on="0"/>
        <pt x="291" y="481" on="0"/>
        <pt x="291" y="422" on="1"/>
        <pt x="291" y="344" on="0"/>
        <pt x="346" y="210" on="0"/>
        <pt x="444" y="112" on="0"/>
        <pt x="579" y="57" on="0"/>
      </contour>
      <contour>
        <pt x="584" y="1169" on="1"/>
        <pt x="584" y="1111" on="0"/>
        <pt x="610" y="988" on="0"/>
        <pt x="633" y="922" on="1"/>
        <pt x="682" y="953" on="0"/>
        <pt x="767" y="1019" on="0"/>
        <pt x="830" y="1096" on="0"/>
        <pt x="866" y="1184" on="0"/>
        <pt x="866" y="1237" on="1"/>
        <pt x="866" y="1267" on="0"/>
        <pt x="851" y="1320" on="0"/>
        <pt x="821" y="1361" on="0"/>
        <pt x="774" y="1384" on="0"/>
        <pt x="743" y="1384" on="1"/>
        <pt x="663" y="1384" on="0"/>
        <pt x="584" y="1270" on="0"/>
      </contour>
    </TTGlyph>
    <TTGlyph name="aogonek" xMin="-10" yMin="-430" xMax="1241" yMax="1100">
      <contour>
        <pt x="1241" y="-346" on="1"/>
        <pt x="1217" y="-362" on="0"/>
        <pt x="1159" y="-392" on="0"/>
        <pt x="1093" y="-416" on="0"/>
        <pt x="1020" y="-430" on="0"/>
        <pt x="981" y="-430" on="1"/>
        <pt x="943" y="-430" on="0"/>
        <pt x="868" y="-414" on="0"/>
        <pt x="810" y="-377" on="0"/>
        <pt x="774" y="-318" on="0"/>
        <pt x="774" y="-276" on="1"/>
        <pt x="774" y="-233" on="0"/>
        <pt x="821" y="-159" on="0"/>
        <pt x="905" y="-92" on="0"/>
        <pt x="1019" y="-30" on="0"/>
        <pt x="1087" y="0" on="1"/>
        <pt x="905" y="0" on="1"/>
        <pt x="907" y="8" on="0"/>
        <pt x="907" y="21" on="0"/>
        <pt x="907" y="29" on="1"/>
        <pt x="907" y="51" on="0"/>
        <pt x="888" y="113" on="0"/>
        <pt x="861" y="178" on="0"/>
        <pt x="832" y="238" on="0"/>
        <pt x="823" y="258" on="1"/>
        <pt x="784" y="338" on="1"/>
        <pt x="757" y="338" on="0"/>
        <pt x="676" y="338" on="0"/>
        <pt x="580" y="338" on="0"/>
        <pt x="478" y="338" on="0"/>
        <pt x="386" y="337" on="0"/>
        <pt x="310" y="336" on="0"/>
        <pt x="289" y="336" on="1"/>
        <pt x="252" y="258" on="1"/>
        <pt x="228" y="210" on="0"/>
        <pt x="194" y="139" on="0"/>
        <pt x="172" y="85" on="0"/>
        <pt x="162" y="46" on="0"/>
        <pt x="162" y="29" on="1"/>
        <pt x="162" y="18" on="0"/>
        <pt x="164" y="7" on="0"/>
        <pt x="166" y="4" on="1"/>
        <pt x="166" y="0" on="1"/>
        <pt x="-10" y="0" on="1"/>
        <pt x="-10" y="4" on="1"/>
        <pt x="-3" y="11" on="0"/>
        <pt x="27" y="58" on="0"/>
        <pt x="66" y="126" on="0"/>
        <pt x="111" y="212" on="0"/>
        <pt x="133" y="258" on="1"/>
        <pt x="541" y="1100" on="1"/>
        <pt x="616" y="1100" on="1"/>
        <pt x="1016" y="258" on="1"/>
        <pt x="1039" y="210" on="0"/>
        <pt x="1086" y="122" on="0"/>
        <pt x="1126" y="53" on="0"/>
        <pt x="1156" y="8" on="0"/>
        <pt x="1161" y="4" on="1"/>
        <pt x="1161" y="0" on="1"/>
        <pt x="1108" y="-26" on="0"/>
        <pt x="1018" y="-84" on="0"/>
        <pt x="952" y="-148" on="0"/>
        <pt x="915" y="-217" on="0"/>
        <pt x="915" y="-254" on="1"/>
        <pt x="915" y="-308" on="0"/>
        <pt x="980" y="-367" on="0"/>
        <pt x="1047" y="-367" on="1"/>
        <pt x="1073" y="-367" on="0"/>
        <pt x="1124" y="-357" on="0"/>
        <pt x="1170" y="-342" on="0"/>
        <pt x="1210" y="-324" on="0"/>
        <pt x="1225" y="-315" on="1"/>
      </contour>
      <contour>
        <pt x="328" y="416" on="1"/>
        <pt x="389" y="416" on="1"/>
        <pt x="431" y="416" on="0"/>
        <pt x="526" y="417" on="0"/>
        <pt x="622" y="417" on="0"/>
        <pt x="712" y="418" on="0"/>
        <pt x="748" y="418" on="1"/>
        <pt x="541" y="860" on="1"/>
      </contour>
    </TTGlyph>
    <TTGlyph name="approxequal" xMin="147" yMin="414" xMax="1184" yMax="991">
      <contour>
        <pt x="915" y="868" on="1"/>
        <pt x="956" y="868" on="0"/>
        <pt x="1018" y="890" on="0"/>
        <pt x="1066" y="926" on="0"/>
        <pt x="1100" y="970" on="0"/>
        <pt x="1112" y="991" on="1"/>
        <pt x="1184" y="942" on="1"/>
        <pt x="1139" y="855" on="0"/>
        <pt x="1000" y="770" on="0"/>
        <pt x="909" y="770" on="1"/>
        <pt x="854" y="770" on="0"/>
        <pt x="724" y="808" on="0"/>
        <pt x="592" y="855" on="0"/>
        <pt x="467" y="893" on="0"/>
        <pt x="416" y="893" on="1"/>
        <pt x="375" y="893" on="0"/>
        <pt x="313" y="871" on="0"/>
        <pt x="265" y="835" on="0"/>
        <pt x="231" y="791" on="0"/>
        <pt x="219" y="770" on="1"/>
        <pt x="147" y="819" on="1"/>
        <pt x="192" y="906" on="0"/>
        <pt x="331" y="991" on="0"/>
        <pt x="422" y="991" on="1"/>
        <pt x="477" y="991" on="0"/>
        <pt x="607" y="953" on="0"/>
        <pt x="739" y="906" on="0"/>
        <pt x="864" y="868" on="0"/>
      </contour>
      <contour>
        <pt x="915" y="512" on="1"/>
        <pt x="956" y="512" on="0"/>
        <pt x="1018" y="534" on="0"/>
        <pt x="1066" y="570" on="0"/>
        <pt x="1100" y="614" on="0"/>
        <pt x="1112" y="635" on="1"/>
        <pt x="1184" y="586" on="1"/>
        <pt x="1139" y="499" on="0"/>
        <pt x="1000" y="414" on="0"/>
        <pt x="909" y="414" on="1"/>
        <pt x="854" y="414" on="0"/>
        <pt x="724" y="452" on="0"/>
        <pt x="592" y="499" on="0"/>
        <pt x="467" y="537" on="0"/>
        <pt x="416" y="537" on="1"/>
        <pt x="375" y="537" on="0"/>
        <pt x="313" y="515" on="0"/>
        <pt x="265" y="479" on="0"/>
        <pt x="231" y="435" on="0"/>
        <pt x="219" y="414" on="1"/>
        <pt x="147" y="463" on="1"/>
        <pt x="192" y="550" on="0"/>
        <pt x="331" y="635" on="0"/>
        <pt x="422" y="635" on="1"/>
        <pt x="477" y="635" on="0"/>
        <pt x="607" y="597" on="0"/>
        <pt x="739" y="550" on="0"/>
        <pt x="864" y="512" on="0"/>
      </contour>
    </TTGlyph>
    <TTGlyph name="aring" xMin="-10" yMin="0" xMax="1161" yMax="1618">
      <component glyphName="a" x="0" y="0" flags="0x204"/>
      <component glyphName="ring" x="68" y="33" flags="0x4"/>
    </TTGlyph>
    <TTGlyph name="asciicircum" xMin="150" yMin="948" xMax="877" yMax="1434">
      <contour>
        <pt x="510" y="1290" on="1"/>
        <pt x="184" y="948" on="1"/>
        <pt x="150" y="973" on="1"/>
        <pt x="457" y="1434" on="1"/>
        <pt x="569" y="1434" on="1"/>
        <pt x="877" y="973" on="1"/>
        <pt x="842" y="948" on="1"/>
        <pt x="516" y="1290" on="1"/>
      </contour>
    </TTGlyph>
    <TTGlyph name="asciitilde" xMin="147" yMin="592" xMax="1184" yMax="813">
      <contour>
        <pt x="915" y="690" on="1"/>
        <pt x="956" y="690" on="0"/>
        <pt x="1018" y="712" on="0"/>
        <pt x="1066" y="748" on="0"/>
        <pt x="1100" y="792" on="0"/>
        <pt x="1112" y="813" on="1"/>
        <pt x="1184" y="764" on="1"/>
        <pt x="1139" y="677" on="0"/>
        <pt x="1000" y="592" on="0"/>
        <pt x="909" y="592" on="1"/>
        <pt x="854" y="592" on="0"/>
        <pt x="724" y="630" on="0"/>
        <pt x="592" y="677" on="0"/>
        <pt x="467" y="715" on="0"/>
        <pt x="416" y="715" on="1"/>
        <pt x="375" y="715" on="0"/>
        <pt x="313" y="693" on="0"/>
        <pt x="265" y="657" on="0"/>
        <pt x="231" y="613" on="0"/>
        <pt x="219" y="592" on="1"/>
        <pt x="147" y="641" on="1"/>
        <pt x="192" y="728" on="0"/>
        <pt x="331" y="813" on="0"/>
        <pt x="422" y="813" on="1"/>
        <pt x="477" y="813" on="0"/>
        <pt x="607" y="775" on="0"/>
        <pt x="739" y="728" on="0"/>
        <pt x="864" y="690" on="0"/>
      </contour>
    </TTGlyph>
    <TTGlyph name="asterisk" xMin="61" yMin="803" xMax="672" yMax="1458">
      <contour>
        <pt x="430" y="1130" on="1"/>
        <pt x="672" y="1004" on="1"/>
        <pt x="631" y="934" on="1"/>
        <pt x="399" y="1073" on="1"/>
        <pt x="408" y="803" on="1"/>
        <pt x="326" y="803" on="1"/>
        <pt x="334" y="1075" on="1"/>
        <pt x="102" y="934" on="1"/>
        <pt x="61" y="1004" on="1"/>
        <pt x="301" y="1130" on="1"/>
        <pt x="61" y="1257" on="1"/>
        <pt x="102" y="1327" on="1"/>
        <pt x="334" y="1186" on="1"/>
        <pt x="326" y="1458" on="1"/>
        <pt x="408" y="1458" on="1"/>
        <pt x="399" y="1186" on="1"/>
        <pt x="631" y="1327" on="1"/>
        <pt x="672" y="1257" on="1"/>
      </contour>
    </TTGlyph>
    <TTGlyph name="at" xMin="133" yMin="-260" xMax="1880" yMax="1458">
      <contour>
        <pt x="668" y="434" on="1"/>
        <pt x="668" y="499" on="0"/>
        <pt x="722" y="595" on="0"/>
        <pt x="810" y="661" on="0"/>
        <pt x="925" y="703" on="0"/>
        <pt x="1046" y="727" on="0"/>
        <pt x="1165" y="737" on="0"/>
        <pt x="1214" y="739" on="1"/>
        <pt x="1214" y="780" on="1"/>
        <pt x="1214" y="835" on="0"/>
        <pt x="1186" y="914" on="0"/>
        <pt x="1136" y="966" on="0"/>
        <pt x="1065" y="991" on="0"/>
        <pt x="1022" y="991" on="1"/>
        <pt x="992" y="991" on="0"/>
        <pt x="934" y="982" on="0"/>
        <pt x="872" y="959" on="0"/>
        <pt x="804" y="920" on="0"/>
        <pt x="764" y="889" on="1"/>
        <pt x="756" y="893" on="1"/>
        <pt x="811" y="1010" on="1"/>
        <pt x="867" y="1034" on="0"/>
        <pt x="971" y="1053" on="0"/>
        <pt x="1034" y="1053" on="1"/>
        <pt x="1120" y="1053" on="0"/>
        <pt x="1243" y="1010" on="0"/>
        <pt x="1321" y="937" on="0"/>
        <pt x="1358" y="838" on="0"/>
        <pt x="1358" y="782" on="1"/>
        <pt x="1358" y="352" on="1"/>
        <pt x="1358" y="304" on="0"/>
        <pt x="1422" y="250" on="0"/>
        <pt x="1475" y="250" on="1"/>
        <pt x="1540" y="250" on="0"/>
        <pt x="1656" y="326" on="0"/>
        <pt x="1743" y="460" on="0"/>
        <pt x="1794" y="644" on="0"/>
        <pt x="1794" y="752" on="1"/>
        <pt x="1794" y="891" on="0"/>
        <pt x="1691" y="1124" on="0"/>
        <pt x="1506" y="1291" on="0"/>
        <pt x="1251" y="1384" on="0"/>
        <pt x="1098" y="1384" on="1"/>
        <pt x="918" y="1384" on="0"/>
        <pt x="620" y="1262" on="0"/>
        <pt x="405" y="1043" on="0"/>
        <pt x="287" y="742" on="0"/>
        <pt x="287" y="563" on="1"/>
        <pt x="287" y="394" on="0"/>
        <pt x="408" y="118" on="0"/>
        <pt x="624" y="-79" on="0"/>
        <pt x="921" y="-186" on="0"/>
        <pt x="1098" y="-186" on="1"/>
        <pt x="1175" y="-186" on="0"/>
        <pt x="1327" y="-164" on="0"/>
        <pt x="1477" y="-115" on="0"/>
        <pt x="1624" y="-35" on="0"/>
        <pt x="1696" y="23" on="1"/>
        <pt x="1745" y="-35" on="1"/>
        <pt x="1595" y="-147" on="0"/>
        <pt x="1269" y="-260" on="0"/>
        <pt x="1092" y="-260" on="1"/>
        <pt x="873" y="-260" on="0"/>
        <pt x="519" y="-132" on="0"/>
        <pt x="268" y="93" on="0"/>
        <pt x="133" y="402" on="0"/>
        <pt x="133" y="584" on="1"/>
        <pt x="133" y="701" on="0"/>
        <pt x="199" y="922" on="0"/>
        <pt x="321" y="1116" on="0"/>
        <pt x="493" y="1278" on="0"/>
        <pt x="707" y="1394" on="0"/>
        <pt x="956" y="1458" on="0"/>
        <pt x="1094" y="1458" on="1"/>
        <pt x="1269" y="1458" on="0"/>
        <pt x="1559" y="1354" on="0"/>
        <pt x="1766" y="1165" on="0"/>
        <pt x="1880" y="901" on="0"/>
        <pt x="1880" y="741" on="1"/>
        <pt x="1880" y="628" on="0"/>
        <pt x="1818" y="423" on="0"/>
        <pt x="1707" y="267" on="0"/>
        <pt x="1553" y="174" on="0"/>
        <pt x="1460" y="174" on="1"/>
        <pt x="1374" y="174" on="0"/>
        <pt x="1263" y="238" on="0"/>
        <pt x="1241" y="283" on="1"/>
        <pt x="1223" y="266" on="0"/>
        <pt x="1167" y="228" on="0"/>
        <pt x="1097" y="197" on="0"/>
        <pt x="1014" y="176" on="0"/>
        <pt x="969" y="176" on="1"/>
        <pt x="825" y="176" on="0"/>
        <pt x="668" y="310" on="0"/>
      </contour>
      <contour>
        <pt x="1214" y="674" on="1"/>
        <pt x="1139" y="673" on="0"/>
        <pt x="1001" y="657" on="0"/>
        <pt x="894" y="608" on="0"/>
        <pt x="831" y="516" on="0"/>
        <pt x="831" y="440" on="1"/>
        <pt x="831" y="344" on="0"/>
        <pt x="929" y="242" on="0"/>
        <pt x="1014" y="242" on="1"/>
        <pt x="1054" y="242" on="0"/>
        <pt x="1119" y="264" on="0"/>
        <pt x="1169" y="297" on="0"/>
        <pt x="1204" y="338" on="0"/>
        <pt x="1214" y="356" on="1"/>
      </contour>
    </TTGlyph>
    <TTGlyph name="atilde" xMin="-10" yMin="0" xMax="1161" yMax="1444">
      <component glyphName="a" x="0" y="0" flags="0x204"/>
      <component glyphName="tilde" x="68" y="33" flags="0x4"/>
    </TTGlyph>
    <TTGlyph name="b" xMin="131" yMin="-12" xMax="901" yMax="1083">
      <contour>
        <pt x="467" y="526" on="1"/>
        <pt x="419" y="526" on="0"/>
        <pt x="352" y="519" on="0"/>
        <pt x="334" y="516" on="1"/>
        <pt x="334" y="412" on="1"/>
        <pt x="334" y="326" on="0"/>
        <pt x="335" y="210" on="0"/>
        <pt x="338" y="132" on="0"/>
        <pt x="340" y="85" on="0"/>
        <pt x="342" y="68" on="1"/>
        <pt x="368" y="61" on="0"/>
        <pt x="427" y="57" on="0"/>
        <pt x="444" y="57" on="1"/>
        <pt x="582" y="57" on="0"/>
        <pt x="707" y="178" on="0"/>
        <pt x="707" y="305" on="1"/>
        <pt x="707" y="353" on="0"/>
        <pt x="677" y="435" on="0"/>
        <pt x="617" y="493" on="0"/>
        <pt x="527" y="526" on="0"/>
      </contour>
      <contour>
        <pt x="334" y="594" on="1"/>
        <pt x="354" y="591" on="0"/>
        <pt x="386" y="590" on="0"/>
        <pt x="403" y="590" on="1"/>
        <pt x="504" y="590" on="0"/>
        <pt x="623" y="702" on="0"/>
        <pt x="623" y="813" on="1"/>
        <pt x="623" y="858" on="0"/>
        <pt x="599" y="934" on="0"/>
        <pt x="554" y="988" on="0"/>
        <pt x="487" y="1018" on="0"/>
        <pt x="444" y="1018" on="1"/>
        <pt x="415" y="1018" on="0"/>
        <pt x="375" y="1013" on="0"/>
        <pt x="361" y="1011" on="1"/>
        <pt x="345" y="1007" on="0"/>
        <pt x="334" y="1004" on="1"/>
      </contour>
      <contour>
        <pt x="131" y="1077" on="1"/>
        <pt x="150" y="1076" on="0"/>
        <pt x="170" y="1076" on="1"/>
        <pt x="187" y="1075" on="0"/>
        <pt x="227" y="1075" on="0"/>
        <pt x="246" y="1075" on="1"/>
        <pt x="277" y="1075" on="0"/>
        <pt x="387" y="1083" on="0"/>
        <pt x="469" y="1083" on="1"/>
        <pt x="542" y="1083" on="0"/>
        <pt x="667" y="1048" on="0"/>
        <pt x="758" y="982" on="0"/>
        <pt x="809" y="886" on="0"/>
        <pt x="809" y="825" on="1"/>
        <pt x="809" y="773" on="0"/>
        <pt x="780" y="692" on="0"/>
        <pt x="726" y="631" on="0"/>
        <pt x="650" y="590" on="0"/>
        <pt x="604" y="578" on="1"/>
        <pt x="671" y="568" on="0"/>
        <pt x="781" y="522" on="0"/>
        <pt x="859" y="453" on="0"/>
        <pt x="901" y="360" on="0"/>
        <pt x="901" y="303" on="1"/>
        <pt x="901" y="145" on="0"/>
        <pt x="675" y="-12" on="0"/>
        <pt x="451" y="-12" on="1"/>
        <pt x="427" y="-12" on="0"/>
        <pt x="356" y="-8" on="0"/>
        <pt x="279" y="-4" on="0"/>
        <pt x="208" y="0" on="0"/>
        <pt x="184" y="0" on="1"/>
        <pt x="131" y="0" on="1"/>
        <pt x="131" y="4" on="1"/>
        <pt x="138" y="25" on="0"/>
        <pt x="149" y="91" on="0"/>
        <pt x="156" y="188" on="0"/>
        <pt x="160" y="322" on="0"/>
        <pt x="160" y="412" on="1"/>
        <pt x="160" y="664" on="1"/>
        <pt x="160" y="754" on="0"/>
        <pt x="156" y="888" on="0"/>
        <pt x="149" y="986" on="0"/>
        <pt x="138" y="1052" on="0"/>
        <pt x="131" y="1073" on="1"/>
      </contour>
    </TTGlyph>
    <TTGlyph name="backslash" xMin="20" yMin="-109" xMax="872" yMax="1550">
      <contour>
        <pt x="872" y="-63" on="1"/>
        <pt x="780" y="-109" on="1"/>
        <pt x="20" y="1505" on="1"/>
        <pt x="113" y="1550" on="1"/>
      </contour>
    </TTGlyph>
    <TTGlyph name="bar" xMin="459" yMin="-483" xMax="565" yMax="1565">
      <contour>
        <pt x="459" y="1565" on="1"/>
        <pt x="565" y="1565" on="1"/>
        <pt x="565" y="-483" on="1"/>
        <pt x="459" y="-483" on="1"/>
      </contour>
    </TTGlyph>
    <TTGlyph name="braceleft" xMin="80" yMin="-254" xMax="549" yMax="1495">
      <contour>
        <pt x="250" y="418" on="1"/>
        <pt x="250" y="455" on="0"/>
        <pt x="233" y="518" on="0"/>
        <pt x="193" y="566" on="0"/>
        <pt x="128" y="596" on="0"/>
        <pt x="80" y="600" on="1"/>
        <pt x="80" y="641" on="1"/>
        <pt x="128" y="645" on="0"/>
        <pt x="193" y="675" on="0"/>
        <pt x="233" y="723" on="0"/>
        <pt x="250" y="786" on="0"/>
        <pt x="250" y="823" on="1"/>
        <pt x="250" y="859" on="0"/>
        <pt x="237" y="958" on="0"/>
        <pt x="222" y="1067" on="0"/>
        <pt x="209" y="1177" on="0"/>
        <pt x="209" y="1223" on="1"/>
        <pt x="209" y="1301" on="0"/>
        <pt x="259" y="1406" on="0"/>
        <pt x="346" y="1469" on="0"/>
        <pt x="466" y="1495" on="0"/>
        <pt x="535" y="1495" on="1"/>
        <pt x="549" y="1458" on="1"/>
        <pt x="516" y="1458" on="0"/>
        <pt x="442" y="1452" on="0"/>
        <pt x="381" y="1414" on="0"/>
        <pt x="340" y="1332" on="0"/>
        <pt x="340" y="1257" on="1"/>
        <pt x="340" y="1216" on="0"/>
        <pt x="351" y="1115" on="0"/>
        <pt x="364" y="1006" on="0"/>
        <pt x="375" y="895" on="0"/>
        <pt x="375" y="844" on="1"/>
        <pt x="375" y="789" on="0"/>
        <pt x="344" y="713" on="0"/>
        <pt x="290" y="662" on="0"/>
        <pt x="219" y="631" on="0"/>
        <pt x="180" y="621" on="1"/>
        <pt x="219" y="611" on="0"/>
        <pt x="290" y="579" on="0"/>
        <pt x="344" y="527" on="0"/>
        <pt x="375" y="451" on="0"/>
        <pt x="375" y="397" on="1"/>
        <pt x="375" y="346" on="0"/>
        <pt x="364" y="235" on="0"/>
        <pt x="351" y="126" on="0"/>
        <pt x="340" y="25" on="0"/>
        <pt x="340" y="-16" on="1"/>
        <pt x="340" y="-91" on="0"/>
        <pt x="381" y="-173" on="0"/>
        <pt x="442" y="-211" on="0"/>
        <pt x="516" y="-217" on="0"/>
        <pt x="549" y="-217" on="1"/>
        <pt x="535" y="-254" on="1"/>
        <pt x="466" y="-254" on="0"/>
        <pt x="346" y="-228" on="0"/>
        <pt x="259" y="-165" on="0"/>
        <pt x="209" y="-60" on="0"/>
        <pt x="209" y="18" on="1"/>
        <pt x="209" y="64" on="0"/>
        <pt x="222" y="174" on="0"/>
        <pt x="237" y="284" on="0"/>
        <pt x="250" y="383" on="0"/>
      </contour>
    </TTGlyph>
    <TTGlyph name="braceright" xMin="88" yMin="-254" xMax="557" yMax="1495">
      <contour>
        <pt x="387" y="823" on="1"/>
        <pt x="387" y="786" on="0"/>
        <pt x="404" y="723" on="0"/>
        <pt x="444" y="675" on="0"/>
        <pt x="509" y="645" on="0"/>
        <pt x="557" y="641" on="1"/>
        <pt x="557" y="600" on="1"/>
        <pt x="509" y="596" on="0"/>
        <pt x="444" y="566" on="0"/>
        <pt x="404" y="518" on="0"/>
        <pt x="387" y="455" on="0"/>
        <pt x="387" y="418" on="1"/>
        <pt x="387" y="383" on="0"/>
        <pt x="400" y="284" on="0"/>
        <pt x="415" y="174" on="0"/>
        <pt x="428" y="64" on="0"/>
        <pt x="428" y="18" on="1"/>
        <pt x="428" y="-60" on="0"/>
        <pt x="378" y="-165" on="0"/>
        <pt x="291" y="-228" on="0"/>
        <pt x="171" y="-254" on="0"/>
        <pt x="102" y="-254" on="1"/>
        <pt x="88" y="-217" on="1"/>
        <pt x="121" y="-217" on="0"/>
        <pt x="195" y="-211" on="0"/>
        <pt x="256" y="-173" on="0"/>
        <pt x="297" y="-91" on="0"/>
        <pt x="297" y="-16" on="1"/>
        <pt x="297" y="25" on="0"/>
        <pt x="286" y="126" on="0"/>
        <pt x="273" y="235" on="0"/>
        <pt x="262" y="346" on="0"/>
        <pt x="262" y="397" on="1"/>
        <pt x="262" y="452" on="0"/>
        <pt x="293" y="528" on="0"/>
        <pt x="347" y="579" on="0"/>
        <pt x="418" y="611" on="0"/>
        <pt x="457" y="621" on="1"/>
        <pt x="418" y="631" on="0"/>
        <pt x="347" y="662" on="0"/>
        <pt x="293" y="714" on="0"/>
        <pt x="262" y="790" on="0"/>
        <pt x="262" y="844" on="1"/>
        <pt x="262" y="895" on="0"/>
        <pt x="273" y="1006" on="0"/>
        <pt x="286" y="1115" on="0"/>
        <pt x="297" y="1216" on="0"/>
        <pt x="297" y="1257" on="1"/>
        <pt x="297" y="1332" on="0"/>
        <pt x="256" y="1414" on="0"/>
        <pt x="195" y="1452" on="0"/>
        <pt x="121" y="1458" on="0"/>
        <pt x="88" y="1458" on="1"/>
        <pt x="102" y="1495" on="1"/>
        <pt x="171" y="1495" on="0"/>
        <pt x="291" y="1469" on="0"/>
        <pt x="378" y="1406" on="0"/>
        <pt x="428" y="1301" on="0"/>
        <pt x="428" y="1223" on="1"/>
        <pt x="428" y="1177" on="0"/>
        <pt x="415" y="1067" on="0"/>
        <pt x="400" y="958" on="0"/>
        <pt x="387" y="859" on="0"/>
      </contour>
    </TTGlyph>
    <TTGlyph name="bracketleft" xMin="152" yMin="-264" xMax="637" yMax="1511">
      <contour>
        <pt x="152" y="-252" on="1"/>
        <pt x="158" y="-231" on="0"/>
        <pt x="168" y="-169" on="0"/>
        <pt x="176" y="-77" on="0"/>
        <pt x="180" y="50" on="0"/>
        <pt x="180" y="135" on="1"/>
        <pt x="180" y="1104" on="1"/>
        <pt x="180" y="1189" on="0"/>
        <pt x="176" y="1316" on="0"/>
        <pt x="168" y="1408" on="0"/>
        <pt x="158" y="1470" on="0"/>
        <pt x="152" y="1491" on="1"/>
        <pt x="152" y="1495" on="1"/>
        <pt x="180" y="1495" on="1"/>
        <pt x="264" y="1495" on="0"/>
        <pt x="387" y="1496" on="0"/>
        <pt x="477" y="1497" on="0"/>
        <pt x="540" y="1500" on="0"/>
        <pt x="585" y="1503" on="0"/>
        <pt x="620" y="1508" on="0"/>
        <pt x="637" y="1511" on="1"/>
        <pt x="588" y="1378" on="1"/>
        <pt x="557" y="1387" on="0"/>
        <pt x="516" y="1394" on="1"/>
        <pt x="481" y="1400" on="0"/>
        <pt x="379" y="1410" on="0"/>
        <pt x="313" y="1411" on="1"/>
        <pt x="313" y="-172" on="1"/>
        <pt x="376" y="-171" on="0"/>
        <pt x="466" y="-167" on="0"/>
        <pt x="530" y="-161" on="0"/>
        <pt x="571" y="-153" on="0"/>
        <pt x="600" y="-144" on="0"/>
        <pt x="620" y="-134" on="0"/>
        <pt x="631" y="-129" on="1"/>
        <pt x="608" y="-264" on="1"/>
        <pt x="596" y="-263" on="0"/>
        <pt x="548" y="-261" on="0"/>
        <pt x="489" y="-259" on="0"/>
        <pt x="424" y="-258" on="0"/>
        <pt x="366" y="-257" on="0"/>
        <pt x="321" y="-256" on="0"/>
        <pt x="311" y="-256" on="1"/>
        <pt x="152" y="-256" on="1"/>
      </contour>
    </TTGlyph>
    <TTGlyph name="bracketright" xMin="0" yMin="-264" xMax="485" yMax="1511">
      <contour>
        <pt x="485" y="1495" on="1"/>
        <pt x="485" y="1491" on="1"/>
        <pt x="479" y="1470" on="0"/>
        <pt x="469" y="1408" on="0"/>
        <pt x="461" y="1316" on="0"/>
        <pt x="457" y="1189" on="0"/>
        <pt x="457" y="1104" on="1"/>
        <pt x="457" y="135" on="1"/>
        <pt x="457" y="50" on="0"/>
        <pt x="461" y="-77" on="0"/>
        <pt x="469" y="-169" on="0"/>
        <pt x="479" y="-231" on="0"/>
        <pt x="485" y="-252" on="1"/>
        <pt x="485" y="-256" on="1"/>
        <pt x="326" y="-256" on="1"/>
        <pt x="316" y="-256" on="0"/>
        <pt x="266" y="-257" on="0"/>
        <pt x="202" y="-258" on="0"/>
        <pt x="130" y="-259" on="0"/>
        <pt x="64" y="-261" on="0"/>
        <pt x="12" y="-263" on="0"/>
        <pt x="0" y="-264" on="1"/>
        <pt x="41" y="-129" on="1"/>
        <pt x="57" y="-138" on="0"/>
        <pt x="95" y="-152" on="0"/>
        <pt x="157" y="-163" on="0"/>
        <pt x="252" y="-171" on="0"/>
        <pt x="324" y="-172" on="1"/>
        <pt x="324" y="1411" on="1"/>
        <pt x="255" y="1410" on="0"/>
        <pt x="138" y="1400" on="0"/>
        <pt x="94" y="1394" on="1"/>
        <pt x="43" y="1387" on="0"/>
        <pt x="0" y="1378" on="1"/>
        <pt x="41" y="1511" on="1"/>
        <pt x="62" y="1507" on="0"/>
        <pt x="98" y="1501" on="0"/>
        <pt x="155" y="1497" on="0"/>
        <pt x="247" y="1495" on="0"/>
        <pt x="324" y="1495" on="1"/>
      </contour>
    </TTGlyph>
    <TTGlyph name="breve" xMin="197" yMin="1186" xMax="827" yMax="1509">
      <contour>
        <pt x="512" y="1186" on="1"/>
        <pt x="445" y="1186" on="0"/>
        <pt x="344" y="1232" on="0"/>
        <pt x="268" y="1315" on="0"/>
        <pt x="215" y="1430" on="0"/>
        <pt x="197" y="1499" on="1"/>
        <pt x="236" y="1509" on="1"/>
        <pt x="247" y="1479" on="0"/>
        <pt x="282" y="1412" on="0"/>
        <pt x="344" y="1355" on="0"/>
        <pt x="440" y="1317" on="0"/>
        <pt x="512" y="1317" on="1"/>
        <pt x="584" y="1317" on="0"/>
        <pt x="680" y="1355" on="0"/>
        <pt x="742" y="1412" on="0"/>
        <pt x="777" y="1479" on="0"/>
        <pt x="788" y="1509" on="1"/>
        <pt x="827" y="1499" on="1"/>
        <pt x="809" y="1430" on="0"/>
        <pt x="756" y="1315" on="0"/>
        <pt x="680" y="1232" on="0"/>
        <pt x="579" y="1186" on="0"/>
      </contour>
    </TTGlyph>
    <TTGlyph name="brokenbar" xMin="459" yMin="-350" xMax="565" yMax="1432">
      <contour>
        <pt x="459" y="408" on="1"/>
        <pt x="565" y="408" on="1"/>
        <pt x="565" y="-350" on="1"/>
        <pt x="459" y="-350" on="1"/>
      </contour>
      <contour>
        <pt x="459" y="1432" on="1"/>
        <pt x="565" y="1432" on="1"/>
        <pt x="565" y="674" on="1"/>
        <pt x="459" y="674" on="1"/>
      </contour>
    </TTGlyph>
    <TTGlyph name="bullet" xMin="307" yMin="506" xMax="825" yMax="1024">
      <contour>
        <pt x="307" y="766" on="1"/>
        <pt x="307" y="820" on="0"/>
        <pt x="349" y="914" on="0"/>
        <pt x="420" y="984" on="0"/>
        <pt x="514" y="1024" on="0"/>
        <pt x="567" y="1024" on="1"/>
        <pt x="619" y="1024" on="0"/>
        <pt x="713" y="982" on="0"/>
        <pt x="784" y="912" on="0"/>
        <pt x="825" y="818" on="0"/>
        <pt x="825" y="766" on="1"/>
        <pt x="825" y="714" on="0"/>
        <pt x="785" y="620" on="0"/>
        <pt x="715" y="548" on="0"/>
        <pt x="620" y="506" on="0"/>
        <pt x="565" y="506" on="1"/>
        <pt x="511" y="506" on="0"/>
        <pt x="416" y="548" on="0"/>
        <pt x="347" y="619" on="0"/>
        <pt x="307" y="713" on="0"/>
      </contour>
    </TTGlyph>
    <TTGlyph name="c" xMin="74" yMin="-18" xMax="1034" yMax="1094">
      <contour>
        <pt x="1034" y="223" on="1"/>
        <pt x="956" y="37" on="1"/>
        <pt x="927" y="24" on="0"/>
        <pt x="854" y="3" on="0"/>
        <pt x="776" y="-11" on="0"/>
        <pt x="695" y="-18" on="0"/>
        <pt x="659" y="-18" on="1"/>
        <pt x="533" y="-18" on="0"/>
        <pt x="318" y="56" on="0"/>
        <pt x="162" y="199" on="0"/>
        <pt x="74" y="407" on="0"/>
        <pt x="74" y="541" on="1"/>
        <pt x="74" y="659" on="0"/>
        <pt x="166" y="861" on="0"/>
        <pt x="328" y="1010" on="0"/>
        <pt x="549" y="1094" on="0"/>
        <pt x="678" y="1094" on="1"/>
        <pt x="707" y="1094" on="0"/>
        <pt x="772" y="1089" on="0"/>
        <pt x="836" y="1079" on="0"/>
        <pt x="896" y="1066" on="0"/>
        <pt x="922" y="1059" on="1"/>
        <pt x="997" y="879" on="1"/>
        <pt x="985" y="872" on="1"/>
        <pt x="958" y="905" on="0"/>
        <pt x="883" y="961" on="0"/>
        <pt x="794" y="1000" on="0"/>
        <pt x="696" y="1022" on="0"/>
        <pt x="645" y="1022" on="1"/>
        <pt x="562" y="1022" on="0"/>
        <pt x="425" y="964" on="0"/>
        <pt x="328" y="853" on="0"/>
        <pt x="274" y="693" on="0"/>
        <pt x="274" y="592" on="1"/>
        <pt x="274" y="478" on="0"/>
        <pt x="326" y="281" on="0"/>
        <pt x="430" y="136" on="0"/>
        <pt x="586" y="53" on="0"/>
        <pt x="690" y="53" on="1"/>
        <pt x="740" y="53" on="0"/>
        <pt x="837" y="78" on="0"/>
        <pt x="924" y="124" on="0"/>
        <pt x="996" y="189" on="0"/>
        <pt x="1022" y="229" on="1"/>
      </contour>
    </TTGlyph>
    <TTGlyph name="cacute" xMin="74" yMin="-18" xMax="1034" yMax="1510">
      <component glyphName="c" x="0" y="0" flags="0x204"/>
      <component glyphName="acute" x="168" y="33" flags="0x4"/>
    </TTGlyph>
    <TTGlyph name="caron" xMin="143" yMin="1145" xMax="881" yMax="1477">
      <contour>
        <pt x="512" y="1145" on="1"/>
        <pt x="454" y="1197" on="0"/>
        <pt x="392" y="1249" on="1"/>
        <pt x="338" y="1294" on="0"/>
        <pt x="208" y="1396" on="0"/>
        <pt x="143" y="1440" on="1"/>
        <pt x="166" y="1477" on="1"/>
        <pt x="210" y="1454" on="0"/>
        <pt x="304" y="1409" on="0"/>
        <pt x="395" y="1368" on="0"/>
        <pt x="478" y="1333" on="0"/>
        <pt x="512" y="1321" on="1"/>
        <pt x="546" y="1333" on="0"/>
        <pt x="630" y="1369" on="0"/>
        <pt x="721" y="1410" on="0"/>
        <pt x="815" y="1455" on="0"/>
        <pt x="858" y="1477" on="1"/>
        <pt x="881" y="1440" on="1"/>
        <pt x="816" y="1396" on="0"/>
        <pt x="686" y="1294" on="0"/>
        <pt x="632" y="1249" on="1"/>
        <pt x="570" y="1197" on="0"/>
      </contour>
    </TTGlyph>
    <TTGlyph name="ccaron" xMin="74" yMin="-18" xMax="1049" yMax="1510">
      <component glyphName="c" x="0" y="0" flags="0x204"/>
      <component glyphName="caron" x="168" y="33" flags="0x4"/>
    </TTGlyph>
    <TTGlyph name="ccedilla" xMin="74" yMin="-457" xMax="1034" yMax="1094">
      <contour>
        <pt x="868" y="-285" on="1"/>
        <pt x="868" y="-324" on="0"/>
        <pt x="830" y="-388" on="0"/>
        <pt x="763" y="-433" on="0"/>
        <pt x="671" y="-457" on="0"/>
        <pt x="618" y="-457" on="1"/>
        <pt x="557" y="-457" on="0"/>
        <pt x="448" y="-430" on="0"/>
        <pt x="401" y="-406" on="1"/>
        <pt x="420" y="-360" on="1"/>
        <pt x="433" y="-366" on="0"/>
        <pt x="465" y="-381" on="0"/>
        <pt x="504" y="-393" on="0"/>
        <pt x="553" y="-401" on="0"/>
        <pt x="584" y="-401" on="1"/>
        <pt x="650" y="-401" on="0"/>
        <pt x="733" y="-337" on="0"/>
        <pt x="733" y="-285" on="1"/>
        <pt x="733" y="-228" on="0"/>
        <pt x="655" y="-174" on="0"/>
        <pt x="598" y="-174" on="1"/>
        <pt x="589" y="-174" on="0"/>
        <pt x="559" y="-176" on="0"/>
        <pt x="551" y="-178" on="1"/>
        <pt x="610" y="-16" on="1"/>
        <pt x="493" y="-10" on="0"/>
        <pt x="296" y="70" on="0"/>
        <pt x="153" y="212" on="0"/>
        <pt x="74" y="413" on="0"/>
        <pt x="74" y="541" on="1"/>
        <pt x="74" y="659" on="0"/>
        <pt x="166" y="861" on="0"/>
        <pt x="328" y="1010" on="0"/>
        <pt x="549" y="1094" on="0"/>
        <pt x="678" y="1094" on="1"/>
        <pt x="707" y="1094" on="0"/>
        <pt x="772" y="1089" on="0"/>
        <pt x="836" y="1079" on="0"/>
        <pt x="896" y="1066" on="0"/>
        <pt x="922" y="1059" on="1"/>
        <pt x="997" y="879" on="1"/>
        <pt x="985" y="872" on="1"/>
        <pt x="958" y="905" on="0"/>
        <pt x="883" y="961" on="0"/>
        <pt x="794" y="1000" on="0"/>
        <pt x="696" y="1022" on="0"/>
        <pt x="645" y="1022" on="1"/>
        <pt x="562" y="1022" on="0"/>
        <pt x="425" y="964" on="0"/>
        <pt x="328" y="853" on="0"/>
        <pt x="274" y="693" on="0"/>
        <pt x="274" y="592" on="1"/>
        <pt x="274" y="478" on="0"/>
        <pt x="326" y="281" on="0"/>
        <pt x="430" y="136" on="0"/>
        <pt x="586" y="53" on="0"/>
        <pt x="690" y="53" on="1"/>
        <pt x="740" y="53" on="0"/>
        <pt x="837" y="78" on="0"/>
        <pt x="924" y="124" on="0"/>
        <pt x="996" y="189" on="0"/>
        <pt x="1022" y="229" on="1"/>
        <pt x="1034" y="223" on="1"/>
        <pt x="956" y="37" on="1"/>
        <pt x="927" y="24" on="0"/>
        <pt x="854" y="3" on="0"/>
        <pt x="776" y="-11" on="0"/>
        <pt x="695" y="-18" on="0"/>
        <pt x="659" y="-18" on="1"/>
        <pt x="653" y="-18" on="1"/>
        <pt x="614" y="-129" on="1"/>
        <pt x="627" y="-127" on="0"/>
        <pt x="650" y="-125" on="0"/>
        <pt x="664" y="-125" on="1"/>
        <pt x="720" y="-125" on="0"/>
        <pt x="798" y="-154" on="0"/>
        <pt x="846" y="-199" on="0"/>
        <pt x="868" y="-257" on="0"/>
      </contour>
    </TTGlyph>
    <TTGlyph name="ccircumflex" xMin="74" yMin="-18" xMax="1049" yMax="1510">
      <component glyphName="c" x="0" y="0" flags="0x204"/>
      <component glyphName="circumflex" x="168" y="33" flags="0x4"/>
    </TTGlyph>
    <TTGlyph name="cdotaccent" xMin="74" yMin="-18" xMax="1034" yMax="1448">
      <component glyphName="c" x="0" y="0" flags="0x204"/>
      <component glyphName="dotaccent" x="168" y="33" flags="0x4"/>
    </TTGlyph>
    <TTGlyph name="cedilla" xMin="274" yMin="-457" xMax="741" yMax="0">
      <contour>
        <pt x="741" y="-285" on="1"/>
        <pt x="741" y="-324" on="0"/>
        <pt x="703" y="-388" on="0"/>
        <pt x="636" y="-433" on="0"/>
        <pt x="545" y="-457" on="0"/>
        <pt x="492" y="-457" on="1"/>
        <pt x="430" y="-457" on="0"/>
        <pt x="321" y="-430" on="0"/>
        <pt x="274" y="-406" on="1"/>
        <pt x="293" y="-360" on="1"/>
        <pt x="306" y="-366" on="0"/>
        <pt x="338" y="-381" on="0"/>
        <pt x="377" y="-393" on="0"/>
        <pt x="426" y="-401" on="0"/>
        <pt x="457" y="-401" on="1"/>
        <pt x="523" y="-401" on="0"/>
        <pt x="606" y="-337" on="0"/>
        <pt x="606" y="-285" on="1"/>
        <pt x="606" y="-228" on="0"/>
        <pt x="528" y="-174" on="0"/>
        <pt x="471" y="-174" on="1"/>
        <pt x="462" y="-174" on="0"/>
        <pt x="432" y="-176" on="0"/>
        <pt x="424" y="-178" on="1"/>
        <pt x="489" y="0" on="1"/>
        <pt x="535" y="0" on="1"/>
        <pt x="487" y="-129" on="1"/>
        <pt x="500" y="-127" on="0"/>
        <pt x="523" y="-125" on="0"/>
        <pt x="537" y="-125" on="1"/>
        <pt x="593" y="-125" on="0"/>
        <pt x="671" y="-154" on="0"/>
        <pt x="719" y="-199" on="0"/>
        <pt x="741" y="-257" on="0"/>
      </contour>
    </TTGlyph>
    <TTGlyph name="cent" xMin="82" yMin="-141" xMax="895" yMax="1266">
      <contour>
        <pt x="532" y="102" on="1"/>
        <pt x="434" y="108" on="0"/>
        <pt x="269" y="177" on="0"/>
        <pt x="149" y="297" on="0"/>
        <pt x="82" y="466" on="0"/>
        <pt x="82" y="573" on="1"/>
        <pt x="82" y="667" on="0"/>
        <pt x="149" y="831" on="0"/>
        <pt x="269" y="955" on="0"/>
        <pt x="434" y="1032" on="0"/>
        <pt x="532" y="1040" on="1"/>
        <pt x="532" y="1266" on="1"/>
        <pt x="594" y="1266" on="1"/>
        <pt x="594" y="1042" on="1"/>
        <pt x="642" y="1040" on="0"/>
        <pt x="746" y="1022" on="0"/>
        <pt x="788" y="1008" on="1"/>
        <pt x="860" y="838" on="1"/>
        <pt x="848" y="831" on="1"/>
        <pt x="828" y="860" on="0"/>
        <pt x="772" y="910" on="0"/>
        <pt x="705" y="946" on="0"/>
        <pt x="631" y="967" on="0"/>
        <pt x="594" y="969" on="1"/>
        <pt x="594" y="176" on="1"/>
        <pt x="618" y="176" on="1"/>
        <pt x="658" y="176" on="0"/>
        <pt x="736" y="199" on="0"/>
        <pt x="805" y="242" on="0"/>
        <pt x="863" y="302" on="0"/>
        <pt x="883" y="340" on="1"/>
        <pt x="895" y="334" on="1"/>
        <pt x="821" y="156" on="1"/>
        <pt x="798" y="144" on="0"/>
        <pt x="742" y="125" on="0"/>
        <pt x="682" y="111" on="0"/>
        <pt x="622" y="103" on="0"/>
        <pt x="594" y="102" on="1"/>
        <pt x="594" y="-141" on="1"/>
        <pt x="532" y="-141" on="1"/>
      </contour>
      <contour>
        <pt x="274" y="616" on="1"/>
        <pt x="274" y="535" on="0"/>
        <pt x="306" y="391" on="0"/>
        <pt x="371" y="278" on="0"/>
        <pt x="467" y="200" on="0"/>
        <pt x="532" y="184" on="1"/>
        <pt x="532" y="965" on="1"/>
        <pt x="474" y="957" on="0"/>
        <pt x="379" y="903" on="0"/>
        <pt x="311" y="814" on="0"/>
        <pt x="274" y="692" on="0"/>
      </contour>
    </TTGlyph>
    <TTGlyph name="circumflex" xMin="143" yMin="1145" xMax="881" yMax="1477">
      <contour>
        <pt x="512" y="1477" on="1"/>
        <pt x="570" y="1424" on="0"/>
        <pt x="632" y="1372" on="1"/>
        <pt x="686" y="1327" on="0"/>
        <pt x="816" y="1225" on="0"/>
        <pt x="881" y="1182" on="1"/>
        <pt x="858" y="1145" on="1"/>
        <pt x="815" y="1166" on="0"/>
        <pt x="721" y="1211" on="0"/>
        <pt x="630" y="1253" on="0"/>
        <pt x="546" y="1288" on="0"/>
        <pt x="512" y="1300" on="1"/>
        <pt x="478" y="1288" on="0"/>
        <pt x="395" y="1253" on="0"/>
        <pt x="304" y="1212" on="0"/>
        <pt x="210" y="1167" on="0"/>
        <pt x="166" y="1145" on="1"/>
        <pt x="143" y="1182" on="1"/>
        <pt x="208" y="1225" on="0"/>
        <pt x="338" y="1327" on="0"/>
        <pt x="392" y="1372" on="1"/>
        <pt x="454" y="1424" on="0"/>
      </contour>
    </TTGlyph>
    <TTGlyph name="colon" xMin="133" yMin="-20" xMax="348" yMax="809">
      <contour>
        <pt x="133" y="702" on="1"/>
        <pt x="133" y="724" on="0"/>
        <pt x="150" y="764" on="0"/>
        <pt x="178" y="792" on="0"/>
        <pt x="217" y="809" on="0"/>
        <pt x="240" y="809" on="1"/>
        <pt x="263" y="809" on="0"/>
        <pt x="302" y="792" on="0"/>
        <pt x="331" y="764" on="0"/>
        <pt x="348" y="724" on="0"/>
        <pt x="348" y="702" on="1"/>
        <pt x="348" y="656" on="0"/>
        <pt x="286" y="594" on="0"/>
        <pt x="240" y="594" on="1"/>
        <pt x="217" y="594" on="0"/>
        <pt x="178" y="611" on="0"/>
        <pt x="150" y="640" on="0"/>
        <pt x="133" y="679" on="0"/>
      </contour>
      <contour>
        <pt x="133" y="88" on="1"/>
        <pt x="133" y="110" on="0"/>
        <pt x="150" y="149" on="0"/>
        <pt x="178" y="178" on="0"/>
        <pt x="217" y="195" on="0"/>
        <pt x="240" y="195" on="1"/>
        <pt x="263" y="195" on="0"/>
        <pt x="302" y="178" on="0"/>
        <pt x="331" y="149" on="0"/>
        <pt x="348" y="110" on="0"/>
        <pt x="348" y="88" on="1"/>
        <pt x="348" y="42" on="0"/>
        <pt x="286" y="-20" on="0"/>
        <pt x="240" y="-20" on="1"/>
        <pt x="217" y="-20" on="0"/>
        <pt x="178" y="-3" on="0"/>
        <pt x="150" y="26" on="0"/>
        <pt x="133" y="65" on="0"/>
      </contour>
    </TTGlyph>
    <TTGlyph name="comma" xMin="90" yMin="-287" xMax="317" yMax="195">
      <contour>
        <pt x="102" y="88" on="1"/>
        <pt x="102" y="110" on="0"/>
        <pt x="119" y="149" on="0"/>
        <pt x="148" y="178" on="0"/>
        <pt x="187" y="195" on="0"/>
        <pt x="209" y="195" on="1"/>
        <pt x="232" y="195" on="0"/>
        <pt x="271" y="176" on="0"/>
        <pt x="300" y="143" on="0"/>
        <pt x="317" y="99" on="0"/>
        <pt x="317" y="74" on="1"/>
        <pt x="317" y="35" on="0"/>
        <pt x="282" y="-57" on="0"/>
        <pt x="225" y="-153" on="0"/>
        <pt x="154" y="-246" on="0"/>
        <pt x="117" y="-287" on="1"/>
        <pt x="90" y="-264" on="1"/>
        <pt x="140" y="-205" on="0"/>
        <pt x="200" y="-89" on="0"/>
        <pt x="205" y="-20" on="1"/>
        <pt x="161" y="-18" on="0"/>
        <pt x="102" y="42" on="0"/>
      </contour>
    </TTGlyph>
    <TTGlyph name="commaaccent" xMin="414" yMin="-512" xMax="608" yMax="-154">
      <contour>
        <pt x="414" y="-248" on="1"/>
        <pt x="414" y="-208" on="0"/>
        <pt x="470" y="-154" on="0"/>
        <pt x="512" y="-154" on="1"/>
        <pt x="552" y="-154" on="0"/>
        <pt x="608" y="-216" on="0"/>
        <pt x="608" y="-262" on="1"/>
        <pt x="608" y="-289" on="0"/>
        <pt x="586" y="-354" on="0"/>
        <pt x="550" y="-420" on="0"/>
        <pt x="504" y="-485" on="0"/>
        <pt x="479" y="-512" on="1"/>
        <pt x="453" y="-494" on="1"/>
        <pt x="506" y="-418" on="0"/>
        <pt x="512" y="-346" on="1"/>
        <pt x="470" y="-346" on="0"/>
        <pt x="414" y="-290" on="0"/>
      </contour>
    </TTGlyph>
    <TTGlyph name="copyright" xMin="164" yMin="-23" xMax="1569" yMax="1382">
      <contour>
        <pt x="164" y="680" on="1"/>
        <pt x="164" y="777" on="0"/>
        <pt x="214" y="956" on="0"/>
        <pt x="306" y="1112" on="0"/>
        <pt x="434" y="1240" on="0"/>
        <pt x="590" y="1332" on="0"/>
        <pt x="769" y="1382" on="0"/>
        <pt x="866" y="1382" on="1"/>
        <pt x="963" y="1382" on="0"/>
        <pt x="1142" y="1332" on="0"/>
        <pt x="1298" y="1240" on="0"/>
        <pt x="1427" y="1112" on="0"/>
        <pt x="1519" y="956" on="0"/>
        <pt x="1569" y="777" on="0"/>
        <pt x="1569" y="680" on="1"/>
        <pt x="1569" y="535" on="0"/>
        <pt x="1458" y="279" on="0"/>
        <pt x="1267" y="88" on="0"/>
        <pt x="1011" y="-23" on="0"/>
        <pt x="866" y="-23" on="1"/>
        <pt x="769" y="-23" on="0"/>
        <pt x="590" y="27" on="0"/>
        <pt x="434" y="119" on="0"/>
        <pt x="306" y="248" on="0"/>
        <pt x="214" y="404" on="0"/>
        <pt x="164" y="583" on="0"/>
      </contour>
      <contour>
        <pt x="1161" y="948" on="1"/>
        <pt x="1151" y="942" on="1"/>
        <pt x="1108" y="982" on="0"/>
        <pt x="993" y="1036" on="0"/>
        <pt x="922" y="1036" on="1"/>
        <pt x="853" y="1036" on="0"/>
        <pt x="739" y="993" on="0"/>
        <pt x="657" y="910" on="0"/>
        <pt x="612" y="790" on="0"/>
        <pt x="612" y="713" on="1"/>
        <pt x="612" y="627" on="0"/>
        <pt x="655" y="480" on="0"/>
        <pt x="741" y="372" on="0"/>
        <pt x="869" y="311" on="0"/>
        <pt x="954" y="311" on="1"/>
        <pt x="1017" y="311" on="0"/>
        <pt x="1133" y="370" on="0"/>
        <pt x="1174" y="420" on="1"/>
        <pt x="1186" y="414" on="1"/>
        <pt x="1139" y="289" on="1"/>
        <pt x="1097" y="267" on="0"/>
        <pt x="988" y="244" on="0"/>
        <pt x="934" y="244" on="1"/>
        <pt x="827" y="244" on="0"/>
        <pt x="649" y="306" on="0"/>
        <pt x="522" y="419" on="0"/>
        <pt x="451" y="578" on="0"/>
        <pt x="451" y="676" on="1"/>
        <pt x="451" y="758" on="0"/>
        <pt x="514" y="913" on="0"/>
        <pt x="633" y="1033" on="0"/>
        <pt x="802" y="1106" on="0"/>
        <pt x="909" y="1106" on="1"/>
        <pt x="966" y="1106" on="0"/>
        <pt x="1074" y="1083" on="0"/>
        <pt x="1122" y="1061" on="1"/>
      </contour>
      <contour>
        <pt x="260" y="680" on="1"/>
        <pt x="260" y="555" on="0"/>
        <pt x="355" y="334" on="0"/>
        <pt x="520" y="169" on="0"/>
        <pt x="741" y="74" on="0"/>
        <pt x="866" y="74" on="1"/>
        <pt x="949" y="74" on="0"/>
        <pt x="1104" y="117" on="0"/>
        <pt x="1239" y="196" on="0"/>
        <pt x="1350" y="307" on="0"/>
        <pt x="1429" y="442" on="0"/>
        <pt x="1473" y="596" on="0"/>
        <pt x="1473" y="680" on="1"/>
        <pt x="1473" y="763" on="0"/>
        <pt x="1429" y="918" on="0"/>
        <pt x="1350" y="1053" on="0"/>
        <pt x="1239" y="1164" on="0"/>
        <pt x="1104" y="1243" on="0"/>
        <pt x="949" y="1286" on="0"/>
        <pt x="866" y="1286" on="1"/>
        <pt x="741" y="1286" on="0"/>
        <pt x="520" y="1191" on="0"/>
        <pt x="355" y="1026" on="0"/>
        <pt x="260" y="805" on="0"/>
      </contour>
    </TTGlyph>
    <TTGlyph name="currency" xMin="98" yMin="362" xMax="1145" yMax="1407">
      <contour>
        <pt x="623" y="1208" on="1"/>
        <pt x="558" y="1208" on="0"/>
        <pt x="441" y="1157" on="0"/>
        <pt x="353" y="1069" on="0"/>
        <pt x="301" y="952" on="0"/>
        <pt x="301" y="887" on="1"/>
        <pt x="301" y="819" on="0"/>
        <pt x="351" y="701" on="0"/>
        <pt x="438" y="614" on="0"/>
        <pt x="556" y="563" on="0"/>
        <pt x="623" y="563" on="1"/>
        <pt x="689" y="563" on="0"/>
        <pt x="806" y="615" on="0"/>
        <pt x="893" y="704" on="0"/>
        <pt x="944" y="822" on="0"/>
        <pt x="944" y="887" on="1"/>
        <pt x="944" y="951" on="0"/>
        <pt x="894" y="1068" on="0"/>
        <pt x="808" y="1156" on="0"/>
        <pt x="690" y="1208" on="0"/>
      </contour>
      <contour>
        <pt x="158" y="1407" on="1"/>
        <pt x="362" y="1202" on="1"/>
        <pt x="425" y="1249" on="0"/>
        <pt x="551" y="1294" on="0"/>
        <pt x="621" y="1294" on="1"/>
        <pt x="761" y="1294" on="0"/>
        <pt x="883" y="1202" on="1"/>
        <pt x="1085" y="1407" on="1"/>
        <pt x="1145" y="1346" on="1"/>
        <pt x="942" y="1143" on="1"/>
        <pt x="1030" y="1027" on="0"/>
        <pt x="1030" y="885" on="1"/>
        <pt x="1030" y="739" on="0"/>
        <pt x="942" y="627" on="1"/>
        <pt x="1145" y="424" on="1"/>
        <pt x="1085" y="362" on="1"/>
        <pt x="883" y="567" on="1"/>
        <pt x="768" y="477" on="0"/>
        <pt x="621" y="477" on="1"/>
        <pt x="546" y="477" on="0"/>
        <pt x="421" y="521" on="0"/>
        <pt x="362" y="567" on="1"/>
        <pt x="158" y="362" on="1"/>
        <pt x="98" y="424" on="1"/>
        <pt x="303" y="627" on="1"/>
        <pt x="213" y="746" on="0"/>
        <pt x="213" y="885" on="1"/>
        <pt x="213" y="1024" on="0"/>
        <pt x="303" y="1143" on="1"/>
        <pt x="98" y="1346" on="1"/>
      </contour>
    </TTGlyph>
    <TTGlyph name="d" xMin="131" yMin="-12" xMax="1141" yMax="1083">
      <contour>
        <pt x="338" y="1004" on="1"/>
        <pt x="337" y="922" on="0"/>
        <pt x="336" y="845" on="1"/>
        <pt x="336" y="812" on="0"/>
        <pt x="335" y="743" on="0"/>
        <pt x="334" y="675" on="0"/>
        <pt x="334" y="614" on="0"/>
        <pt x="334" y="590" on="1"/>
        <pt x="334" y="540" on="0"/>
        <pt x="335" y="399" on="0"/>
        <pt x="337" y="251" on="0"/>
        <pt x="341" y="114" on="0"/>
        <pt x="344" y="68" on="1"/>
        <pt x="354" y="66" on="0"/>
        <pt x="386" y="63" on="0"/>
        <pt x="421" y="60" on="0"/>
        <pt x="455" y="59" on="0"/>
        <pt x="467" y="59" on="1"/>
        <pt x="522" y="59" on="0"/>
        <pt x="635" y="73" on="0"/>
        <pt x="740" y="112" on="0"/>
        <pt x="832" y="180" on="0"/>
        <pt x="901" y="287" on="0"/>
        <pt x="940" y="438" on="0"/>
        <pt x="940" y="541" on="1"/>
        <pt x="940" y="768" on="0"/>
        <pt x="723" y="1014" on="0"/>
        <pt x="508" y="1014" on="1"/>
        <pt x="487" y="1014" on="0"/>
        <pt x="440" y="1012" on="0"/>
        <pt x="394" y="1009" on="0"/>
        <pt x="353" y="1005" on="0"/>
      </contour>
      <contour>
        <pt x="131" y="1077" on="1"/>
        <pt x="155" y="1076" on="0"/>
        <pt x="176" y="1076" on="1"/>
        <pt x="194" y="1075" on="0"/>
        <pt x="228" y="1075" on="0"/>
        <pt x="236" y="1075" on="1"/>
        <pt x="250" y="1075" on="0"/>
        <pt x="322" y="1077" on="0"/>
        <pt x="413" y="1080" on="0"/>
        <pt x="514" y="1083" on="0"/>
        <pt x="557" y="1083" on="1"/>
        <pt x="674" y="1083" on="0"/>
        <pt x="886" y="1029" on="0"/>
        <pt x="1047" y="906" on="0"/>
        <pt x="1141" y="707" on="0"/>
        <pt x="1141" y="561" on="1"/>
        <pt x="1141" y="404" on="0"/>
        <pt x="1033" y="186" on="0"/>
        <pt x="849" y="49" on="0"/>
        <pt x="606" y="-12" on="0"/>
        <pt x="471" y="-12" on="1"/>
        <pt x="439" y="-12" on="0"/>
        <pt x="343" y="-8" on="0"/>
        <pt x="243" y="-4" on="0"/>
        <pt x="154" y="0" on="0"/>
        <pt x="131" y="0" on="1"/>
        <pt x="131" y="4" on="1"/>
        <pt x="138" y="25" on="0"/>
        <pt x="149" y="91" on="0"/>
        <pt x="156" y="188" on="0"/>
        <pt x="160" y="322" on="0"/>
        <pt x="160" y="412" on="1"/>
        <pt x="160" y="664" on="1"/>
        <pt x="160" y="754" on="0"/>
        <pt x="156" y="888" on="0"/>
        <pt x="149" y="986" on="0"/>
        <pt x="138" y="1052" on="0"/>
        <pt x="131" y="1073" on="1"/>
      </contour>
    </TTGlyph>
    <TTGlyph name="dagger" xMin="123" yMin="-205" xMax="901" yMax="1434">
      <contour>
        <pt x="492" y="-205" on="1"/>
        <pt x="481" y="144" on="0"/>
        <pt x="470" y="734" on="0"/>
        <pt x="467" y="954" on="1"/>
        <pt x="461" y="954" on="1"/>
        <pt x="352" y="954" on="0"/>
        <pt x="179" y="951" on="0"/>
        <pt x="123" y="948" on="1"/>
        <pt x="145" y="1028" on="1"/>
        <pt x="173" y="1027" on="0"/>
        <pt x="229" y="1026" on="0"/>
        <pt x="294" y="1025" on="0"/>
        <pt x="372" y="1024" on="0"/>
        <pt x="420" y="1024" on="1"/>
        <pt x="465" y="1024" on="1"/>
        <pt x="463" y="1200" on="0"/>
        <pt x="458" y="1411" on="0"/>
        <pt x="453" y="1430" on="1"/>
        <pt x="453" y="1434" on="1"/>
        <pt x="567" y="1434" on="1"/>
        <pt x="567" y="1430" on="1"/>
        <pt x="561" y="1411" on="0"/>
        <pt x="556" y="1200" on="0"/>
        <pt x="553" y="1024" on="1"/>
        <pt x="635" y="1025" on="0"/>
        <pt x="751" y="1028" on="0"/>
        <pt x="832" y="1032" on="0"/>
        <pt x="883" y="1037" on="0"/>
        <pt x="901" y="1040" on="1"/>
        <pt x="868" y="946" on="1"/>
        <pt x="845" y="947" on="0"/>
        <pt x="804" y="949" on="1"/>
        <pt x="768" y="951" on="0"/>
        <pt x="647" y="953" on="0"/>
        <pt x="553" y="954" on="1"/>
        <pt x="550" y="734" on="0"/>
        <pt x="539" y="144" on="0"/>
        <pt x="528" y="-205" on="1"/>
      </contour>
    </TTGlyph>
    <TTGlyph name="daggerdbl" xMin="123" yMin="-205" xMax="901" yMax="1434">
      <contour>
        <pt x="145" y="639" on="1"/>
        <pt x="173" y="638" on="0"/>
        <pt x="229" y="637" on="0"/>
        <pt x="294" y="636" on="0"/>
        <pt x="372" y="635" on="0"/>
        <pt x="420" y="635" on="1"/>
        <pt x="471" y="635" on="1"/>
        <pt x="469" y="723" on="0"/>
        <pt x="467" y="883" on="0"/>
        <pt x="467" y="954" on="1"/>
        <pt x="461" y="954" on="1"/>
        <pt x="352" y="954" on="0"/>
        <pt x="179" y="951" on="0"/>
        <pt x="123" y="948" on="1"/>
        <pt x="145" y="1028" on="1"/>
        <pt x="173" y="1027" on="0"/>
        <pt x="229" y="1026" on="0"/>
        <pt x="294" y="1025" on="0"/>
        <pt x="372" y="1024" on="0"/>
        <pt x="420" y="1024" on="1"/>
        <pt x="465" y="1024" on="1"/>
        <pt x="463" y="1200" on="0"/>
        <pt x="458" y="1411" on="0"/>
        <pt x="453" y="1430" on="1"/>
        <pt x="453" y="1434" on="1"/>
        <pt x="567" y="1434" on="1"/>
        <pt x="567" y="1430" on="1"/>
        <pt x="561" y="1411" on="0"/>
        <pt x="556" y="1200" on="0"/>
        <pt x="553" y="1024" on="1"/>
        <pt x="635" y="1025" on="0"/>
        <pt x="751" y="1028" on="0"/>
        <pt x="832" y="1032" on="0"/>
        <pt x="883" y="1037" on="0"/>
        <pt x="901" y="1040" on="1"/>
        <pt x="868" y="946" on="1"/>
        <pt x="845" y="947" on="0"/>
        <pt x="804" y="949" on="1"/>
        <pt x="768" y="951" on="0"/>
        <pt x="647" y="953" on="0"/>
        <pt x="553" y="954" on="1"/>
        <pt x="547" y="635" on="1"/>
        <pt x="631" y="636" on="0"/>
        <pt x="749" y="639" on="0"/>
        <pt x="831" y="643" on="0"/>
        <pt x="883" y="648" on="0"/>
        <pt x="901" y="651" on="1"/>
        <pt x="868" y="557" on="1"/>
        <pt x="845" y="558" on="0"/>
        <pt x="803" y="560" on="1"/>
        <pt x="766" y="562" on="0"/>
        <pt x="643" y="564" on="0"/>
        <pt x="547" y="565" on="1"/>
        <pt x="544" y="394" on="0"/>
        <pt x="535" y="9" on="0"/>
        <pt x="528" y="-205" on="1"/>
        <pt x="492" y="-205" on="1"/>
        <pt x="484" y="9" on="0"/>
        <pt x="474" y="394" on="0"/>
        <pt x="471" y="565" on="1"/>
        <pt x="461" y="565" on="1"/>
        <pt x="352" y="565" on="0"/>
        <pt x="179" y="562" on="0"/>
        <pt x="123" y="559" on="1"/>
      </contour>
    </TTGlyph>
    <TTGlyph name="dcaron" xMin="131" yMin="-12" xMax="1141" yMax="1510">
      <component glyphName="d" x="0" y="0" flags="0x204"/>
      <component glyphName="caron" x="25" y="33" flags="0x4"/>
    </TTGlyph>
    <TTGlyph name="dcroat" xMin="2" yMin="-12" xMax="1141" yMax="1083">
      <contour>
        <pt x="14" y="596" on="1"/>
        <pt x="37" y="593" on="0"/>
        <pt x="115" y="592" on="0"/>
        <pt x="160" y="592" on="1"/>
        <pt x="160" y="664" on="1"/>
        <pt x="160" y="754" on="0"/>
        <pt x="156" y="888" on="0"/>
        <pt x="149" y="986" on="0"/>
        <pt x="138" y="1052" on="0"/>
        <pt x="131" y="1073" on="1"/>
        <pt x="131" y="1077" on="1"/>
        <pt x="155" y="1076" on="0"/>
        <pt x="176" y="1076" on="1"/>
        <pt x="194" y="1075" on="0"/>
        <pt x="228" y="1075" on="0"/>
        <pt x="236" y="1075" on="1"/>
        <pt x="250" y="1075" on="0"/>
        <pt x="322" y="1077" on="0"/>
        <pt x="413" y="1080" on="0"/>
        <pt x="514" y="1083" on="0"/>
        <pt x="557" y="1083" on="1"/>
        <pt x="674" y="1083" on="0"/>
        <pt x="886" y="1029" on="0"/>
        <pt x="1047" y="906" on="0"/>
        <pt x="1141" y="707" on="0"/>
        <pt x="1141" y="561" on="1"/>
        <pt x="1141" y="404" on="0"/>
        <pt x="1033" y="186" on="0"/>
        <pt x="849" y="49" on="0"/>
        <pt x="606" y="-12" on="0"/>
        <pt x="471" y="-12" on="1"/>
        <pt x="439" y="-12" on="0"/>
        <pt x="343" y="-8" on="0"/>
        <pt x="243" y="-4" on="0"/>
        <pt x="154" y="0" on="0"/>
        <pt x="131" y="0" on="1"/>
        <pt x="131" y="4" on="1"/>
        <pt x="138" y="25" on="0"/>
        <pt x="149" y="91" on="0"/>
        <pt x="156" y="188" on="0"/>
        <pt x="160" y="322" on="0"/>
        <pt x="160" y="412" on="1"/>
        <pt x="160" y="512" on="1"/>
        <pt x="2" y="506" on="1"/>
      </contour>
      <contour>
        <pt x="338" y="1004" on="1"/>
        <pt x="337" y="923" on="0"/>
        <pt x="336" y="846" on="1"/>
        <pt x="336" y="813" on="0"/>
        <pt x="335" y="744" on="0"/>
        <pt x="334" y="677" on="0"/>
        <pt x="334" y="616" on="0"/>
        <pt x="334" y="592" on="1"/>
        <pt x="447" y="592" on="0"/>
        <pt x="569" y="600" on="0"/>
        <pt x="594" y="606" on="1"/>
        <pt x="575" y="504" on="1"/>
        <pt x="551" y="505" on="0"/>
        <pt x="516" y="507" on="1"/>
        <pt x="486" y="509" on="0"/>
        <pt x="396" y="511" on="0"/>
        <pt x="334" y="512" on="1"/>
        <pt x="334" y="459" on="0"/>
        <pt x="335" y="336" on="0"/>
        <pt x="337" y="215" on="0"/>
        <pt x="341" y="106" on="0"/>
        <pt x="344" y="68" on="1"/>
        <pt x="354" y="66" on="0"/>
        <pt x="386" y="63" on="0"/>
        <pt x="421" y="60" on="0"/>
        <pt x="455" y="59" on="0"/>
        <pt x="467" y="59" on="1"/>
        <pt x="522" y="59" on="0"/>
        <pt x="635" y="73" on="0"/>
        <pt x="740" y="112" on="0"/>
        <pt x="832" y="180" on="0"/>
        <pt x="901" y="287" on="0"/>
        <pt x="940" y="438" on="0"/>
        <pt x="940" y="541" on="1"/>
        <pt x="940" y="768" on="0"/>
        <pt x="723" y="1014" on="0"/>
        <pt x="508" y="1014" on="1"/>
        <pt x="487" y="1014" on="0"/>
        <pt x="440" y="1012" on="0"/>
        <pt x="394" y="1009" on="0"/>
        <pt x="353" y="1005" on="0"/>
      </contour>
    </TTGlyph>
    <TTGlyph name="degree" xMin="61" yMin="995" xMax="524" yMax="1458">
      <contour>
        <pt x="61" y="1227" on="1"/>
        <pt x="61" y="1275" on="0"/>
        <pt x="98" y="1359" on="0"/>
        <pt x="161" y="1422" on="0"/>
        <pt x="245" y="1458" on="0"/>
        <pt x="293" y="1458" on="1"/>
        <pt x="341" y="1458" on="0"/>
        <pt x="425" y="1422" on="0"/>
        <pt x="488" y="1359" on="0"/>
        <pt x="524" y="1275" on="0"/>
        <pt x="524" y="1227" on="1"/>
        <pt x="524" y="1179" on="0"/>
        <pt x="488" y="1095" on="0"/>
        <pt x="425" y="1032" on="0"/>
        <pt x="341" y="995" on="0"/>
        <pt x="293" y="995" on="1"/>
        <pt x="245" y="995" on="0"/>
        <pt x="161" y="1032" on="0"/>
        <pt x="98" y="1095" on="0"/>
        <pt x="61" y="1179" on="0"/>
      </contour>
      <contour>
        <pt x="143" y="1227" on="1"/>
        <pt x="143" y="1196" on="0"/>
        <pt x="167" y="1142" on="0"/>
        <pt x="208" y="1101" on="0"/>
        <pt x="262" y="1077" on="0"/>
        <pt x="293" y="1077" on="1"/>
        <pt x="324" y="1077" on="0"/>
        <pt x="378" y="1101" on="0"/>
        <pt x="418" y="1142" on="0"/>
        <pt x="442" y="1196" on="0"/>
        <pt x="442" y="1227" on="1"/>
        <pt x="442" y="1258" on="0"/>
        <pt x="418" y="1312" on="0"/>
        <pt x="378" y="1352" on="0"/>
        <pt x="324" y="1376" on="0"/>
        <pt x="293" y="1376" on="1"/>
        <pt x="262" y="1376" on="0"/>
        <pt x="208" y="1352" on="0"/>
        <pt x="167" y="1312" on="0"/>
        <pt x="143" y="1258" on="0"/>
      </contour>
    </TTGlyph>
    <TTGlyph name="dieresis" xMin="236" yMin="1221" xMax="788" yMax="1405">
      <contour>
        <pt x="236" y="1313" on="1"/>
        <pt x="236" y="1332" on="0"/>
        <pt x="250" y="1366" on="0"/>
        <pt x="275" y="1391" on="0"/>
        <pt x="308" y="1405" on="0"/>
        <pt x="328" y="1405" on="1"/>
        <pt x="347" y="1405" on="0"/>
        <pt x="381" y="1391" on="0"/>
        <pt x="406" y="1366" on="0"/>
        <pt x="420" y="1332" on="0"/>
        <pt x="420" y="1313" on="1"/>
        <pt x="420" y="1294" on="0"/>
        <pt x="406" y="1260" on="0"/>
        <pt x="381" y="1235" on="0"/>
        <pt x="347" y="1221" on="0"/>
        <pt x="328" y="1221" on="1"/>
        <pt x="308" y="1221" on="0"/>
        <pt x="275" y="1235" on="0"/>
        <pt x="250" y="1260" on="0"/>
        <pt x="236" y="1294" on="0"/>
      </contour>
      <contour>
        <pt x="604" y="1313" on="1"/>
        <pt x="604" y="1332" on="0"/>
        <pt x="618" y="1366" on="0"/>
        <pt x="643" y="1391" on="0"/>
        <pt x="677" y="1405" on="0"/>
        <pt x="696" y="1405" on="1"/>
        <pt x="715" y="1405" on="0"/>
        <pt x="749" y="1391" on="0"/>
        <pt x="774" y="1366" on="0"/>
        <pt x="788" y="1332" on="0"/>
        <pt x="788" y="1313" on="1"/>
        <pt x="788" y="1294" on="0"/>
        <pt x="774" y="1260" on="0"/>
        <pt x="749" y="1235" on="0"/>
        <pt x="715" y="1221" on="0"/>
        <pt x="696" y="1221" on="1"/>
        <pt x="677" y="1221" on="0"/>
        <pt x="643" y="1235" on="0"/>
        <pt x="618" y="1260" on="0"/>
        <pt x="604" y="1294" on="0"/>
      </contour>
    </TTGlyph>
    <TTGlyph name="divide" xMin="143" yMin="270" xMax="1188" yMax="1135">
      <contour>
        <pt x="143" y="651" on="1"/>
        <pt x="143" y="754" on="1"/>
        <pt x="1188" y="754" on="1"/>
        <pt x="1188" y="651" on="1"/>
      </contour>
      <contour>
        <pt x="567" y="369" on="1"/>
        <pt x="567" y="390" on="0"/>
        <pt x="582" y="425" on="0"/>
        <pt x="609" y="452" on="0"/>
        <pt x="645" y="467" on="0"/>
        <pt x="666" y="467" on="1"/>
        <pt x="708" y="467" on="0"/>
        <pt x="764" y="411" on="0"/>
        <pt x="764" y="369" on="1"/>
        <pt x="764" y="348" on="0"/>
        <pt x="749" y="312" on="0"/>
        <pt x="722" y="285" on="0"/>
        <pt x="687" y="270" on="0"/>
        <pt x="666" y="270" on="1"/>
        <pt x="624" y="270" on="0"/>
        <pt x="567" y="327" on="0"/>
      </contour>
      <contour>
        <pt x="567" y="1036" on="1"/>
        <pt x="567" y="1078" on="0"/>
        <pt x="624" y="1135" on="0"/>
        <pt x="666" y="1135" on="1"/>
        <pt x="687" y="1135" on="0"/>
        <pt x="722" y="1120" on="0"/>
        <pt x="749" y="1093" on="0"/>
        <pt x="764" y="1057" on="0"/>
        <pt x="764" y="1036" on="1"/>
        <pt x="764" y="994" on="0"/>
        <pt x="708" y="938" on="0"/>
        <pt x="666" y="938" on="1"/>
        <pt x="645" y="938" on="0"/>
        <pt x="609" y="953" on="0"/>
        <pt x="582" y="980" on="0"/>
        <pt x="567" y="1015" on="0"/>
      </contour>
    </TTGlyph>
    <TTGlyph name="dollar" xMin="102" yMin="-203" xMax="829" yMax="1595">
      <contour>
        <pt x="438" y="0" on="1"/>
        <pt x="381" y="0" on="0"/>
        <pt x="279" y="20" on="0"/>
        <pt x="193" y="51" on="0"/>
        <pt x="124" y="87" on="0"/>
        <pt x="102" y="102" on="1"/>
        <pt x="125" y="319" on="1"/>
        <pt x="141" y="319" on="1"/>
        <pt x="153" y="272" on="0"/>
        <pt x="205" y="187" on="0"/>
        <pt x="281" y="123" on="0"/>
        <pt x="378" y="84" on="0"/>
        <pt x="434" y="84" on="1"/>
        <pt x="438" y="84" on="1"/>
        <pt x="438" y="629" on="1"/>
        <pt x="383" y="677" on="0"/>
        <pt x="271" y="777" on="0"/>
        <pt x="180" y="891" on="0"/>
        <pt x="123" y="1023" on="0"/>
        <pt x="123" y="1104" on="1"/>
        <pt x="123" y="1174" on="0"/>
        <pt x="175" y="1288" on="0"/>
        <pt x="262" y="1373" on="0"/>
        <pt x="376" y="1425" on="0"/>
        <pt x="438" y="1432" on="1"/>
        <pt x="438" y="1595" on="1"/>
        <pt x="500" y="1595" on="1"/>
        <pt x="500" y="1434" on="1"/>
        <pt x="546" y="1432" on="0"/>
        <pt x="624" y="1415" on="0"/>
        <pt x="686" y="1394" on="0"/>
        <pt x="733" y="1372" on="0"/>
        <pt x="748" y="1366" on="1"/>
        <pt x="741" y="1184" on="1"/>
        <pt x="727" y="1184" on="1"/>
        <pt x="719" y="1206" on="0"/>
        <pt x="685" y="1261" on="0"/>
        <pt x="629" y="1310" on="0"/>
        <pt x="551" y="1345" on="0"/>
        <pt x="500" y="1348" on="1"/>
        <pt x="500" y="821" on="1"/>
        <pt x="557" y="769" on="0"/>
        <pt x="674" y="662" on="0"/>
        <pt x="769" y="547" on="0"/>
        <pt x="829" y="421" on="0"/>
        <pt x="829" y="350" on="1"/>
        <pt x="829" y="292" on="0"/>
        <pt x="791" y="176" on="0"/>
        <pt x="710" y="79" on="0"/>
        <pt x="586" y="11" on="0"/>
        <pt x="500" y="2" on="1"/>
        <pt x="500" y="-203" on="1"/>
        <pt x="438" y="-203" on="1"/>
      </contour>
      <contour>
        <pt x="655" y="287" on="1"/>
        <pt x="655" y="329" on="0"/>
        <pt x="631" y="405" on="0"/>
        <pt x="589" y="475" on="0"/>
        <pt x="532" y="540" on="0"/>
        <pt x="500" y="571" on="1"/>
        <pt x="500" y="90" on="1"/>
        <pt x="572" y="109" on="0"/>
        <pt x="655" y="214" on="0"/>
      </contour>
      <contour>
        <pt x="281" y="1151" on="1"/>
        <pt x="281" y="1114" on="0"/>
        <pt x="305" y="1044" on="0"/>
        <pt x="347" y="977" on="0"/>
        <pt x="404" y="911" on="0"/>
        <pt x="438" y="879" on="1"/>
        <pt x="438" y="1346" on="1"/>
        <pt x="361" y="1333" on="0"/>
        <pt x="281" y="1226" on="0"/>
      </contour>
    </TTGlyph>
    <TTGlyph name="dotaccent" xMin="412" yMin="1212" xMax="614" yMax="1415">
      <contour>
        <pt x="412" y="1313" on="1"/>
        <pt x="412" y="1334" on="0"/>
        <pt x="428" y="1372" on="0"/>
        <pt x="455" y="1399" on="0"/>
        <pt x="491" y="1415" on="0"/>
        <pt x="512" y="1415" on="1"/>
        <pt x="555" y="1415" on="0"/>
        <pt x="614" y="1356" on="0"/>
        <pt x="614" y="1313" on="1"/>
        <pt x="614" y="1292" on="0"/>
        <pt x="598" y="1255" on="0"/>
        <pt x="571" y="1228" on="0"/>
        <pt x="533" y="1212" on="0"/>
        <pt x="512" y="1212" on="1"/>
        <pt x="491" y="1212" on="0"/>
        <pt x="455" y="1228" on="0"/>
        <pt x="428" y="1255" on="0"/>
        <pt x="412" y="1292" on="0"/>
      </contour>
    </TTGlyph>
    <TTGlyph name="dotlessi" xMin="139" yMin="0" xMax="371" yMax="1075">
      <contour>
        <pt x="168" y="664" on="1"/>
        <pt x="168" y="754" on="0"/>
        <pt x="164" y="887" on="0"/>
        <pt x="157" y="984" on="0"/>
        <pt x="146" y="1050" on="0"/>
        <pt x="139" y="1071" on="1"/>
        <pt x="139" y="1075" on="1"/>
        <pt x="371" y="1075" on="1"/>
        <pt x="371" y="1071" on="1"/>
        <pt x="364" y="1050" on="0"/>
        <pt x="353" y="984" on="0"/>
        <pt x="346" y="887" on="0"/>
        <pt x="342" y="754" on="0"/>
        <pt x="342" y="664" on="1"/>
        <pt x="342" y="412" on="1"/>
        <pt x="342" y="322" on="0"/>
        <pt x="346" y="188" on="0"/>
        <pt x="353" y="91" on="0"/>
        <pt x="364" y="25" on="0"/>
        <pt x="371" y="4" on="1"/>
        <pt x="371" y="0" on="1"/>
        <pt x="139" y="0" on="1"/>
        <pt x="139" y="4" on="1"/>
        <pt x="146" y="25" on="0"/>
        <pt x="157" y="91" on="0"/>
        <pt x="164" y="188" on="0"/>
        <pt x="168" y="322" on="0"/>
        <pt x="168" y="412" on="1"/>
      </contour>
    </TTGlyph>
    <TTGlyph name="dotlessj" xMin="-31" yMin="-457" xMax="375" yMax="1075">
      <contour>
        <pt x="172" y="664" on="1"/>
        <pt x="172" y="754" on="0"/>
        <pt x="168" y="887" on="0"/>
        <pt x="161" y="984" on="0"/>
        <pt x="150" y="1050" on="0"/>
        <pt x="143" y="1071" on="1"/>
        <pt x="143" y="1075" on="1"/>
        <pt x="375" y="1075" on="1"/>
        <pt x="375" y="1071" on="1"/>
        <pt x="368" y="1050" on="0"/>
        <pt x="357" y="984" on="0"/>
        <pt x="350" y="887" on="0"/>
        <pt x="346" y="754" on="0"/>
        <pt x="346" y="664" on="1"/>
        <pt x="346" y="201" on="1"/>
        <pt x="346" y="59" on="0"/>
        <pt x="297" y="-137" on="0"/>
        <pt x="204" y="-282" on="0"/>
        <pt x="72" y="-396" on="0"/>
        <pt x="-12" y="-457" on="1"/>
        <pt x="-31" y="-434" on="1"/>
        <pt x="42" y="-368" on="0"/>
        <pt x="124" y="-237" on="0"/>
        <pt x="163" y="-87" on="0"/>
        <pt x="172" y="90" on="0"/>
        <pt x="172" y="201" on="1"/>
      </contour>
    </TTGlyph>
    <TTGlyph name="e" xMin="131" yMin="-6" xMax="764" yMax="1087">
      <contour>
        <pt x="131" y="1075" on="1"/>
        <pt x="229" y="1075" on="0"/>
        <pt x="435" y="1076" on="0"/>
        <pt x="611" y="1079" on="0"/>
        <pt x="738" y="1083" on="0"/>
        <pt x="758" y="1087" on="1"/>
        <pt x="719" y="979" on="1"/>
        <pt x="692" y="986" on="0"/>
        <pt x="658" y="992" on="1"/>
        <pt x="628" y="997" on="0"/>
        <pt x="543" y="1006" on="0"/>
        <pt x="487" y="1006" on="1"/>
        <pt x="467" y="1006" on="0"/>
        <pt x="415" y="1003" on="0"/>
        <pt x="391" y="1001" on="1"/>
        <pt x="363" y="999" on="0"/>
        <pt x="334" y="997" on="1"/>
        <pt x="334" y="602" on="1"/>
        <pt x="415" y="603" on="0"/>
        <pt x="545" y="609" on="0"/>
        <pt x="591" y="614" on="1"/>
        <pt x="645" y="618" on="0"/>
        <pt x="686" y="625" on="1"/>
        <pt x="662" y="506" on="1"/>
        <pt x="607" y="513" on="0"/>
        <pt x="551" y="518" on="1"/>
        <pt x="503" y="523" on="0"/>
        <pt x="387" y="530" on="0"/>
        <pt x="334" y="530" on="1"/>
        <pt x="334" y="76" on="1"/>
        <pt x="427" y="76" on="0"/>
        <pt x="583" y="91" on="0"/>
        <pt x="641" y="100" on="1"/>
        <pt x="709" y="111" on="0"/>
        <pt x="764" y="125" on="1"/>
        <pt x="741" y="-6" on="1"/>
        <pt x="726" y="-5" on="0"/>
        <pt x="659" y="-2" on="0"/>
        <pt x="586" y="-1" on="0"/>
        <pt x="522" y="0" on="0"/>
        <pt x="510" y="0" on="1"/>
        <pt x="131" y="0" on="1"/>
        <pt x="131" y="4" on="1"/>
        <pt x="138" y="25" on="0"/>
        <pt x="149" y="91" on="0"/>
        <pt x="156" y="188" on="0"/>
        <pt x="160" y="322" on="0"/>
        <pt x="160" y="412" on="1"/>
        <pt x="160" y="664" on="1"/>
        <pt x="160" y="754" on="0"/>
        <pt x="156" y="887" on="0"/>
        <pt x="149" y="984" on="0"/>
        <pt x="138" y="1050" on="0"/>
        <pt x="131" y="1071" on="1"/>
        <pt x="131" y="1075" on="1"/>
      </contour>
    </TTGlyph>
    <TTGlyph name="eacute" xMin="131" yMin="-6" xMax="764" yMax="1510">
      <component glyphName="e" x="0" y="0" flags="0x204"/>
      <component glyphName="acute" x="-75" y="33" flags="0x4"/>
    </TTGlyph>
    <TTGlyph name="ebreve" xMin="122" yMin="-6" xMax="764" yMax="1542">
      <component glyphName="e" x="0" y="0" flags="0x204"/>
      <component glyphName="breve" x="-75" y="33" flags="0x4"/>
    </TTGlyph>
    <TTGlyph name="ecaron" xMin="68" yMin="-6" xMax="806" yMax="1510">
      <component glyphName="e" x="0" y="0" flags="0x204"/>
      <component glyphName="caron" x="-75" y="33" flags="0x4"/>
    </TTGlyph>
</ttFont>
